<?xml version="1.0" encoding="UTF-8" standalone="no"?>
<!DOCTYPE svg PUBLIC "-//W3C//DTD SVG 1.1//EN"
 "http://www.w3.org/Graphics/SVG/1.1/DTD/svg11.dtd">
<!-- Generated by graphviz version 8.1.0 (20230707.0739)
 -->
<!-- Title: current_workflow Pages: 1 -->
<svg width="383pt" height="474pt"
 viewBox="0.00 0.00 383.09 474.00" xmlns="http://www.w3.org/2000/svg" xmlns:xlink="http://www.w3.org/1999/xlink">
<g id="graph0" class="graph" transform="scale(1 1) rotate(0) translate(4 470)">
<title>current_workflow</title>
<polygon fill="white" stroke="none" points="-4,4 -4,-470 379.09,-470 379.09,4 -4,4"/>
<g id="clust1" class="cluster">
<title>cluster_checkin</title>
<polygon fill="none" stroke="black" points="223.09,-64 223.09,-217 367.09,-217 367.09,-64 223.09,-64"/>
<text text-anchor="middle" x="295.09" y="-199.7" font-family="Times,serif" font-size="14.00">check&#45;in station</text>
</g>
<g id="clust2" class="cluster">
<title>cluster_votingbooth</title>
<polygon fill="none" stroke="black" points="47.09,-309.5 47.09,-458 229.09,-458 229.09,-309.5 47.09,-309.5"/>
<text text-anchor="middle" x="138.09" y="-440.7" font-family="Times,serif" font-size="14.00">voting booth (no phone)</text>
</g>
<g id="clust3" class="cluster">
<title>cluster_challenge</title>
<polygon fill="none" stroke="black" points="67.09,-225 67.09,-301.5 205.09,-301.5 205.09,-225 67.09,-225"/>
<text text-anchor="middle" x="136.09" y="-284.2" font-family="Times,serif" font-size="14.00">challenge station</text>
</g>
<g id="clust4" class="cluster">
<title>cluster_verify</title>
<polygon fill="none" stroke="black" points="17.09,-64 17.09,-140.5 213.09,-140.5 213.09,-64 17.09,-64"/>
<text text-anchor="middle" x="115.09" y="-123.2" font-family="Times,serif" font-size="14.00">verify tally</text>
</g>
<!-- start -->
<g id="node1" class="node">
<title>start</title>
<ellipse fill="none" stroke="black" cx="315.09" cy="-251" rx="27" ry="18"/>
<text text-anchor="middle" x="315.09" y="-245.95" font-family="Times,serif" font-size="14.00">start</text>
</g>
<!-- id_check -->
<g id="node2" class="node">
<title>id_check</title>
<ellipse fill="none" stroke="black" cx="315.09" cy="-166.5" rx="44.19" ry="18"/>
<text text-anchor="middle" x="315.09" y="-161.45" font-family="Times,serif" font-size="14.00">id_check</text>
</g>
<!-- start&#45;&gt;id_check -->
<g id="edge1" class="edge">
<title>start&#45;&gt;id_check</title>
<path fill="none" stroke="black" d="M315.09,-232.5C315.09,-221.89 315.09,-208.1 315.09,-195.96"/>
<polygon fill="black" stroke="black" points="318.59,-195.97 315.09,-185.97 311.59,-195.97 318.59,-195.97"/>
</g>
<!-- fill_out_ballot -->
<g id="node3" class="node">
<title>fill_out_ballot</title>
<ellipse fill="none" stroke="black" cx="295.09" cy="-90" rx="63.63" ry="18"/>
<text text-anchor="middle" x="295.09" y="-84.95" font-family="Times,serif" font-size="14.00">fill_out_ballot</text>
</g>
<!-- id_check&#45;&gt;fill_out_ballot -->
<g id="edge2" class="edge">
<title>id_check&#45;&gt;fill_out_ballot</title>
<path fill="none" stroke="black" d="M310.46,-148.22C308.13,-139.54 305.24,-128.8 302.61,-118.98"/>
<polygon fill="black" stroke="black" points="305.75,-118.19 299.78,-109.44 298.99,-120.01 305.75,-118.19"/>
</g>
<!-- scan_submit_ballot -->
<g id="node4" class="node">
<title>scan_submit_ballot</title>
<ellipse fill="none" stroke="black" cx="138.09" cy="-407.5" rx="83.08" ry="18"/>
<text text-anchor="middle" x="138.09" y="-402.45" font-family="Times,serif" font-size="14.00">scan_submit_ballot</text>
</g>
<!-- fill_out_ballot&#45;&gt;scan_submit_ballot -->
<g id="edge3" class="edge">
<title>fill_out_ballot&#45;&gt;scan_submit_ballot</title>
<path fill="none" stroke="black" d="M283.38,-107.87C276.21,-118.95 267.41,-134.02 262.09,-148.5 230.13,-235.48 276.48,-277.07 224.09,-353.5 214.66,-367.27 200.36,-378.12 186.11,-386.33"/>
<polygon fill="black" stroke="black" points="184.95,-383.51 177.8,-391.34 188.27,-389.68 184.95,-383.51"/>
</g>
<!-- take_confirmation -->
<g id="node5" class="node">
<title>take_confirmation</title>
<ellipse fill="none" stroke="black" cx="136.09" cy="-335.5" rx="78.99" ry="18"/>
<text text-anchor="middle" x="136.09" y="-330.45" font-family="Times,serif" font-size="14.00">take_confirmation</text>
</g>
<!-- scan_submit_ballot&#45;&gt;take_confirmation -->
<g id="edge4" class="edge">
<title>scan_submit_ballot&#45;&gt;take_confirmation</title>
<path fill="none" stroke="black" d="M137.6,-389.2C137.39,-381.74 137.13,-372.82 136.89,-364.47"/>
<polygon fill="black" stroke="black" points="140.37,-364.5 136.58,-354.6 133.37,-364.7 140.37,-364.5"/>
</g>
<!-- audit_or_cast -->
<g id="node6" class="node">
<title>audit_or_cast</title>
<ellipse fill="none" stroke="black" cx="136.09" cy="-251" rx="60.56" ry="18"/>
<text text-anchor="middle" x="136.09" y="-245.95" font-family="Times,serif" font-size="14.00">audit_or_cast</text>
</g>
<!-- take_confirmation&#45;&gt;audit_or_cast -->
<g id="edge5" class="edge">
<title>take_confirmation&#45;&gt;audit_or_cast</title>
<path fill="none" stroke="black" d="M136.09,-317C136.09,-306.39 136.09,-292.6 136.09,-280.46"/>
<polygon fill="black" stroke="black" points="139.59,-280.47 136.09,-270.47 132.59,-280.47 139.59,-280.47"/>
</g>
<!-- audit -->
<g id="node8" class="node">
<title>audit</title>
<ellipse fill="none" stroke="black" cx="186.09" cy="-166.5" rx="29.34" ry="18"/>
<text text-anchor="middle" x="186.09" y="-161.45" font-family="Times,serif" font-size="14.00">audit</text>
</g>
<!-- audit_or_cast&#45;&gt;audit -->
<g id="edge6" class="edge">
<title>audit_or_cast&#45;&gt;audit</title>
<path fill="none" stroke="black" d="M146.45,-232.91C153.43,-221.4 162.75,-206.02 170.6,-193.06"/>
<polygon fill="black" stroke="black" points="174.07,-195.1 176.26,-184.73 168.08,-191.47 174.07,-195.1"/>
</g>
<!-- cast -->
<g id="node9" class="node">
<title>cast</title>
<ellipse fill="none" stroke="black" cx="112.09" cy="-166.5" rx="27" ry="18"/>
<text text-anchor="middle" x="112.09" y="-161.45" font-family="Times,serif" font-size="14.00">cast</text>
</g>
<!-- audit_or_cast&#45;&gt;cast -->
<g id="edge7" class="edge">
<title>audit_or_cast&#45;&gt;cast</title>
<path fill="none" stroke="black" d="M131.12,-232.91C127.94,-221.95 123.73,-207.5 120.08,-194.96"/>
<polygon fill="black" stroke="black" points="123.22,-194.2 117.06,-185.57 116.49,-196.15 123.22,-194.2"/>
</g>
<!-- verify_vote_included -->
<g id="node7" class="node">
<title>verify_vote_included</title>
<ellipse fill="none" stroke="black" cx="115.09" cy="-90" rx="89.74" ry="18"/>
<text text-anchor="middle" x="115.09" y="-84.95" font-family="Times,serif" font-size="14.00">verify_vote_included</text>
</g>
<!-- end -->
<g id="node10" class="node">
<title>end</title>
<ellipse fill="none" stroke="black" cx="56.09" cy="-18" rx="27" ry="18"/>
<text text-anchor="middle" x="56.09" y="-12.95" font-family="Times,serif" font-size="14.00">end</text>
</g>
<!-- verify_vote_included&#45;&gt;end -->
<g id="edge10" class="edge">
<title>verify_vote_included&#45;&gt;end</title>
<path fill="none" stroke="black" d="M100.81,-72.05C93.22,-63.04 83.76,-51.83 75.51,-42.04"/>
<polygon fill="black" stroke="black" points="77.76,-40.28 68.64,-34.89 72.41,-44.79 77.76,-40.28"/>
</g>
<!-- audit&#45;&gt;fill_out_ballot -->
<g id="edge8" class="edge">
<title>audit&#45;&gt;fill_out_ballot</title>
<path fill="none" stroke="black" d="M205.08,-152.52C221.02,-141.63 244.12,-125.84 262.94,-112.98"/>
<polygon fill="black" stroke="black" points="264.5,-115.47 270.78,-106.94 260.55,-109.69 264.5,-115.47"/>
</g>
<!-- cast&#45;&gt;verify_vote_included -->
<g id="edge9" class="edge">
<title>cast&#45;&gt;verify_vote_included</title>
<path fill="none" stroke="black" d="M112.79,-148.22C113.14,-139.63 113.56,-129.03 113.95,-119.3"/>
<polygon fill="black" stroke="black" points="117.49,-119.58 114.39,-109.44 110.49,-119.29 117.49,-119.58"/>
</g>
<!-- cast&#45;&gt;end -->
<g id="edge11" class="edge">
<title>cast&#45;&gt;end</title>
<path fill="none" stroke="black" d="M85.42,-162.45C59.22,-158.83 21.92,-151.83 13.09,-140.5 -7.8,-113.68 0.44,-95.56 13.09,-64 16.87,-54.57 23.68,-46 30.77,-38.93"/>
<polygon fill="black" stroke="black" points="32.46,-42.21 37.46,-32.87 27.72,-37.06 32.46,-42.21"/>
</g>
</g>
</svg>
