<?xml version="1.0" encoding="UTF-8" standalone="no"?>
<!DOCTYPE svg PUBLIC "-//W3C//DTD SVG 1.1//EN"
 "http://www.w3.org/Graphics/SVG/1.1/DTD/svg11.dtd">
<!-- Generated by graphviz version 8.1.0 (20230707.0739)
 -->
<!-- Title: current_workflow Pages: 1 -->
<svg width="238pt" height="581pt"
 viewBox="0.00 0.00 238.00 580.50" xmlns="http://www.w3.org/2000/svg" xmlns:xlink="http://www.w3.org/1999/xlink">
<g id="graph0" class="graph" transform="scale(1 1) rotate(0) translate(4 576.5)">
<title>current_workflow</title>
<polygon fill="white" stroke="none" points="-4,4 -4,-576.5 234,-576.5 234,4 -4,4"/>
<g id="clust1" class="cluster">
<title>cluster_votingbooth</title>
<polygon fill="none" stroke="black" points="15,-176 15,-414 189,-414 189,-176 15,-176"/>
<text text-anchor="middle" x="102" y="-396.7" font-family="Times,serif" font-size="14.00">voting booth</text>
</g>
<g id="clust2" class="cluster">
<title>cluster_checkin</title>
<polygon fill="none" stroke="black" points="50,-433 50,-509.5 154,-509.5 154,-433 50,-433"/>
<text text-anchor="middle" x="102" y="-492.2" font-family="Times,serif" font-size="14.00">check&#45;in station</text>
</g>
<g id="clust3" class="cluster">
<title>cluster_challenge</title>
<polygon fill="none" stroke="black" points="8,-80.5 8,-157 196,-157 196,-80.5 8,-80.5"/>
<text text-anchor="middle" x="102" y="-139.7" font-family="Times,serif" font-size="14.00">challenge station</text>
</g>
<!-- start -->
<g id="node1" class="node">
<title>start</title>
<ellipse fill="none" stroke="black" cx="102" cy="-554.5" rx="27" ry="18"/>
<text text-anchor="middle" x="102" y="-549.45" font-family="Times,serif" font-size="14.00">start</text>
</g>
<!-- id_check -->
<g id="node3" class="node">
<title>id_check</title>
<ellipse fill="none" stroke="black" cx="102" cy="-459" rx="44.19" ry="18"/>
<text text-anchor="middle" x="102" y="-453.95" font-family="Times,serif" font-size="14.00">id_check</text>
</g>
<!-- start&#45;&gt;id_check -->
<g id="edge1" class="edge">
<title>start&#45;&gt;id_check</title>
<path fill="none" stroke="black" d="M102,-536.35C102,-522.86 102,-503.78 102,-488.07"/>
<polygon fill="black" stroke="black" points="105.5,-488.36 102,-478.36 98.5,-488.36 105.5,-488.36"/>
</g>
<!-- end -->
<g id="node2" class="node">
<title>end</title>
<ellipse fill="none" stroke="black" cx="102" cy="-18" rx="27" ry="18"/>
<text text-anchor="middle" x="102" y="-12.95" font-family="Times,serif" font-size="14.00">end</text>
</g>
<!-- fill_out_ballot -->
<g id="node4" class="node">
<title>fill_out_ballot</title>
<ellipse fill="none" stroke="black" cx="102" cy="-363.5" rx="63.63" ry="18"/>
<text text-anchor="middle" x="102" y="-358.45" font-family="Times,serif" font-size="14.00">fill_out_ballot</text>
</g>
<!-- id_check&#45;&gt;fill_out_ballot -->
<g id="edge4" class="edge">
<title>id_check&#45;&gt;fill_out_ballot</title>
<path fill="none" stroke="black" d="M102,-440.85C102,-427.36 102,-408.28 102,-392.57"/>
<polygon fill="black" stroke="black" points="105.5,-392.86 102,-382.86 98.5,-392.86 105.5,-392.86"/>
</g>
<!-- submit_ballot -->
<g id="node5" class="node">
<title>submit_ballot</title>
<ellipse fill="none" stroke="black" cx="102" cy="-290.5" rx="62.1" ry="18"/>
<text text-anchor="middle" x="102" y="-285.45" font-family="Times,serif" font-size="14.00">submit_ballot</text>
</g>
<!-- fill_out_ballot&#45;&gt;submit_ballot -->
<g id="edge2" class="edge">
<title>fill_out_ballot&#45;&gt;submit_ballot</title>
<path fill="none" stroke="black" d="M102,-345.31C102,-337.55 102,-328.18 102,-319.45"/>
<polygon fill="black" stroke="black" points="105.5,-319.53 102,-309.53 98.5,-319.53 105.5,-319.53"/>
</g>
<!-- take_confirmation -->
<g id="node6" class="node">
<title>take_confirmation</title>
<ellipse fill="none" stroke="black" cx="102" cy="-202" rx="78.99" ry="18"/>
<text text-anchor="middle" x="102" y="-196.95" font-family="Times,serif" font-size="14.00">take_confirmation</text>
</g>
<!-- submit_ballot&#45;&gt;take_confirmation -->
<g id="edge3" class="edge">
<title>submit_ballot&#45;&gt;take_confirmation</title>
<path fill="none" stroke="black" d="M102,-272.41C102,-260.64 102,-244.73 102,-231.11"/>
<polygon fill="black" stroke="black" points="105.5,-231.35 102,-221.35 98.5,-231.35 105.5,-231.35"/>
</g>
<!-- audit_or_cast -->
<g id="node7" class="node">
<title>audit_or_cast</title>
<polygon fill="none" stroke="black" points="102,-124.5 16.35,-106.5 102,-88.5 187.65,-106.5 102,-124.5"/>
<text text-anchor="middle" x="102" y="-101.45" font-family="Times,serif" font-size="14.00">audit_or_cast</text>
</g>
<!-- take_confirmation&#45;&gt;audit_or_cast -->
<g id="edge5" class="edge">
<title>take_confirmation&#45;&gt;audit_or_cast</title>
<path fill="none" stroke="black" d="M102,-183.85C102,-170.36 102,-151.28 102,-135.57"/>
<polygon fill="black" stroke="black" points="105.5,-135.86 102,-125.86 98.5,-135.86 105.5,-135.86"/>
</g>
<!-- audit_or_cast&#45;&gt;end -->
<g id="edge7" class="edge">
<title>audit_or_cast&#45;&gt;end</title>
<path fill="none" stroke="black" d="M102,-88C102,-76.27 102,-60.58 102,-47.12"/>
<polygon fill="black" stroke="black" points="105.5,-47.48 102,-37.48 98.5,-47.48 105.5,-47.48"/>
<text text-anchor="middle" x="112.5" y="-57.2" font-family="Times,serif" font-size="14.00">cast</text>
</g>
<!-- audit_or_cast&#45;&gt;fill_out_ballot -->
<g id="edge6" class="edge">
<title>audit_or_cast&#45;&gt;fill_out_ballot</title>
<path fill="none" stroke="black" d="M127.79,-119.36C148.85,-130.62 177.16,-149.74 190,-176 216.07,-229.34 204.29,-258.05 173,-308.5 164.86,-321.63 152.27,-332.73 139.95,-341.39"/>
<polygon fill="black" stroke="black" points="138.5,-338.81 132.09,-347.25 142.36,-344.65 138.5,-338.81"/>
<text text-anchor="middle" x="216.5" y="-241.2" font-family="Times,serif" font-size="14.00">audit</text>
</g>
</g>
</svg>
