<?xml version="1.0" encoding="UTF-8" standalone="no"?>
<!DOCTYPE svg PUBLIC "-//W3C//DTD SVG 1.1//EN"
 "http://www.w3.org/Graphics/SVG/1.1/DTD/svg11.dtd">
<!-- Generated by graphviz version 8.1.0 (20230707.0739)
 -->
<!-- Title: current_workflow Pages: 1 -->
<svg width="287pt" height="581pt"
 viewBox="0.00 0.00 287.00 580.50" xmlns="http://www.w3.org/2000/svg" xmlns:xlink="http://www.w3.org/1999/xlink">
<g id="graph0" class="graph" transform="scale(1 1) rotate(0) translate(4 576.5)">
<title>current_workflow</title>
<polygon fill="white" stroke="none" points="-4,4 -4,-576.5 283,-576.5 283,4 -4,4"/>
<g id="clust1" class="cluster">
<title>cluster_votingbooth</title>
<polygon fill="none" stroke="black" points="8,-176 8,-414 190,-414 190,-176 8,-176"/>
<text text-anchor="middle" x="99" y="-396.7" font-family="Times,serif" font-size="14.00">voting booth</text>
</g>
<g id="clust2" class="cluster">
<title>cluster_checkin</title>
<polygon fill="none" stroke="black" points="61,-433 61,-509.5 165,-509.5 165,-433 61,-433"/>
<text text-anchor="middle" x="113" y="-492.2" font-family="Times,serif" font-size="14.00">check&#45;in station</text>
</g>
<g id="clust3" class="cluster">
<title>cluster_challenge</title>
<polygon fill="none" stroke="black" points="83,-80.5 83,-157 271,-157 271,-80.5 83,-80.5"/>
<text text-anchor="middle" x="177" y="-139.7" font-family="Times,serif" font-size="14.00">challenge station</text>
</g>
<!-- start -->
<g id="node1" class="node">
<title>start</title>
<ellipse fill="none" stroke="black" cx="113" cy="-554.5" rx="27" ry="18"/>
<text text-anchor="middle" x="113" y="-549.45" font-family="Times,serif" font-size="14.00">start</text>
</g>
<!-- id_check -->
<g id="node2" class="node">
<title>id_check</title>
<ellipse fill="none" stroke="black" cx="113" cy="-459" rx="44.19" ry="18"/>
<text text-anchor="middle" x="113" y="-453.95" font-family="Times,serif" font-size="14.00">id_check</text>
</g>
<!-- start&#45;&gt;id_check -->
<g id="edge1" class="edge">
<title>start&#45;&gt;id_check</title>
<path fill="none" stroke="black" d="M113,-536.35C113,-522.86 113,-503.78 113,-488.07"/>
<polygon fill="black" stroke="black" points="116.5,-488.36 113,-478.36 109.5,-488.36 116.5,-488.36"/>
</g>
<!-- fill_out_ballot -->
<g id="node3" class="node">
<title>fill_out_ballot</title>
<ellipse fill="none" stroke="black" cx="113" cy="-363.5" rx="63.63" ry="18"/>
<text text-anchor="middle" x="113" y="-358.45" font-family="Times,serif" font-size="14.00">fill_out_ballot</text>
</g>
<!-- id_check&#45;&gt;fill_out_ballot -->
<g id="edge4" class="edge">
<title>id_check&#45;&gt;fill_out_ballot</title>
<path fill="none" stroke="black" d="M113,-440.85C113,-427.36 113,-408.28 113,-392.57"/>
<polygon fill="black" stroke="black" points="116.5,-392.86 113,-382.86 109.5,-392.86 116.5,-392.86"/>
</g>
<!-- scan_submit_ballot -->
<g id="node4" class="node">
<title>scan_submit_ballot</title>
<ellipse fill="none" stroke="black" cx="99" cy="-290.5" rx="83.08" ry="18"/>
<text text-anchor="middle" x="99" y="-285.45" font-family="Times,serif" font-size="14.00">scan_submit_ballot</text>
</g>
<!-- fill_out_ballot&#45;&gt;scan_submit_ballot -->
<g id="edge2" class="edge">
<title>fill_out_ballot&#45;&gt;scan_submit_ballot</title>
<path fill="none" stroke="black" d="M109.61,-345.31C108.06,-337.46 106.19,-327.97 104.45,-319.16"/>
<polygon fill="black" stroke="black" points="107.73,-318.66 102.36,-309.53 100.86,-320.02 107.73,-318.66"/>
</g>
<!-- take_confirmation -->
<g id="node5" class="node">
<title>take_confirmation</title>
<ellipse fill="none" stroke="black" cx="101" cy="-202" rx="78.99" ry="18"/>
<text text-anchor="middle" x="101" y="-196.95" font-family="Times,serif" font-size="14.00">take_confirmation</text>
</g>
<!-- scan_submit_ballot&#45;&gt;take_confirmation -->
<g id="edge3" class="edge">
<title>scan_submit_ballot&#45;&gt;take_confirmation</title>
<path fill="none" stroke="black" d="M99.4,-272.41C99.67,-260.64 100.04,-244.73 100.35,-231.11"/>
<polygon fill="black" stroke="black" points="103.87,-231.43 100.6,-221.35 96.87,-231.27 103.87,-231.43"/>
</g>
<!-- audit_or_cast -->
<g id="node6" class="node">
<title>audit_or_cast</title>
<polygon fill="none" stroke="black" points="177,-124.5 91.35,-106.5 177,-88.5 262.65,-106.5 177,-124.5"/>
<text text-anchor="middle" x="177" y="-101.45" font-family="Times,serif" font-size="14.00">audit_or_cast</text>
</g>
<!-- take_confirmation&#45;&gt;audit_or_cast -->
<g id="edge5" class="edge">
<title>take_confirmation&#45;&gt;audit_or_cast</title>
<path fill="none" stroke="black" d="M114.94,-183.85C127.02,-168.99 144.6,-147.36 157.97,-130.91"/>
<polygon fill="black" stroke="black" points="161.31,-133.35 164.9,-123.38 155.88,-128.94 161.31,-133.35"/>
</g>
<!-- audit_or_cast&#45;&gt;fill_out_ballot -->
<g id="edge6" class="edge">
<title>audit_or_cast&#45;&gt;fill_out_ballot</title>
<path fill="none" stroke="black" d="M183.48,-123.52C196.79,-159.15 223.39,-246.69 191,-308.5 183.49,-322.84 170.24,-334.13 156.77,-342.6"/>
<polygon fill="black" stroke="black" points="155.36,-339.96 148.48,-348.01 158.88,-346 155.36,-339.96"/>
<text text-anchor="middle" x="219.5" y="-241.2" font-family="Times,serif" font-size="14.00">audit</text>
</g>
<!-- end -->
<g id="node7" class="node">
<title>end</title>
<ellipse fill="none" stroke="black" cx="177" cy="-18" rx="27" ry="18"/>
<text text-anchor="middle" x="177" y="-12.95" font-family="Times,serif" font-size="14.00">end</text>
</g>
<!-- audit_or_cast&#45;&gt;end -->
<g id="edge7" class="edge">
<title>audit_or_cast&#45;&gt;end</title>
<path fill="none" stroke="black" d="M177,-88C177,-76.27 177,-60.58 177,-47.12"/>
<polygon fill="black" stroke="black" points="180.5,-47.48 177,-37.48 173.5,-47.48 180.5,-47.48"/>
<text text-anchor="middle" x="187.5" y="-57.2" font-family="Times,serif" font-size="14.00">cast</text>
</g>
</g>
</svg>
