<?xml version="1.0" encoding="UTF-8" standalone="no"?>
<!DOCTYPE svg PUBLIC "-//W3C//DTD SVG 1.1//EN"
 "http://www.w3.org/Graphics/SVG/1.1/DTD/svg11.dtd">
<!-- Generated by graphviz version 8.1.0 (20230707.0739)
 -->
<!-- Title: current_workflow Pages: 1 -->
<svg width="304pt" height="662pt"
 viewBox="0.00 0.00 304.14 662.00" xmlns="http://www.w3.org/2000/svg" xmlns:xlink="http://www.w3.org/1999/xlink">
<g id="graph0" class="graph" transform="scale(1 1) rotate(0) translate(4 658)">
<title>current_workflow</title>
<polygon fill="white" stroke="none" points="-4,4 -4,-658 300.14,-658 300.14,4 -4,4"/>
<g id="clust1" class="cluster">
<title>cluster_votingbooth</title>
<polygon fill="none" stroke="black" points="90,-305 90,-525.5 272,-525.5 272,-305 90,-305"/>
<text text-anchor="middle" x="181" y="-508.2" font-family="Times,serif" font-size="14.00">voting booth</text>
</g>
<g id="clust2" class="cluster">
<title>cluster_checkin</title>
<polygon fill="none" stroke="black" points="138,-533.5 138,-610 242,-610 242,-533.5 138,-533.5"/>
<text text-anchor="middle" x="190" y="-592.7" font-family="Times,serif" font-size="14.00">check&#45;in station</text>
</g>
<g id="clust3" class="cluster">
<title>cluster_challenge</title>
<polygon fill="none" stroke="black" points="130,-148.5 130,-297 276,-297 276,-148.5 130,-148.5"/>
<text text-anchor="middle" x="203" y="-279.7" font-family="Times,serif" font-size="14.00">challenge station</text>
</g>
<g id="clust6" class="cluster">
<title>cluster_verify</title>
<polygon fill="none" stroke="black" points="8,-64 8,-140.5 204,-140.5 204,-64 8,-64"/>
<text text-anchor="middle" x="106" y="-123.2" font-family="Times,serif" font-size="14.00">verify tally</text>
</g>
<!-- start -->
<g id="node1" class="node">
<title>start</title>
<ellipse fill="none" stroke="black" cx="190" cy="-636" rx="27" ry="18"/>
<text text-anchor="middle" x="190" y="-630.95" font-family="Times,serif" font-size="14.00">start</text>
</g>
<!-- id_check -->
<g id="node2" class="node">
<title>id_check</title>
<ellipse fill="none" stroke="black" cx="190" cy="-559.5" rx="44.19" ry="18"/>
<text text-anchor="middle" x="190" y="-554.45" font-family="Times,serif" font-size="14.00">id_check</text>
</g>
<!-- start&#45;&gt;id_check -->
<g id="edge1" class="edge">
<title>start&#45;&gt;id_check</title>
<path fill="none" stroke="black" d="M190,-617.72C190,-609.13 190,-598.53 190,-588.8"/>
<polygon fill="black" stroke="black" points="193.5,-588.94 190,-578.94 186.5,-588.94 193.5,-588.94"/>
</g>
<!-- fill_out_ballot -->
<g id="node3" class="node">
<title>fill_out_ballot</title>
<ellipse fill="none" stroke="black" cx="190" cy="-475" rx="63.63" ry="18"/>
<text text-anchor="middle" x="190" y="-469.95" font-family="Times,serif" font-size="14.00">fill_out_ballot</text>
</g>
<!-- id_check&#45;&gt;fill_out_ballot -->
<g id="edge4" class="edge">
<title>id_check&#45;&gt;fill_out_ballot</title>
<path fill="none" stroke="black" d="M190,-541C190,-530.39 190,-516.6 190,-504.46"/>
<polygon fill="black" stroke="black" points="193.5,-504.47 190,-494.47 186.5,-504.47 193.5,-504.47"/>
</g>
<!-- scan_submit_ballot -->
<g id="node4" class="node">
<title>scan_submit_ballot</title>
<ellipse fill="none" stroke="black" cx="181" cy="-403" rx="83.08" ry="18"/>
<text text-anchor="middle" x="181" y="-397.95" font-family="Times,serif" font-size="14.00">scan_submit_ballot</text>
</g>
<!-- fill_out_ballot&#45;&gt;scan_submit_ballot -->
<g id="edge2" class="edge">
<title>fill_out_ballot&#45;&gt;scan_submit_ballot</title>
<path fill="none" stroke="black" d="M187.78,-456.7C186.82,-449.24 185.67,-440.32 184.6,-431.97"/>
<polygon fill="black" stroke="black" points="187.95,-431.58 183.2,-422.1 181,-432.47 187.95,-431.58"/>
</g>
<!-- take_confirmation -->
<g id="node5" class="node">
<title>take_confirmation</title>
<ellipse fill="none" stroke="black" cx="183" cy="-331" rx="78.99" ry="18"/>
<text text-anchor="middle" x="183" y="-325.95" font-family="Times,serif" font-size="14.00">take_confirmation</text>
</g>
<!-- scan_submit_ballot&#45;&gt;take_confirmation -->
<g id="edge3" class="edge">
<title>scan_submit_ballot&#45;&gt;take_confirmation</title>
<path fill="none" stroke="black" d="M181.49,-384.7C181.71,-377.24 181.96,-368.32 182.2,-359.97"/>
<polygon fill="black" stroke="black" points="185.72,-360.2 182.51,-350.1 178.73,-360 185.72,-360.2"/>
</g>
<!-- audit_or_cast -->
<g id="node6" class="node">
<title>audit_or_cast</title>
<ellipse fill="none" stroke="black" cx="199" cy="-246.5" rx="60.56" ry="18"/>
<text text-anchor="middle" x="199" y="-241.45" font-family="Times,serif" font-size="14.00">audit_or_cast</text>
</g>
<!-- take_confirmation&#45;&gt;audit_or_cast -->
<g id="edge7" class="edge">
<title>take_confirmation&#45;&gt;audit_or_cast</title>
<path fill="none" stroke="black" d="M186.32,-312.91C188.4,-302.14 191.15,-287.98 193.55,-275.59"/>
<polygon fill="black" stroke="black" points="197.17,-276.34 195.63,-265.86 190.29,-275.01 197.17,-276.34"/>
</g>
<!-- audit -->
<g id="node7" class="node">
<title>audit</title>
<ellipse fill="none" stroke="black" cx="239" cy="-174.5" rx="29.34" ry="18"/>
<text text-anchor="middle" x="239" y="-169.45" font-family="Times,serif" font-size="14.00">audit</text>
</g>
<!-- audit_or_cast&#45;&gt;audit -->
<g id="edge5" class="edge">
<title>audit_or_cast&#45;&gt;audit</title>
<path fill="none" stroke="black" d="M208.68,-228.55C213.37,-220.35 219.1,-210.33 224.31,-201.21"/>
<polygon fill="black" stroke="black" points="227.76,-203.23 229.68,-192.81 221.68,-199.75 227.76,-203.23"/>
</g>
<!-- cast -->
<g id="node8" class="node">
<title>cast</title>
<ellipse fill="none" stroke="black" cx="165" cy="-174.5" rx="27" ry="18"/>
<text text-anchor="middle" x="165" y="-169.45" font-family="Times,serif" font-size="14.00">cast</text>
</g>
<!-- audit_or_cast&#45;&gt;cast -->
<g id="edge6" class="edge">
<title>audit_or_cast&#45;&gt;cast</title>
<path fill="none" stroke="black" d="M190.6,-228.2C186.75,-220.28 182.11,-210.73 177.84,-201.94"/>
<polygon fill="black" stroke="black" points="180.59,-200.59 173.07,-193.12 174.29,-203.65 180.59,-200.59"/>
</g>
<!-- audit&#45;&gt;fill_out_ballot -->
<g id="edge8" class="edge">
<title>audit&#45;&gt;fill_out_ballot</title>
<path fill="none" stroke="black" d="M250.67,-191.29C257.41,-201.38 265.27,-215.05 269,-228.5 291.88,-310.96 314.12,-345.95 273,-421 264.98,-435.64 251.01,-446.82 236.79,-455.05"/>
<polygon fill="black" stroke="black" points="235.63,-452.23 228.47,-460.04 238.94,-458.4 235.63,-452.23"/>
</g>
<!-- verify_vote_included -->
<g id="node9" class="node">
<title>verify_vote_included</title>
<ellipse fill="none" stroke="black" cx="106" cy="-90" rx="89.74" ry="18"/>
<text text-anchor="middle" x="106" y="-84.95" font-family="Times,serif" font-size="14.00">verify_vote_included</text>
</g>
<!-- cast&#45;&gt;verify_vote_included -->
<g id="edge9" class="edge">
<title>cast&#45;&gt;verify_vote_included</title>
<path fill="none" stroke="black" d="M153.9,-157.98C145.66,-146.45 134.22,-130.46 124.59,-116.99"/>
<polygon fill="black" stroke="black" points="126.93,-115.25 118.27,-109.16 121.24,-119.33 126.93,-115.25"/>
</g>
<!-- end -->
<g id="node10" class="node">
<title>end</title>
<ellipse fill="none" stroke="black" cx="165" cy="-18" rx="27" ry="18"/>
<text text-anchor="middle" x="165" y="-12.95" font-family="Times,serif" font-size="14.00">end</text>
</g>
<!-- cast&#45;&gt;end -->
<g id="edge11" class="edge">
<title>cast&#45;&gt;end</title>
<path fill="none" stroke="black" d="M184.03,-161.37C194.25,-154.41 205.29,-145.99 208,-140.5 223.04,-110.01 220.65,-95.56 208,-64 204.22,-54.57 197.42,-46 190.32,-38.93"/>
<polygon fill="black" stroke="black" points="193.37,-37.06 183.64,-32.87 188.64,-42.21 193.37,-37.06"/>
</g>
<!-- verify_vote_included&#45;&gt;end -->
<g id="edge10" class="edge">
<title>verify_vote_included&#45;&gt;end</title>
<path fill="none" stroke="black" d="M120.28,-72.05C127.88,-63.04 137.33,-51.83 145.58,-42.04"/>
<polygon fill="black" stroke="black" points="148.68,-44.79 152.45,-34.89 143.33,-40.28 148.68,-44.79"/>
</g>
</g>
</svg>
