<?xml version="1.0" encoding="UTF-8" standalone="no"?>
<!DOCTYPE svg PUBLIC "-//W3C//DTD SVG 1.1//EN"
 "http://www.w3.org/Graphics/SVG/1.1/DTD/svg11.dtd">
<!-- Generated by graphviz version 8.1.0 (20230707.0739)
 -->
<!-- Title: current_workflow Pages: 1 -->
<svg width="168pt" height="485pt"
 viewBox="0.00 0.00 168.00 485.00" xmlns="http://www.w3.org/2000/svg" xmlns:xlink="http://www.w3.org/1999/xlink">
<g id="graph0" class="graph" transform="scale(1 1) rotate(0) translate(4 481)">
<title>current_workflow</title>
<g id="clust1" class="cluster">
<title>cluster_votingbooth</title>
<polygon fill="#fbeee0" stroke="black" points="8,-188.5 8,-338 118,-338 118,-188.5 8,-188.5"/>
<text text-anchor="middle" x="63" y="-320.7" font-family="Times,serif" font-size="14.00">voting booth</text>
</g>
<g id="clust2" class="cluster">
<title>cluster_checkin</title>
<polygon fill="#fbeee0" stroke="black" points="20,-357 20,-433.5 122,-433.5 122,-357 20,-357"/>
<text text-anchor="middle" x="71" y="-416.2" font-family="Times,serif" font-size="14.00">check&#45;in station</text>
</g>
<g id="clust3" class="cluster">
<title>cluster_challenge</title>
<polygon fill="#fbeee0" stroke="black" points="10,-61 10,-137.5 117,-137.5 117,-61 10,-61"/>
<text text-anchor="middle" x="63.5" y="-120.2" font-family="Times,serif" font-size="14.00">challenge station</text>
</g>
<!-- enter -->
<g id="node1" class="node">
<title>enter</title>
<path fill="none" stroke="none" d="M71,-477C71,-477 55,-477 55,-477 52.25,-477 49.5,-474.25 49.5,-471.5 49.5,-471.5 49.5,-466 49.5,-466 49.5,-463.25 52.25,-460.5 55,-460.5 55,-460.5 71,-460.5 71,-460.5 73.75,-460.5 76.5,-463.25 76.5,-466 76.5,-466 76.5,-471.5 76.5,-471.5 76.5,-474.25 73.75,-477 71,-477"/>
<text text-anchor="middle" x="63" y="-463.7" font-family="Times,serif" font-size="14.00">enter</text>
</g>
<!-- id_check -->
<g id="node5" class="node">
<title>id_check</title>
<path fill="lightgreen" stroke="black" d="M83.38,-401C83.38,-401 42.62,-401 42.62,-401 36.62,-401 30.62,-395 30.62,-389 30.62,-389 30.62,-377 30.62,-377 30.62,-371 36.62,-365 42.62,-365 42.62,-365 83.38,-365 83.38,-365 89.38,-365 95.38,-371 95.38,-377 95.38,-377 95.38,-389 95.38,-389 95.38,-395 89.38,-401 83.38,-401"/>
<text text-anchor="middle" x="63" y="-377.95" font-family="Times,serif" font-size="14.00">id_check</text>
</g>
<!-- enter&#45;&gt;id_check -->
<g id="edge3" class="edge">
<title>enter&#45;&gt;id_check</title>
<path fill="none" stroke="grey" d="M63,-460.61C63,-449.9 63,-429.1 63,-411.87"/>
<polygon fill="grey" stroke="grey" points="66.5,-412.21 63,-402.21 59.5,-412.21 66.5,-412.21"/>
</g>
<!-- leave -->
<g id="node2" class="node">
<title>leave</title>
<path fill="none" stroke="none" d="M71.75,-16.5C71.75,-16.5 54.25,-16.5 54.25,-16.5 51.5,-16.5 48.75,-13.75 48.75,-11 48.75,-11 48.75,-5.5 48.75,-5.5 48.75,-2.75 51.5,0 54.25,0 54.25,0 71.75,0 71.75,0 74.5,0 77.25,-2.75 77.25,-5.5 77.25,-5.5 77.25,-11 77.25,-11 77.25,-13.75 74.5,-16.5 71.75,-16.5"/>
<text text-anchor="middle" x="63" y="-3.2" font-family="Times,serif" font-size="14.00">leave</text>
</g>
<!-- fill_out_ballot -->
<g id="node3" class="node">
<title>fill_out_ballot</title>
<path fill="lightgreen" stroke="black" d="M97.62,-305.5C97.62,-305.5 28.38,-305.5 28.38,-305.5 22.38,-305.5 16.38,-299.5 16.38,-293.5 16.38,-293.5 16.38,-281.5 16.38,-281.5 16.38,-275.5 22.38,-269.5 28.38,-269.5 28.38,-269.5 97.62,-269.5 97.62,-269.5 103.62,-269.5 109.62,-275.5 109.62,-281.5 109.62,-281.5 109.62,-293.5 109.62,-293.5 109.62,-299.5 103.62,-305.5 97.62,-305.5"/>
<text text-anchor="middle" x="63" y="-282.45" font-family="Times,serif" font-size="14.00">fill_out_ballot</text>
</g>
<!-- submit_ballot -->
<g id="node4" class="node">
<title>submit_ballot</title>
<path fill="lightgreen" stroke="black" d="M96.5,-232.5C96.5,-232.5 29.5,-232.5 29.5,-232.5 23.5,-232.5 17.5,-226.5 17.5,-220.5 17.5,-220.5 17.5,-208.5 17.5,-208.5 17.5,-202.5 23.5,-196.5 29.5,-196.5 29.5,-196.5 96.5,-196.5 96.5,-196.5 102.5,-196.5 108.5,-202.5 108.5,-208.5 108.5,-208.5 108.5,-220.5 108.5,-220.5 108.5,-226.5 102.5,-232.5 96.5,-232.5"/>
<text text-anchor="middle" x="63" y="-209.45" font-family="Times,serif" font-size="14.00">submit_ballot</text>
</g>
<!-- fill_out_ballot&#45;&gt;submit_ballot -->
<g id="edge1" class="edge">
<title>fill_out_ballot&#45;&gt;submit_ballot</title>
<path fill="none" stroke="grey" d="M63,-269.31C63,-261.55 63,-252.18 63,-243.45"/>
<polygon fill="grey" stroke="grey" points="66.5,-243.53 63,-233.53 59.5,-243.53 66.5,-243.53"/>
</g>
<!-- audit_or_cast -->
<g id="node6" class="node">
<title>audit_or_cast</title>
<path fill="#66ddff" stroke="black" d="M95.38,-105C95.38,-105 30.62,-105 30.62,-105 24.62,-105 18.62,-99 18.62,-93 18.62,-93 18.62,-81 18.62,-81 18.62,-75 24.62,-69 30.62,-69 30.62,-69 95.38,-69 95.38,-69 101.38,-69 107.38,-75 107.38,-81 107.38,-81 107.38,-93 107.38,-93 107.38,-99 101.38,-105 95.38,-105"/>
<text text-anchor="middle" x="63" y="-81.95" font-family="Times,serif" font-size="14.00">audit_or_cast</text>
</g>
<!-- submit_ballot&#45;&gt;audit_or_cast -->
<g id="edge4" class="edge">
<title>submit_ballot&#45;&gt;audit_or_cast</title>
<path fill="none" stroke="grey" d="M63,-196.05C63,-175.35 63,-140.57 63,-116.07"/>
<polygon fill="grey" stroke="grey" points="66.5,-116.3 63,-106.3 59.5,-116.3 66.5,-116.3"/>
<text text-anchor="middle" x="91.5" y="-165.2" font-family="Times,serif" font-size="14.00">publish</text>
<text text-anchor="middle" x="91.5" y="-148.7" font-family="Times,serif" font-size="14.00">cyphertext</text>
</g>
<!-- id_check&#45;&gt;fill_out_ballot -->
<g id="edge2" class="edge">
<title>id_check&#45;&gt;fill_out_ballot</title>
<path fill="none" stroke="grey" d="M63,-364.85C63,-351.36 63,-332.28 63,-316.57"/>
<polygon fill="grey" stroke="grey" points="66.5,-316.86 63,-306.86 59.5,-316.86 66.5,-316.86"/>
</g>
<!-- audit_or_cast&#45;&gt;leave -->
<g id="edge6" class="edge">
<title>audit_or_cast&#45;&gt;leave</title>
<path fill="none" stroke="grey" d="M63,-68.58C63,-56.24 63,-39.73 63,-27.26"/>
<polygon fill="grey" stroke="grey" points="66.5,-27.44 63,-17.44 59.5,-27.44 66.5,-27.44"/>
<text text-anchor="middle" x="73.5" y="-37.7" font-family="Times,serif" font-size="14.00">cast</text>
</g>
<!-- audit_or_cast&#45;&gt;fill_out_ballot -->
<g id="edge5" class="edge">
<title>audit_or_cast&#45;&gt;fill_out_ballot</title>
<path fill="none" stroke="grey" d="M89.86,-105.37C102.78,-115.38 116.96,-129.2 124,-145.5 139.36,-181.09 134.95,-197.64 118,-232.5 112.62,-243.56 104.02,-253.63 95.2,-262.01"/>
<polygon fill="grey" stroke="grey" points="93.27,-258.93 88.13,-268.2 97.92,-264.16 93.27,-258.93"/>
<text text-anchor="middle" x="146.5" y="-209.45" font-family="Times,serif" font-size="14.00">audit</text>
</g>
</g>
</svg>
