<?xml version="1.0" encoding="UTF-8" standalone="no"?>
<!DOCTYPE svg PUBLIC "-//W3C//DTD SVG 1.1//EN"
 "http://www.w3.org/Graphics/SVG/1.1/DTD/svg11.dtd">
<!-- Generated by graphviz version 8.1.0 (20230707.0739)
 -->
<!-- Title: current_workflow Pages: 1 -->
<svg width="156pt" height="581pt"
 viewBox="0.00 0.00 156.00 580.50" xmlns="http://www.w3.org/2000/svg" xmlns:xlink="http://www.w3.org/1999/xlink">
<g id="graph0" class="graph" transform="scale(1 1) rotate(0) translate(4 576.5)">
<title>current_workflow</title>
<g id="clust1" class="cluster">
<title>cluster_votingbooth</title>
<polygon fill="#fbeee0" stroke="black" points="8,-176 8,-414 118,-414 118,-176 8,-176"/>
<text text-anchor="middle" x="63" y="-396.7" font-family="Times,serif" font-size="14.00">voting booth</text>
</g>
<g id="clust2" class="cluster">
<title>cluster_checkin</title>
<polygon fill="#fbeee0" stroke="black" points="20,-433 20,-509.5 122,-509.5 122,-433 20,-433"/>
<text text-anchor="middle" x="71" y="-492.2" font-family="Times,serif" font-size="14.00">check&#45;in station</text>
</g>
<g id="clust3" class="cluster">
<title>cluster_challenge</title>
<polygon fill="#fbeee0" stroke="black" points="10,-80.5 10,-157 117,-157 117,-80.5 10,-80.5"/>
<text text-anchor="middle" x="63.5" y="-139.7" font-family="Times,serif" font-size="14.00">challenge station</text>
</g>
<!-- start -->
<g id="node1" class="node">
<title>start</title>
<path fill="lightgreen" stroke="black" d="M78,-572.5C78,-572.5 48,-572.5 48,-572.5 42,-572.5 36,-566.5 36,-560.5 36,-560.5 36,-548.5 36,-548.5 36,-542.5 42,-536.5 48,-536.5 48,-536.5 78,-536.5 78,-536.5 84,-536.5 90,-542.5 90,-548.5 90,-548.5 90,-560.5 90,-560.5 90,-566.5 84,-572.5 78,-572.5"/>
<text text-anchor="middle" x="63" y="-549.45" font-family="Times,serif" font-size="14.00">start</text>
</g>
<!-- id_check -->
<g id="node6" class="node">
<title>id_check</title>
<path fill="lightgreen" stroke="black" d="M83.38,-477C83.38,-477 42.62,-477 42.62,-477 36.62,-477 30.62,-471 30.62,-465 30.62,-465 30.62,-453 30.62,-453 30.62,-447 36.62,-441 42.62,-441 42.62,-441 83.38,-441 83.38,-441 89.38,-441 95.38,-447 95.38,-453 95.38,-453 95.38,-465 95.38,-465 95.38,-471 89.38,-477 83.38,-477"/>
<text text-anchor="middle" x="63" y="-453.95" font-family="Times,serif" font-size="14.00">id_check</text>
</g>
<!-- start&#45;&gt;id_check -->
<g id="edge4" class="edge">
<title>start&#45;&gt;id_check</title>
<path fill="none" stroke="grey" d="M63,-536.35C63,-522.86 63,-503.78 63,-488.07"/>
<polygon fill="grey" stroke="grey" points="66.5,-488.36 63,-478.36 59.5,-488.36 66.5,-488.36"/>
</g>
<!-- end -->
<g id="node2" class="node">
<title>end</title>
<path fill="lightgreen" stroke="black" d="M78,-36C78,-36 48,-36 48,-36 42,-36 36,-30 36,-24 36,-24 36,-12 36,-12 36,-6 42,0 48,0 48,0 78,0 78,0 84,0 90,-6 90,-12 90,-12 90,-24 90,-24 90,-30 84,-36 78,-36"/>
<text text-anchor="middle" x="63" y="-12.95" font-family="Times,serif" font-size="14.00">end</text>
</g>
<!-- fill_out_ballot -->
<g id="node3" class="node">
<title>fill_out_ballot</title>
<path fill="lightgreen" stroke="black" d="M97.62,-381.5C97.62,-381.5 28.38,-381.5 28.38,-381.5 22.38,-381.5 16.38,-375.5 16.38,-369.5 16.38,-369.5 16.38,-357.5 16.38,-357.5 16.38,-351.5 22.38,-345.5 28.38,-345.5 28.38,-345.5 97.62,-345.5 97.62,-345.5 103.62,-345.5 109.62,-351.5 109.62,-357.5 109.62,-357.5 109.62,-369.5 109.62,-369.5 109.62,-375.5 103.62,-381.5 97.62,-381.5"/>
<text text-anchor="middle" x="63" y="-358.45" font-family="Times,serif" font-size="14.00">fill_out_ballot</text>
</g>
<!-- submit_ballot -->
<g id="node4" class="node">
<title>submit_ballot</title>
<path fill="lightgreen" stroke="black" d="M96.5,-308.5C96.5,-308.5 29.5,-308.5 29.5,-308.5 23.5,-308.5 17.5,-302.5 17.5,-296.5 17.5,-296.5 17.5,-284.5 17.5,-284.5 17.5,-278.5 23.5,-272.5 29.5,-272.5 29.5,-272.5 96.5,-272.5 96.5,-272.5 102.5,-272.5 108.5,-278.5 108.5,-284.5 108.5,-284.5 108.5,-296.5 108.5,-296.5 108.5,-302.5 102.5,-308.5 96.5,-308.5"/>
<text text-anchor="middle" x="63" y="-285.45" font-family="Times,serif" font-size="14.00">submit_ballot</text>
</g>
<!-- fill_out_ballot&#45;&gt;submit_ballot -->
<g id="edge1" class="edge">
<title>fill_out_ballot&#45;&gt;submit_ballot</title>
<path fill="none" stroke="grey" d="M63,-345.31C63,-337.55 63,-328.18 63,-319.45"/>
<polygon fill="grey" stroke="grey" points="66.5,-319.53 63,-309.53 59.5,-319.53 66.5,-319.53"/>
</g>
<!-- take_code -->
<g id="node5" class="node">
<title>take_code</title>
<path fill="lightgreen" stroke="black" d="M86.38,-220C86.38,-220 39.62,-220 39.62,-220 33.62,-220 27.62,-214 27.62,-208 27.62,-208 27.62,-196 27.62,-196 27.62,-190 33.62,-184 39.62,-184 39.62,-184 86.38,-184 86.38,-184 92.38,-184 98.38,-190 98.38,-196 98.38,-196 98.38,-208 98.38,-208 98.38,-214 92.38,-220 86.38,-220"/>
<text text-anchor="middle" x="63" y="-196.95" font-family="Times,serif" font-size="14.00">take_code</text>
</g>
<!-- submit_ballot&#45;&gt;take_code -->
<g id="edge2" class="edge">
<title>submit_ballot&#45;&gt;take_code</title>
<path fill="none" stroke="grey" d="M63,-272.41C63,-260.64 63,-244.73 63,-231.11"/>
<polygon fill="grey" stroke="grey" points="66.5,-231.35 63,-221.35 59.5,-231.35 66.5,-231.35"/>
</g>
<!-- audit_or_cast -->
<g id="node7" class="node">
<title>audit_or_cast</title>
<path fill="#66ddff" stroke="black" d="M95.38,-124.5C95.38,-124.5 30.62,-124.5 30.62,-124.5 24.62,-124.5 18.62,-118.5 18.62,-112.5 18.62,-112.5 18.62,-100.5 18.62,-100.5 18.62,-94.5 24.62,-88.5 30.62,-88.5 30.62,-88.5 95.38,-88.5 95.38,-88.5 101.38,-88.5 107.38,-94.5 107.38,-100.5 107.38,-100.5 107.38,-112.5 107.38,-112.5 107.38,-118.5 101.38,-124.5 95.38,-124.5"/>
<text text-anchor="middle" x="63" y="-101.45" font-family="Times,serif" font-size="14.00">audit_or_cast</text>
</g>
<!-- take_code&#45;&gt;audit_or_cast -->
<g id="edge5" class="edge">
<title>take_code&#45;&gt;audit_or_cast</title>
<path fill="none" stroke="grey" d="M63,-183.85C63,-170.36 63,-151.28 63,-135.57"/>
<polygon fill="grey" stroke="grey" points="66.5,-135.86 63,-125.86 59.5,-135.86 66.5,-135.86"/>
</g>
<!-- id_check&#45;&gt;fill_out_ballot -->
<g id="edge3" class="edge">
<title>id_check&#45;&gt;fill_out_ballot</title>
<path fill="none" stroke="grey" d="M63,-440.85C63,-427.36 63,-408.28 63,-392.57"/>
<polygon fill="grey" stroke="grey" points="66.5,-392.86 63,-382.86 59.5,-392.86 66.5,-392.86"/>
</g>
<!-- audit_or_cast&#45;&gt;end -->
<g id="edge7" class="edge">
<title>audit_or_cast&#45;&gt;end</title>
<path fill="none" stroke="grey" d="M63,-88.41C63,-76.64 63,-60.73 63,-47.11"/>
<polygon fill="grey" stroke="grey" points="66.5,-47.35 63,-37.35 59.5,-47.35 66.5,-47.35"/>
<text text-anchor="middle" x="73.5" y="-57.2" font-family="Times,serif" font-size="14.00">cast</text>
</g>
<!-- audit_or_cast&#45;&gt;fill_out_ballot -->
<g id="edge6" class="edge">
<title>audit_or_cast&#45;&gt;fill_out_ballot</title>
<path fill="none" stroke="grey" d="M77.4,-124.91C87.46,-138.09 100.26,-157.09 107,-176 118.97,-209.6 128.54,-283.37 118,-308.5 113.32,-319.65 105.1,-329.65 96.41,-337.93"/>
<polygon fill="grey" stroke="grey" points="94.56,-334.79 89.39,-344.04 99.2,-340.03 94.56,-334.79"/>
<text text-anchor="middle" x="134.5" y="-241.2" font-family="Times,serif" font-size="14.00">audit</text>
</g>
</g>
</svg>
