<?xml version="1.0" encoding="UTF-8" standalone="no"?>
<!DOCTYPE svg PUBLIC "-//W3C//DTD SVG 1.1//EN"
 "http://www.w3.org/Graphics/SVG/1.1/DTD/svg11.dtd">
<!-- Generated by graphviz version 8.1.0 (20230707.0739)
 -->
<!-- Title: current_workflow Pages: 1 -->
<svg width="202pt" height="490pt"
 viewBox="0.00 0.00 201.75 490.00" xmlns="http://www.w3.org/2000/svg" xmlns:xlink="http://www.w3.org/1999/xlink">
<g id="graph0" class="graph" transform="scale(1 1) rotate(0) translate(4 486)">
<title>current_workflow</title>
<g id="clust1" class="cluster">
<title>cluster_votingbooth</title>
<polygon fill="#fbeee0" stroke="black" points="8,-193.5 8,-343 158,-343 158,-193.5 8,-193.5"/>
<text text-anchor="middle" x="83" y="-325.7" font-family="Times,serif" font-size="14.00">Voting Booth</text>
</g>
<g id="clust2" class="cluster">
<title>cluster_checkin</title>
<polygon fill="#fbeee0" stroke="black" points="30,-362 30,-438.5 137,-438.5 137,-362 30,-362"/>
<text text-anchor="middle" x="83.5" y="-421.2" font-family="Times,serif" font-size="14.00">Check&#45;in Station</text>
</g>
<g id="clust3" class="cluster">
<title>cluster_challenge</title>
<polygon fill="#fbeee0" stroke="black" points="15,-61 15,-142.5 151,-142.5 151,-61 15,-61"/>
<text text-anchor="middle" x="83" y="-125.2" font-family="Times,serif" font-size="14.00">Challenge Station</text>
</g>
<!-- Enter -->
<g id="node1" class="node">
<title>Enter</title>
<path fill="none" stroke="none" d="M92.12,-482C92.12,-482 73.88,-482 73.88,-482 71.12,-482 68.38,-479.25 68.38,-476.5 68.38,-476.5 68.38,-471 68.38,-471 68.38,-468.25 71.12,-465.5 73.88,-465.5 73.88,-465.5 92.12,-465.5 92.12,-465.5 94.88,-465.5 97.62,-468.25 97.62,-471 97.62,-471 97.62,-476.5 97.62,-476.5 97.62,-479.25 94.88,-482 92.12,-482"/>
<text text-anchor="middle" x="83" y="-468.7" font-family="Times,serif" font-size="14.00">Enter</text>
</g>
<!-- id_check -->
<g id="node5" class="node">
<title>id_check</title>
<path fill="lightgreen" stroke="black" d="M103.75,-406C103.75,-406 62.25,-406 62.25,-406 56.25,-406 50.25,-400 50.25,-394 50.25,-394 50.25,-382 50.25,-382 50.25,-376 56.25,-370 62.25,-370 62.25,-370 103.75,-370 103.75,-370 109.75,-370 115.75,-376 115.75,-382 115.75,-382 115.75,-394 115.75,-394 115.75,-400 109.75,-406 103.75,-406"/>
<text text-anchor="middle" x="83" y="-382.95" font-family="Times,serif" font-size="14.00">ID check</text>
</g>
<!-- Enter&#45;&gt;id_check -->
<g id="edge3" class="edge">
<title>Enter&#45;&gt;id_check</title>
<path fill="none" stroke="grey" d="M83,-465.61C83,-454.9 83,-434.1 83,-416.87"/>
<polygon fill="grey" stroke="grey" points="86.5,-417.21 83,-407.21 79.5,-417.21 86.5,-417.21"/>
</g>
<!-- Leave -->
<g id="node2" class="node">
<title>Leave</title>
<path fill="none" stroke="none" d="M94,-16.5C94,-16.5 72,-16.5 72,-16.5 69.25,-16.5 66.5,-13.75 66.5,-11 66.5,-11 66.5,-5.5 66.5,-5.5 66.5,-2.75 69.25,0 72,0 72,0 94,0 94,0 96.75,0 99.5,-2.75 99.5,-5.5 99.5,-5.5 99.5,-11 99.5,-11 99.5,-13.75 96.75,-16.5 94,-16.5"/>
<text text-anchor="middle" x="83" y="-3.2" font-family="Times,serif" font-size="14.00">Leave</text>
</g>
<!-- submit_ballot -->
<g id="node3" class="node">
<title>submit_ballot</title>
<path fill="lightgreen" stroke="black" d="M137.5,-237.5C137.5,-237.5 28.5,-237.5 28.5,-237.5 22.5,-237.5 16.5,-231.5 16.5,-225.5 16.5,-225.5 16.5,-213.5 16.5,-213.5 16.5,-207.5 22.5,-201.5 28.5,-201.5 28.5,-201.5 137.5,-201.5 137.5,-201.5 143.5,-201.5 149.5,-207.5 149.5,-213.5 149.5,-213.5 149.5,-225.5 149.5,-225.5 149.5,-231.5 143.5,-237.5 137.5,-237.5"/>
<text text-anchor="middle" x="83" y="-214.45" font-family="Times,serif" font-size="14.00">Scan &amp; submit ballot</text>
</g>
<!-- audit_or_cast -->
<g id="node6" class="node">
<title>audit_or_cast</title>
<path fill="#66ddff" stroke="black" d="M131.12,-110C131.12,-110 34.88,-110 34.88,-110 28.88,-110 22.88,-104 22.88,-98 22.88,-98 22.88,-81 22.88,-81 22.88,-75 28.88,-69 34.88,-69 34.88,-69 131.12,-69 131.12,-69 137.12,-69 143.12,-75 143.12,-81 143.12,-81 143.12,-98 143.12,-98 143.12,-104 137.12,-110 131.12,-110"/>
<text text-anchor="middle" x="83" y="-92.7" font-family="Times,serif" font-size="14.00">Benaloh challenge:</text>
<text text-anchor="middle" x="83" y="-76.2" font-family="Times,serif" font-size="14.00">audit or cast?</text>
</g>
<!-- submit_ballot&#45;&gt;audit_or_cast -->
<g id="edge4" class="edge">
<title>submit_ballot&#45;&gt;audit_or_cast</title>
<path fill="none" stroke="grey" d="M83,-201.24C83,-180.76 83,-146.25 83,-121.19"/>
<polygon fill="grey" stroke="grey" points="86.5,-121.43 83,-111.43 79.5,-121.43 86.5,-121.43"/>
<text text-anchor="middle" x="111.5" y="-170.2" font-family="Times,serif" font-size="14.00">Publish</text>
<text text-anchor="middle" x="111.5" y="-153.7" font-family="Times,serif" font-size="14.00">cyphertext</text>
</g>
<!-- fill_out_ballot -->
<g id="node4" class="node">
<title>fill_out_ballot</title>
<path fill="lightgreen" stroke="black" d="M133,-310.5C133,-310.5 33,-310.5 33,-310.5 27,-310.5 21,-304.5 21,-298.5 21,-298.5 21,-286.5 21,-286.5 21,-280.5 27,-274.5 33,-274.5 33,-274.5 133,-274.5 133,-274.5 139,-274.5 145,-280.5 145,-286.5 145,-286.5 145,-298.5 145,-298.5 145,-304.5 139,-310.5 133,-310.5"/>
<text text-anchor="middle" x="83" y="-287.45" font-family="Times,serif" font-size="14.00">Fill out paper ballot</text>
</g>
<!-- fill_out_ballot&#45;&gt;submit_ballot -->
<g id="edge1" class="edge">
<title>fill_out_ballot&#45;&gt;submit_ballot</title>
<path fill="none" stroke="grey" d="M83,-274.31C83,-266.55 83,-257.18 83,-248.45"/>
<polygon fill="grey" stroke="grey" points="86.5,-248.53 83,-238.53 79.5,-248.53 86.5,-248.53"/>
</g>
<!-- id_check&#45;&gt;fill_out_ballot -->
<g id="edge2" class="edge">
<title>id_check&#45;&gt;fill_out_ballot</title>
<path fill="none" stroke="grey" d="M83,-369.85C83,-356.36 83,-337.28 83,-321.57"/>
<polygon fill="grey" stroke="grey" points="86.5,-321.86 83,-311.86 79.5,-321.86 86.5,-321.86"/>
</g>
<!-- audit_or_cast&#45;&gt;Leave -->
<g id="edge6" class="edge">
<title>audit_or_cast&#45;&gt;Leave</title>
<path fill="none" stroke="grey" d="M83,-68.5C83,-55.71 83,-39.26 83,-26.95"/>
<polygon fill="grey" stroke="grey" points="86.5,-27.29 83,-17.29 79.5,-27.29 86.5,-27.29"/>
<text text-anchor="middle" x="95" y="-37.7" font-family="Times,serif" font-size="14.00">Cast</text>
</g>
<!-- audit_or_cast&#45;&gt;fill_out_ballot -->
<g id="edge5" class="edge">
<title>audit_or_cast&#45;&gt;fill_out_ballot</title>
<path fill="none" stroke="grey" d="M107.98,-110.29C120.23,-121.08 134.38,-135.32 144,-150.5 154.83,-167.6 155.62,-173.54 159,-193.5 162.27,-212.78 167.97,-220.12 159,-237.5 152.61,-249.87 141.94,-260.02 130.58,-268.05"/>
<polygon fill="grey" stroke="grey" points="128.86,-265.65 122.39,-274.04 132.68,-271.51 128.86,-265.65"/>
<text text-anchor="middle" x="178.38" y="-214.45" font-family="Times,serif" font-size="14.00">Audit</text>
</g>
</g>
</svg>
