<?xml version="1.0" encoding="UTF-8" standalone="no"?>
<!DOCTYPE svg PUBLIC "-//W3C//DTD SVG 1.1//EN"
 "http://www.w3.org/Graphics/SVG/1.1/DTD/svg11.dtd">
<!-- Generated by graphviz version 8.1.0 (20230707.0739)
 -->
<!-- Title: proposed_workflow Pages: 1 -->
<svg width="441pt" height="991pt"
 viewBox="0.00 0.00 440.67 990.50" xmlns="http://www.w3.org/2000/svg" xmlns:xlink="http://www.w3.org/1999/xlink">
<g id="graph0" class="graph" transform="scale(1 1) rotate(0) translate(4 986.5)">
<title>proposed_workflow</title>
<polygon fill="white" stroke="none" points="-4,4 -4,-986.5 436.67,-986.5 436.67,4 -4,4"/>
<g id="clust1" class="cluster">
<title>cluster_phone</title>
<polygon fill="none" stroke="black" points="231,-381.5 231,-818 411,-818 411,-381.5 231,-381.5"/>
<text text-anchor="middle" x="321" y="-800.7" font-family="Times,serif" font-size="14.00">phone app</text>
</g>
<g id="clust4" class="cluster">
<title>cluster_checkout</title>
<polygon fill="none" stroke="black" points="89,-220.5 89,-297 199,-297 199,-220.5 89,-220.5"/>
<text text-anchor="middle" x="144" y="-279.7" font-family="Times,serif" font-size="14.00">check&#45;out station</text>
</g>
<g id="clust5" class="cluster">
<title>cluster_checkin</title>
<polygon fill="none" stroke="black" points="217,-220.5 217,-373.5 353,-373.5 353,-220.5 217,-220.5"/>
<text text-anchor="middle" x="285" y="-356.2" font-family="Times,serif" font-size="14.00">check&#45;in station</text>
</g>
<g id="clust6" class="cluster">
<title>cluster_votingbooth</title>
<polygon fill="none" stroke="black" points="229,-826 229,-974.5 411,-974.5 411,-826 229,-826"/>
<text text-anchor="middle" x="320" y="-957.2" font-family="Times,serif" font-size="14.00">voting booth (no phone)</text>
</g>
<g id="clust7" class="cluster">
<title>cluster_verify</title>
<polygon fill="none" stroke="black" points="8,-64 8,-212.5 174,-212.5 174,-64 8,-64"/>
<text text-anchor="middle" x="91" y="-195.2" font-family="Times,serif" font-size="14.00">verifier app</text>
</g>
<!-- start -->
<g id="node1" class="node">
<title>start</title>
<ellipse fill="none" stroke="black" cx="194" cy="-407.5" rx="27" ry="18"/>
<text text-anchor="middle" x="194" y="-402.45" font-family="Times,serif" font-size="14.00">start</text>
</g>
<!-- id_check -->
<g id="node2" class="node">
<title>id_check</title>
<ellipse fill="none" stroke="black" cx="274" cy="-323" rx="44.19" ry="18"/>
<text text-anchor="middle" x="274" y="-317.95" font-family="Times,serif" font-size="14.00">id_check</text>
</g>
<!-- start&#45;&gt;id_check -->
<g id="edge1" class="edge">
<title>start&#45;&gt;id_check</title>
<path fill="none" stroke="black" d="M208.3,-391.75C220.1,-379.59 237.07,-362.09 250.8,-347.92"/>
<polygon fill="black" stroke="black" points="253.01,-350.65 257.46,-341.03 247.98,-345.77 253.01,-350.65"/>
</g>
<!-- mint_nfts -->
<g id="node11" class="node">
<title>mint_nfts</title>
<ellipse fill="none" stroke="black" cx="144" cy="-246.5" rx="46.75" ry="18"/>
<text text-anchor="middle" x="144" y="-241.45" font-family="Times,serif" font-size="14.00">mint_nfts</text>
</g>
<!-- id_check&#45;&gt;mint_nfts -->
<g id="edge17" class="edge">
<title>id_check&#45;&gt;mint_nfts</title>
<path fill="none" stroke="black" stroke-dasharray="5,2" d="M241.68,-310.39C232.23,-306.56 222.01,-301.99 213,-297 198.78,-289.13 184.01,-278.86 171.8,-269.71"/>
<polygon fill="black" stroke="black" points="174.48,-266.59 164.41,-263.3 170.24,-272.15 174.48,-266.59"/>
</g>
<!-- mint_vip_nft -->
<g id="node12" class="node">
<title>mint_vip_nft</title>
<ellipse fill="none" stroke="black" cx="285" cy="-246.5" rx="59.54" ry="18"/>
<text text-anchor="middle" x="285" y="-241.45" font-family="Times,serif" font-size="14.00">mint_vip_nft</text>
</g>
<!-- id_check&#45;&gt;mint_vip_nft -->
<g id="edge9" class="edge">
<title>id_check&#45;&gt;mint_vip_nft</title>
<path fill="none" stroke="black" d="M276.55,-304.72C277.82,-296.13 279.38,-285.53 280.82,-275.8"/>
<polygon fill="black" stroke="black" points="284.43,-276.35 282.42,-265.94 277.5,-275.32 284.43,-276.35"/>
</g>
<!-- take_qrcode -->
<g id="node3" class="node">
<title>take_qrcode</title>
<ellipse fill="none" stroke="black" cx="320" cy="-767.5" rx="55.96" ry="18"/>
<text text-anchor="middle" x="320" y="-762.45" font-family="Times,serif" font-size="14.00">take_qrcode</text>
</g>
<!-- confirm_hash -->
<g id="node4" class="node">
<title>confirm_hash</title>
<ellipse fill="none" stroke="black" cx="320" cy="-695.5" rx="62.1" ry="18"/>
<text text-anchor="middle" x="320" y="-690.45" font-family="Times,serif" font-size="14.00">confirm_hash</text>
</g>
<!-- take_qrcode&#45;&gt;confirm_hash -->
<g id="edge2" class="edge">
<title>take_qrcode&#45;&gt;confirm_hash</title>
<path fill="none" stroke="black" d="M320,-749.2C320,-741.74 320,-732.82 320,-724.47"/>
<polygon fill="black" stroke="black" points="323.5,-724.6 320,-714.6 316.5,-724.6 323.5,-724.6"/>
</g>
<!-- audit_or_cast -->
<g id="node5" class="node">
<title>audit_or_cast</title>
<ellipse fill="none" stroke="black" cx="320" cy="-623.5" rx="60.56" ry="18"/>
<text text-anchor="middle" x="320" y="-618.45" font-family="Times,serif" font-size="14.00">audit_or_cast</text>
</g>
<!-- confirm_hash&#45;&gt;audit_or_cast -->
<g id="edge5" class="edge">
<title>confirm_hash&#45;&gt;audit_or_cast</title>
<path fill="none" stroke="black" d="M320,-677.2C320,-669.74 320,-660.82 320,-652.47"/>
<polygon fill="black" stroke="black" points="323.5,-652.6 320,-642.6 316.5,-652.6 323.5,-652.6"/>
</g>
<!-- cast -->
<g id="node6" class="node">
<title>cast</title>
<ellipse fill="none" stroke="black" cx="266" cy="-551.5" rx="27" ry="18"/>
<text text-anchor="middle" x="266" y="-546.45" font-family="Times,serif" font-size="14.00">cast</text>
</g>
<!-- audit_or_cast&#45;&gt;cast -->
<g id="edge3" class="edge">
<title>audit_or_cast&#45;&gt;cast</title>
<path fill="none" stroke="black" d="M306.93,-605.55C300.21,-596.85 291.91,-586.09 284.54,-576.53"/>
<polygon fill="black" stroke="black" points="286.73,-574.64 277.85,-568.86 281.18,-578.91 286.73,-574.64"/>
</g>
<!-- audit -->
<g id="node7" class="node">
<title>audit</title>
<ellipse fill="none" stroke="black" cx="340" cy="-551.5" rx="29.34" ry="18"/>
<text text-anchor="middle" x="340" y="-546.45" font-family="Times,serif" font-size="14.00">audit</text>
</g>
<!-- audit_or_cast&#45;&gt;audit -->
<g id="edge4" class="edge">
<title>audit_or_cast&#45;&gt;audit</title>
<path fill="none" stroke="black" d="M324.94,-605.2C327.1,-597.65 329.68,-588.62 332.09,-580.18"/>
<polygon fill="black" stroke="black" points="335.73,-581.18 335.11,-570.6 329,-579.26 335.73,-581.18"/>
</g>
<!-- cast&#45;&gt;mint_nfts -->
<g id="edge14" class="edge">
<title>cast&#45;&gt;mint_nfts</title>
<path fill="none" stroke="black" d="M249.19,-537.28C224.21,-516.53 178.11,-473.67 158,-425.5 137.25,-375.81 138.22,-311.6 140.98,-275.46"/>
<polygon fill="black" stroke="black" points="144.53,-276.03 141.91,-265.76 137.56,-275.42 144.53,-276.03"/>
</g>
<!-- decrypt_ballot -->
<g id="node8" class="node">
<title>decrypt_ballot</title>
<ellipse fill="none" stroke="black" cx="339" cy="-479.5" rx="64.15" ry="18"/>
<text text-anchor="middle" x="339" y="-474.45" font-family="Times,serif" font-size="14.00">decrypt_ballot</text>
</g>
<!-- audit&#45;&gt;decrypt_ballot -->
<g id="edge6" class="edge">
<title>audit&#45;&gt;decrypt_ballot</title>
<path fill="none" stroke="black" d="M339.75,-533.2C339.65,-525.74 339.52,-516.82 339.4,-508.47"/>
<polygon fill="black" stroke="black" points="342.89,-508.55 339.24,-498.6 335.89,-508.65 342.89,-508.55"/>
</g>
<!-- certify -->
<g id="node9" class="node">
<title>certify</title>
<ellipse fill="none" stroke="black" cx="274" cy="-407.5" rx="34.97" ry="18"/>
<text text-anchor="middle" x="274" y="-402.45" font-family="Times,serif" font-size="14.00">certify</text>
</g>
<!-- decrypt_ballot&#45;&gt;certify -->
<g id="edge7" class="edge">
<title>decrypt_ballot&#45;&gt;certify</title>
<path fill="none" stroke="black" d="M323.6,-461.91C315.27,-452.94 304.84,-441.71 295.7,-431.87"/>
<polygon fill="black" stroke="black" points="298.77,-429.96 289.4,-425.01 293.64,-434.72 298.77,-429.96"/>
</g>
<!-- dispute -->
<g id="node10" class="node">
<title>dispute</title>
<ellipse fill="none" stroke="black" cx="365" cy="-407.5" rx="37.53" ry="18"/>
<text text-anchor="middle" x="365" y="-402.45" font-family="Times,serif" font-size="14.00">dispute</text>
</g>
<!-- decrypt_ballot&#45;&gt;dispute -->
<g id="edge8" class="edge">
<title>decrypt_ballot&#45;&gt;dispute</title>
<path fill="none" stroke="black" d="M345.43,-461.2C348.26,-453.57 351.66,-444.42 354.82,-435.9"/>
<polygon fill="black" stroke="black" points="358.45,-437.2 358.65,-426.6 351.88,-434.76 358.45,-437.2"/>
</g>
<!-- certify&#45;&gt;id_check -->
<g id="edge15" class="edge">
<title>certify&#45;&gt;id_check</title>
<path fill="none" stroke="black" d="M274,-389C274,-378.39 274,-364.6 274,-352.46"/>
<polygon fill="black" stroke="black" points="277.5,-352.47 274,-342.47 270.5,-352.47 277.5,-352.47"/>
</g>
<!-- dispute&#45;&gt;id_check -->
<g id="edge16" class="edge">
<title>dispute&#45;&gt;id_check</title>
<path fill="none" stroke="black" d="M347.88,-390.98C334.24,-378.62 314.94,-361.11 299.48,-347.1"/>
<polygon fill="black" stroke="black" points="302.11,-344.85 292.35,-340.73 297.41,-350.04 302.11,-344.85"/>
</g>
<!-- verify_election -->
<g id="node15" class="node">
<title>verify_election</title>
<ellipse fill="none" stroke="black" cx="95" cy="-162" rx="66.71" ry="18"/>
<text text-anchor="middle" x="95" y="-156.95" font-family="Times,serif" font-size="14.00">verify_election</text>
</g>
<!-- mint_nfts&#45;&gt;verify_election -->
<g id="edge18" class="edge">
<title>mint_nfts&#45;&gt;verify_election</title>
<path fill="none" stroke="black" d="M134.08,-228.8C127.4,-217.55 118.44,-202.46 110.78,-189.57"/>
<polygon fill="black" stroke="black" points="113.35,-188.05 105.24,-181.24 107.34,-191.62 113.35,-188.05"/>
</g>
<!-- end -->
<g id="node17" class="node">
<title>end</title>
<ellipse fill="none" stroke="black" cx="142" cy="-18" rx="27" ry="18"/>
<text text-anchor="middle" x="142" y="-12.95" font-family="Times,serif" font-size="14.00">end</text>
</g>
<!-- mint_nfts&#45;&gt;end -->
<g id="edge19" class="edge">
<title>mint_nfts&#45;&gt;end</title>
<path fill="none" stroke="black" d="M165.07,-230.13C170.28,-225.15 175.18,-219.17 178,-212.5 203.71,-151.71 199.85,-126.28 178,-64 175.11,-55.77 170.02,-47.92 164.55,-41.16"/>
<polygon fill="black" stroke="black" points="166.8,-39.42 157.57,-34.22 161.54,-44.04 166.8,-39.42"/>
</g>
<!-- fill_out_ballot -->
<g id="node13" class="node">
<title>fill_out_ballot</title>
<ellipse fill="none" stroke="black" cx="329" cy="-924" rx="63.63" ry="18"/>
<text text-anchor="middle" x="329" y="-918.95" font-family="Times,serif" font-size="14.00">fill_out_ballot</text>
</g>
<!-- mint_vip_nft&#45;&gt;fill_out_ballot -->
<g id="edge13" class="edge">
<title>mint_vip_nft&#45;&gt;fill_out_ballot</title>
<path fill="none" stroke="black" d="M314.55,-262.58C357.21,-286.7 431,-338.29 431,-406.5 431,-768.5 431,-768.5 431,-768.5 431,-814.39 437.68,-831.96 412,-870 402.51,-884.07 387.9,-895.19 373.57,-903.54"/>
<polygon fill="black" stroke="black" points="372.34,-900.77 365.24,-908.63 375.7,-906.91 372.34,-900.77"/>
</g>
<!-- scan_submit_ballot -->
<g id="node14" class="node">
<title>scan_submit_ballot</title>
<ellipse fill="none" stroke="black" cx="320" cy="-852" rx="83.08" ry="18"/>
<text text-anchor="middle" x="320" y="-846.95" font-family="Times,serif" font-size="14.00">scan_submit_ballot</text>
</g>
<!-- fill_out_ballot&#45;&gt;scan_submit_ballot -->
<g id="edge10" class="edge">
<title>fill_out_ballot&#45;&gt;scan_submit_ballot</title>
<path fill="none" stroke="black" d="M326.78,-905.7C325.82,-898.24 324.67,-889.32 323.6,-880.97"/>
<polygon fill="black" stroke="black" points="326.95,-880.58 322.2,-871.1 320,-881.47 326.95,-880.58"/>
</g>
<!-- scan_submit_ballot&#45;&gt;take_qrcode -->
<g id="edge11" class="edge">
<title>scan_submit_ballot&#45;&gt;take_qrcode</title>
<path fill="none" stroke="black" d="M320,-833.5C320,-822.89 320,-809.1 320,-796.96"/>
<polygon fill="black" stroke="black" points="323.5,-796.97 320,-786.97 316.5,-796.97 323.5,-796.97"/>
</g>
<!-- mint_verifier_nft -->
<g id="node16" class="node">
<title>mint_verifier_nft</title>
<ellipse fill="none" stroke="black" cx="91" cy="-90" rx="74.89" ry="18"/>
<text text-anchor="middle" x="91" y="-84.95" font-family="Times,serif" font-size="14.00">mint_verifier_nft</text>
</g>
<!-- verify_election&#45;&gt;mint_verifier_nft -->
<g id="edge12" class="edge">
<title>verify_election&#45;&gt;mint_verifier_nft</title>
<path fill="none" stroke="black" d="M94.01,-143.7C93.58,-136.24 93.08,-127.32 92.6,-118.97"/>
<polygon fill="black" stroke="black" points="96.04,-118.89 91.98,-109.1 89.05,-119.29 96.04,-118.89"/>
</g>
<!-- mint_verifier_nft&#45;&gt;end -->
<g id="edge20" class="edge">
<title>mint_verifier_nft&#45;&gt;end</title>
<path fill="none" stroke="black" d="M103.35,-72.05C109.69,-63.35 117.53,-52.59 124.49,-43.03"/>
<polygon fill="black" stroke="black" points="127.75,-45.5 130.81,-35.36 122.09,-41.38 127.75,-45.5"/>
</g>
</g>
</svg>
