<?xml version="1.0" encoding="UTF-8" standalone="no"?>
<!DOCTYPE svg PUBLIC "-//W3C//DTD SVG 1.1//EN"
 "http://www.w3.org/Graphics/SVG/1.1/DTD/svg11.dtd">
<!-- Generated by graphviz version 8.1.0 (20230707.0739)
 -->
<!-- Title: proposed_workflow Pages: 1 -->
<svg width="420pt" height="991pt"
 viewBox="0.00 0.00 420.01 990.50" xmlns="http://www.w3.org/2000/svg" xmlns:xlink="http://www.w3.org/1999/xlink">
<g id="graph0" class="graph" transform="scale(1 1) rotate(0) translate(4 986.5)">
<title>proposed_workflow</title>
<polygon fill="white" stroke="none" points="-4,4 -4,-986.5 416.01,-986.5 416.01,4 -4,4"/>
<g id="clust1" class="cluster">
<title>cluster_votingbooth</title>
<polygon fill="none" stroke="black" points="209,-754 209,-974.5 391,-974.5 391,-754 209,-754"/>
<text text-anchor="middle" x="300" y="-957.2" font-family="Times,serif" font-size="14.00">voting booth</text>
</g>
<g id="clust2" class="cluster">
<title>cluster_phone</title>
<polygon fill="none" stroke="black" points="211,-381.5 211,-746 391,-746 391,-381.5 211,-381.5"/>
<text text-anchor="middle" x="301" y="-728.7" font-family="Times,serif" font-size="14.00">voting app</text>
</g>
<g id="clust5" class="cluster">
<title>cluster_checkout</title>
<polygon fill="none" stroke="black" points="28,-220.5 28,-297 210,-297 210,-220.5 28,-220.5"/>
<text text-anchor="middle" x="119" y="-279.7" font-family="Times,serif" font-size="14.00">check&#45;out station</text>
</g>
<g id="clust6" class="cluster">
<title>cluster_checkin</title>
<polygon fill="none" stroke="black" points="218,-220.5 218,-373.5 354,-373.5 354,-220.5 218,-220.5"/>
<text text-anchor="middle" x="286" y="-356.2" font-family="Times,serif" font-size="14.00">check&#45;in station</text>
</g>
<g id="clust7" class="cluster">
<title>cluster_verify</title>
<polygon fill="none" stroke="black" points="8,-64 8,-212.5 174,-212.5 174,-64 8,-64"/>
<text text-anchor="middle" x="91" y="-195.2" font-family="Times,serif" font-size="14.00">verifier app</text>
</g>
<!-- start -->
<g id="node1" class="node">
<title>start</title>
<ellipse fill="none" stroke="black" cx="174" cy="-407.5" rx="27" ry="18"/>
<text text-anchor="middle" x="174" y="-402.45" font-family="Times,serif" font-size="14.00">start</text>
</g>
<!-- id_check -->
<g id="node2" class="node">
<title>id_check</title>
<ellipse fill="none" stroke="black" cx="270" cy="-323" rx="44.19" ry="18"/>
<text text-anchor="middle" x="270" y="-317.95" font-family="Times,serif" font-size="14.00">id_check</text>
</g>
<!-- start&#45;&gt;id_check -->
<g id="edge1" class="edge">
<title>start&#45;&gt;id_check</title>
<path fill="none" stroke="black" d="M189.85,-392.88C204.5,-380.29 226.53,-361.36 243.79,-346.52"/>
<polygon fill="black" stroke="black" points="245.53,-348.79 250.83,-339.61 240.96,-343.48 245.53,-348.79"/>
</g>
<!-- mint_personal_nfts -->
<g id="node13" class="node">
<title>mint_personal_nfts</title>
<ellipse fill="none" stroke="black" cx="119" cy="-246.5" rx="82.57" ry="18"/>
<text text-anchor="middle" x="119" y="-241.45" font-family="Times,serif" font-size="14.00">mint_personal_nfts</text>
</g>
<!-- id_check&#45;&gt;mint_personal_nfts -->
<g id="edge17" class="edge">
<title>id_check&#45;&gt;mint_personal_nfts</title>
<path fill="none" stroke="black" stroke-dasharray="5,2" d="M240.49,-309.23C231.9,-305.4 222.53,-301.12 214,-297 195.52,-288.07 175.32,-277.64 158.32,-268.67"/>
<polygon fill="black" stroke="black" points="160.19,-265.17 149.72,-263.57 156.91,-271.35 160.19,-265.17"/>
</g>
<!-- mint_vip_nft -->
<g id="node14" class="node">
<title>mint_vip_nft</title>
<ellipse fill="none" stroke="black" cx="286" cy="-246.5" rx="59.54" ry="18"/>
<text text-anchor="middle" x="286" y="-241.45" font-family="Times,serif" font-size="14.00">mint_vip_nft</text>
</g>
<!-- id_check&#45;&gt;mint_vip_nft -->
<g id="edge11" class="edge">
<title>id_check&#45;&gt;mint_vip_nft</title>
<path fill="none" stroke="black" d="M273.71,-304.72C275.58,-296.04 277.88,-285.3 279.99,-275.48"/>
<polygon fill="black" stroke="black" points="283.58,-276.46 282.25,-265.94 276.73,-274.99 283.58,-276.46"/>
</g>
<!-- fill_out_ballot -->
<g id="node3" class="node">
<title>fill_out_ballot</title>
<ellipse fill="none" stroke="black" cx="309" cy="-924" rx="63.63" ry="18"/>
<text text-anchor="middle" x="309" y="-918.95" font-family="Times,serif" font-size="14.00">fill_out_ballot</text>
</g>
<!-- scan_submit_ballot -->
<g id="node4" class="node">
<title>scan_submit_ballot</title>
<ellipse fill="none" stroke="black" cx="300" cy="-852" rx="83.08" ry="18"/>
<text text-anchor="middle" x="300" y="-846.95" font-family="Times,serif" font-size="14.00">scan_submit_ballot</text>
</g>
<!-- fill_out_ballot&#45;&gt;scan_submit_ballot -->
<g id="edge2" class="edge">
<title>fill_out_ballot&#45;&gt;scan_submit_ballot</title>
<path fill="none" stroke="black" d="M306.78,-905.7C305.82,-898.24 304.67,-889.32 303.6,-880.97"/>
<polygon fill="black" stroke="black" points="306.95,-880.58 302.2,-871.1 300,-881.47 306.95,-880.58"/>
</g>
<!-- take_qrcode -->
<g id="node5" class="node">
<title>take_qrcode</title>
<ellipse fill="none" stroke="black" cx="300" cy="-780" rx="55.96" ry="18"/>
<text text-anchor="middle" x="300" y="-774.95" font-family="Times,serif" font-size="14.00">take_qrcode</text>
</g>
<!-- scan_submit_ballot&#45;&gt;take_qrcode -->
<g id="edge3" class="edge">
<title>scan_submit_ballot&#45;&gt;take_qrcode</title>
<path fill="none" stroke="black" d="M300,-833.7C300,-826.24 300,-817.32 300,-808.97"/>
<polygon fill="black" stroke="black" points="303.5,-809.1 300,-799.1 296.5,-809.1 303.5,-809.1"/>
</g>
<!-- confirm_hash -->
<g id="node6" class="node">
<title>confirm_hash</title>
<ellipse fill="none" stroke="black" cx="300" cy="-695.5" rx="62.1" ry="18"/>
<text text-anchor="middle" x="300" y="-690.45" font-family="Times,serif" font-size="14.00">confirm_hash</text>
</g>
<!-- take_qrcode&#45;&gt;confirm_hash -->
<g id="edge4" class="edge">
<title>take_qrcode&#45;&gt;confirm_hash</title>
<path fill="none" stroke="black" d="M300,-761.5C300,-750.89 300,-737.1 300,-724.96"/>
<polygon fill="black" stroke="black" points="303.5,-724.97 300,-714.97 296.5,-724.97 303.5,-724.97"/>
</g>
<!-- audit_or_cast -->
<g id="node7" class="node">
<title>audit_or_cast</title>
<ellipse fill="none" stroke="black" cx="300" cy="-623.5" rx="60.56" ry="18"/>
<text text-anchor="middle" x="300" y="-618.45" font-family="Times,serif" font-size="14.00">audit_or_cast</text>
</g>
<!-- confirm_hash&#45;&gt;audit_or_cast -->
<g id="edge7" class="edge">
<title>confirm_hash&#45;&gt;audit_or_cast</title>
<path fill="none" stroke="black" d="M300,-677.2C300,-669.74 300,-660.82 300,-652.47"/>
<polygon fill="black" stroke="black" points="303.5,-652.6 300,-642.6 296.5,-652.6 303.5,-652.6"/>
</g>
<!-- cast -->
<g id="node8" class="node">
<title>cast</title>
<ellipse fill="none" stroke="black" cx="246" cy="-551.5" rx="27" ry="18"/>
<text text-anchor="middle" x="246" y="-546.45" font-family="Times,serif" font-size="14.00">cast</text>
</g>
<!-- audit_or_cast&#45;&gt;cast -->
<g id="edge5" class="edge">
<title>audit_or_cast&#45;&gt;cast</title>
<path fill="none" stroke="black" d="M286.93,-605.55C280.21,-596.85 271.91,-586.09 264.54,-576.53"/>
<polygon fill="black" stroke="black" points="266.73,-574.64 257.85,-568.86 261.18,-578.91 266.73,-574.64"/>
</g>
<!-- audit -->
<g id="node9" class="node">
<title>audit</title>
<ellipse fill="none" stroke="black" cx="320" cy="-551.5" rx="29.34" ry="18"/>
<text text-anchor="middle" x="320" y="-546.45" font-family="Times,serif" font-size="14.00">audit</text>
</g>
<!-- audit_or_cast&#45;&gt;audit -->
<g id="edge6" class="edge">
<title>audit_or_cast&#45;&gt;audit</title>
<path fill="none" stroke="black" d="M304.94,-605.2C307.1,-597.65 309.68,-588.62 312.09,-580.18"/>
<polygon fill="black" stroke="black" points="315.73,-581.18 315.11,-570.6 309,-579.26 315.73,-581.18"/>
</g>
<!-- cast&#45;&gt;mint_personal_nfts -->
<g id="edge14" class="edge">
<title>cast&#45;&gt;mint_personal_nfts</title>
<path fill="none" stroke="black" d="M229.35,-537.21C204.6,-516.36 158.78,-473.38 138,-425.5 116.51,-375.98 115.43,-311.71 116.97,-275.51"/>
<polygon fill="black" stroke="black" points="120.5,-275.96 117.53,-265.79 113.51,-275.59 120.5,-275.96"/>
</g>
<!-- decrypt_ballot -->
<g id="node10" class="node">
<title>decrypt_ballot</title>
<ellipse fill="none" stroke="black" cx="319" cy="-479.5" rx="64.15" ry="18"/>
<text text-anchor="middle" x="319" y="-474.45" font-family="Times,serif" font-size="14.00">decrypt_ballot</text>
</g>
<!-- audit&#45;&gt;decrypt_ballot -->
<g id="edge8" class="edge">
<title>audit&#45;&gt;decrypt_ballot</title>
<path fill="none" stroke="black" d="M319.75,-533.2C319.65,-525.74 319.52,-516.82 319.4,-508.47"/>
<polygon fill="black" stroke="black" points="322.89,-508.55 319.24,-498.6 315.89,-508.65 322.89,-508.55"/>
</g>
<!-- certify -->
<g id="node11" class="node">
<title>certify</title>
<ellipse fill="none" stroke="black" cx="254" cy="-407.5" rx="34.97" ry="18"/>
<text text-anchor="middle" x="254" y="-402.45" font-family="Times,serif" font-size="14.00">certify</text>
</g>
<!-- decrypt_ballot&#45;&gt;certify -->
<g id="edge9" class="edge">
<title>decrypt_ballot&#45;&gt;certify</title>
<path fill="none" stroke="black" d="M303.6,-461.91C295.27,-452.94 284.84,-441.71 275.7,-431.87"/>
<polygon fill="black" stroke="black" points="278.77,-429.96 269.4,-425.01 273.64,-434.72 278.77,-429.96"/>
</g>
<!-- dispute -->
<g id="node12" class="node">
<title>dispute</title>
<ellipse fill="none" stroke="black" cx="345" cy="-407.5" rx="37.53" ry="18"/>
<text text-anchor="middle" x="345" y="-402.45" font-family="Times,serif" font-size="14.00">dispute</text>
</g>
<!-- decrypt_ballot&#45;&gt;dispute -->
<g id="edge10" class="edge">
<title>decrypt_ballot&#45;&gt;dispute</title>
<path fill="none" stroke="black" d="M325.43,-461.2C328.26,-453.57 331.66,-444.42 334.82,-435.9"/>
<polygon fill="black" stroke="black" points="338.45,-437.2 338.65,-426.6 331.88,-434.76 338.45,-437.2"/>
</g>
<!-- certify&#45;&gt;id_check -->
<g id="edge15" class="edge">
<title>certify&#45;&gt;id_check</title>
<path fill="none" stroke="black" d="M257.32,-389.41C259.4,-378.64 262.15,-364.48 264.55,-352.09"/>
<polygon fill="black" stroke="black" points="268.17,-352.84 266.63,-342.36 261.29,-351.51 268.17,-352.84"/>
</g>
<!-- dispute&#45;&gt;id_check -->
<g id="edge16" class="edge">
<title>dispute&#45;&gt;id_check</title>
<path fill="none" stroke="black" d="M330.54,-390.59C319.68,-378.65 304.62,-362.08 292.23,-348.46"/>
<polygon fill="black" stroke="black" points="295.25,-346.47 285.93,-341.42 290.07,-351.18 295.25,-346.47"/>
</g>
<!-- verify_election -->
<g id="node15" class="node">
<title>verify_election</title>
<ellipse fill="none" stroke="black" cx="95" cy="-162" rx="66.71" ry="18"/>
<text text-anchor="middle" x="95" y="-156.95" font-family="Times,serif" font-size="14.00">verify_election</text>
</g>
<!-- mint_personal_nfts&#45;&gt;verify_election -->
<g id="edge18" class="edge">
<title>mint_personal_nfts&#45;&gt;verify_election</title>
<path fill="none" stroke="black" d="M114.03,-228.41C110.86,-217.53 106.69,-203.19 103.06,-190.71"/>
<polygon fill="black" stroke="black" points="106.2,-189.98 100.05,-181.36 99.48,-191.94 106.2,-189.98"/>
</g>
<!-- end -->
<g id="node17" class="node">
<title>end</title>
<ellipse fill="none" stroke="black" cx="142" cy="-18" rx="27" ry="18"/>
<text text-anchor="middle" x="142" y="-12.95" font-family="Times,serif" font-size="14.00">end</text>
</g>
<!-- mint_personal_nfts&#45;&gt;end -->
<g id="edge19" class="edge">
<title>mint_personal_nfts&#45;&gt;end</title>
<path fill="none" stroke="black" d="M159.4,-230.54C166.82,-225.91 173.61,-219.99 178,-212.5 211.39,-155.57 199.85,-126.28 178,-64 175.11,-55.77 170.02,-47.92 164.55,-41.16"/>
<polygon fill="black" stroke="black" points="166.8,-39.42 157.57,-34.22 161.54,-44.04 166.8,-39.42"/>
</g>
<!-- mint_vip_nft&#45;&gt;fill_out_ballot -->
<g id="edge13" class="edge">
<title>mint_vip_nft&#45;&gt;fill_out_ballot</title>
<path fill="none" stroke="black" d="M310.7,-263.24C347.12,-288.6 411,-342.24 411,-406.5 411,-781 411,-781 411,-781 411,-821.45 415.05,-836.76 392,-870 382.33,-883.94 367.68,-895.04 353.37,-903.41"/>
<polygon fill="black" stroke="black" points="352.15,-900.63 345.06,-908.51 355.52,-906.77 352.15,-900.63"/>
</g>
<!-- mint_verifier_nft -->
<g id="node16" class="node">
<title>mint_verifier_nft</title>
<ellipse fill="none" stroke="black" cx="91" cy="-90" rx="74.89" ry="18"/>
<text text-anchor="middle" x="91" y="-84.95" font-family="Times,serif" font-size="14.00">mint_verifier_nft</text>
</g>
<!-- verify_election&#45;&gt;mint_verifier_nft -->
<g id="edge12" class="edge">
<title>verify_election&#45;&gt;mint_verifier_nft</title>
<path fill="none" stroke="black" d="M94.01,-143.7C93.58,-136.24 93.08,-127.32 92.6,-118.97"/>
<polygon fill="black" stroke="black" points="96.04,-118.89 91.98,-109.1 89.05,-119.29 96.04,-118.89"/>
</g>
<!-- mint_verifier_nft&#45;&gt;end -->
<g id="edge20" class="edge">
<title>mint_verifier_nft&#45;&gt;end</title>
<path fill="none" stroke="black" d="M103.35,-72.05C109.69,-63.35 117.53,-52.59 124.49,-43.03"/>
<polygon fill="black" stroke="black" points="127.75,-45.5 130.81,-35.36 122.09,-41.38 127.75,-45.5"/>
</g>
</g>
</svg>
