<?xml version="1.0" encoding="UTF-8" standalone="no"?>
<!DOCTYPE svg PUBLIC "-//W3C//DTD SVG 1.1//EN"
 "http://www.w3.org/Graphics/SVG/1.1/DTD/svg11.dtd">
<!-- Generated by graphviz version 8.1.0 (20230707.0739)
 -->
<!-- Title: proposed_workflow Pages: 1 -->
<svg width="501pt" height="565pt"
 viewBox="0.00 0.00 500.50 564.50" xmlns="http://www.w3.org/2000/svg" xmlns:xlink="http://www.w3.org/1999/xlink">
<g id="graph0" class="graph" transform="scale(1 1) rotate(0) translate(4 560.5)">
<title>proposed_workflow</title>
<g id="clust1" class="cluster">
<title>cluster_checkin</title>
<polygon fill="#fbeee0" stroke="black" points="349,-77.5 349,-154 456,-154 456,-77.5 349,-77.5"/>
<text text-anchor="middle" x="402.5" y="-136.7" font-family="Times,serif" font-size="14.00">Check&#45;in Station</text>
</g>
<g id="clust2" class="cluster">
<title>cluster_votingbooth</title>
<polygon fill="#fbeee0" stroke="black" points="229,-399 229,-548.5 379,-548.5 379,-399 229,-399"/>
<text text-anchor="middle" x="304" y="-531.2" font-family="Times,serif" font-size="14.00">Voting Booth</text>
</g>
<g id="clust3" class="cluster">
<title>cluster_app</title>
<polygon fill="#fbeee0" stroke="black" points="8,-188.5 8,-348 411,-348 411,-188.5 8,-188.5"/>
<text text-anchor="middle" x="209.5" y="-330.7" font-family="Times,serif" font-size="14.00">Trusted Voting App</text>
</g>
<!-- enter -->
<g id="node1" class="node">
<title>enter</title>
<path fill="none" stroke="none" d="M487,-225.25C487,-225.25 471,-225.25 471,-225.25 468.25,-225.25 465.5,-222.5 465.5,-219.75 465.5,-219.75 465.5,-214.25 465.5,-214.25 465.5,-211.5 468.25,-208.75 471,-208.75 471,-208.75 487,-208.75 487,-208.75 489.75,-208.75 492.5,-211.5 492.5,-214.25 492.5,-214.25 492.5,-219.75 492.5,-219.75 492.5,-222.5 489.75,-225.25 487,-225.25"/>
<text text-anchor="middle" x="479" y="-211.95" font-family="Times,serif" font-size="14.00">enter</text>
</g>
<!-- id_check -->
<g id="node3" class="node">
<title>id_check</title>
<path fill="lightgreen" stroke="black" d="M423.75,-121.5C423.75,-121.5 382.25,-121.5 382.25,-121.5 376.25,-121.5 370.25,-115.5 370.25,-109.5 370.25,-109.5 370.25,-97.5 370.25,-97.5 370.25,-91.5 376.25,-85.5 382.25,-85.5 382.25,-85.5 423.75,-85.5 423.75,-85.5 429.75,-85.5 435.75,-91.5 435.75,-97.5 435.75,-97.5 435.75,-109.5 435.75,-109.5 435.75,-115.5 429.75,-121.5 423.75,-121.5"/>
<text text-anchor="middle" x="403" y="-98.45" font-family="Times,serif" font-size="14.00">ID check</text>
</g>
<!-- enter&#45;&gt;id_check -->
<g id="edge1" class="edge">
<title>enter&#45;&gt;id_check</title>
<path fill="none" stroke="black" d="M476,-209.08C471.31,-198.54 461.64,-178 451,-162 443.65,-150.95 434.52,-139.56 426.21,-129.87"/>
<polygon fill="black" stroke="black" points="428.4,-128.06 419.18,-122.84 423.14,-132.67 428.4,-128.06"/>
</g>
<!-- leave -->
<g id="node2" class="node">
<title>leave</title>
<path fill="none" stroke="none" d="M84.75,-16.5C84.75,-16.5 67.25,-16.5 67.25,-16.5 64.5,-16.5 61.75,-13.75 61.75,-11 61.75,-11 61.75,-5.5 61.75,-5.5 61.75,-2.75 64.5,0 67.25,0 67.25,0 84.75,0 84.75,0 87.5,0 90.25,-2.75 90.25,-5.5 90.25,-5.5 90.25,-11 90.25,-11 90.25,-13.75 87.5,-16.5 84.75,-16.5"/>
<text text-anchor="middle" x="76" y="-3.2" font-family="Times,serif" font-size="14.00">leave</text>
</g>
<!-- fill_out_ballot -->
<g id="node4" class="node">
<title>fill_out_ballot</title>
<path fill="lightgreen" stroke="black" d="M357,-516C357,-516 257,-516 257,-516 251,-516 245,-510 245,-504 245,-504 245,-492 245,-492 245,-486 251,-480 257,-480 257,-480 357,-480 357,-480 363,-480 369,-486 369,-492 369,-492 369,-504 369,-504 369,-510 363,-516 357,-516"/>
<text text-anchor="middle" x="307" y="-492.95" font-family="Times,serif" font-size="14.00">Fill out paper ballot</text>
</g>
<!-- id_check&#45;&gt;fill_out_ballot -->
<g id="edge7" class="edge">
<title>id_check&#45;&gt;fill_out_ballot</title>
<path fill="none" stroke="black" d="M411.76,-121.77C421.83,-143.27 437,-181.39 437,-216 437,-426 437,-426 437,-426 437,-456.38 409.31,-473.84 379.49,-483.84"/>
<polygon fill="black" stroke="black" points="378.87,-480.67 370.33,-486.95 380.92,-487.37 378.87,-480.67"/>
<text text-anchor="middle" x="461.38" y="-298.2" font-family="Times,serif" font-size="14.00">S:vote in</text>
<text text-anchor="middle" x="461.38" y="-281.7" font-family="Times,serif" font-size="14.00">progress</text>
</g>
<!-- submit_ballot -->
<g id="node5" class="node">
<title>submit_ballot</title>
<path fill="lightgreen" stroke="black" d="M358.5,-443C358.5,-443 249.5,-443 249.5,-443 243.5,-443 237.5,-437 237.5,-431 237.5,-431 237.5,-419 237.5,-419 237.5,-413 243.5,-407 249.5,-407 249.5,-407 358.5,-407 358.5,-407 364.5,-407 370.5,-413 370.5,-419 370.5,-419 370.5,-431 370.5,-431 370.5,-437 364.5,-443 358.5,-443"/>
<text text-anchor="middle" x="304" y="-419.95" font-family="Times,serif" font-size="14.00">Scan &amp; submit ballot</text>
</g>
<!-- fill_out_ballot&#45;&gt;submit_ballot -->
<g id="edge2" class="edge">
<title>fill_out_ballot&#45;&gt;submit_ballot</title>
<path fill="none" stroke="black" d="M306.27,-479.81C305.95,-472.05 305.55,-462.68 305.18,-453.95"/>
<polygon fill="black" stroke="black" points="308.64,-453.87 304.72,-444.03 301.64,-454.17 308.64,-453.87"/>
</g>
<!-- confirm_onchain -->
<g id="node6" class="node">
<title>confirm_onchain</title>
<path fill="#66ddff" stroke="black" d="M263,-315.5C263,-315.5 157,-315.5 157,-315.5 151,-315.5 145,-309.5 145,-303.5 145,-303.5 145,-286.5 145,-286.5 145,-280.5 151,-274.5 157,-274.5 157,-274.5 263,-274.5 263,-274.5 269,-274.5 275,-280.5 275,-286.5 275,-286.5 275,-303.5 275,-303.5 275,-309.5 269,-315.5 263,-315.5"/>
<text text-anchor="middle" x="210" y="-298.2" font-family="Times,serif" font-size="14.00">Download ciphertext</text>
<text text-anchor="middle" x="210" y="-281.7" font-family="Times,serif" font-size="14.00">via QR code</text>
</g>
<!-- submit_ballot&#45;&gt;confirm_onchain -->
<g id="edge3" class="edge">
<title>submit_ballot&#45;&gt;confirm_onchain</title>
<path fill="none" stroke="black" d="M291.32,-406.74C275.88,-385.71 249.57,-349.88 231.06,-324.68"/>
<polygon fill="black" stroke="black" points="233.37,-322.92 224.63,-316.93 227.73,-327.06 233.37,-322.92"/>
<text text-anchor="middle" x="304.5" y="-375.7" font-family="Times,serif" font-size="14.00">S:publish</text>
<text text-anchor="middle" x="304.5" y="-359.2" font-family="Times,serif" font-size="14.00">cyphertext</text>
</g>
<!-- audit_or_cast -->
<g id="node7" class="node">
<title>audit_or_cast</title>
<path fill="#66ddff" stroke="black" d="M124.12,-237.5C124.12,-237.5 27.88,-237.5 27.88,-237.5 21.88,-237.5 15.88,-231.5 15.88,-225.5 15.88,-225.5 15.88,-208.5 15.88,-208.5 15.88,-202.5 21.88,-196.5 27.88,-196.5 27.88,-196.5 124.12,-196.5 124.12,-196.5 130.12,-196.5 136.12,-202.5 136.12,-208.5 136.12,-208.5 136.12,-225.5 136.12,-225.5 136.12,-231.5 130.12,-237.5 124.12,-237.5"/>
<text text-anchor="middle" x="76" y="-220.2" font-family="Times,serif" font-size="14.00">Benaloh challenge:</text>
<text text-anchor="middle" x="76" y="-203.7" font-family="Times,serif" font-size="14.00">audit or cast?</text>
</g>
<!-- confirm_onchain&#45;&gt;audit_or_cast -->
<g id="edge4" class="edge">
<title>confirm_onchain&#45;&gt;audit_or_cast</title>
<path fill="none" stroke="black" d="M174.79,-274.03C158.17,-264.61 138.16,-253.25 120.5,-243.24"/>
<polygon fill="black" stroke="black" points="122.4,-239.72 111.97,-237.83 118.94,-245.81 122.4,-239.72"/>
</g>
<!-- tmp1 -->
<!-- audit_or_cast&#45;&gt;tmp1 -->
<g id="edge5" class="edge">
<title>audit_or_cast&#45;&gt;tmp1</title>
<path fill="none" stroke="black" d="M136.55,-217C153.79,-217 170.92,-217 182.14,-217"/>
<polygon fill="black" stroke="black" points="181.98,-220.5 191.98,-217 181.98,-213.5 181.98,-220.5"/>
<text text-anchor="middle" x="164.66" y="-223.2" font-family="Times,serif" font-size="14.00">V:audit</text>
</g>
<!-- tmp2 -->
<!-- audit_or_cast&#45;&gt;tmp2 -->
<g id="edge8" class="edge">
<title>audit_or_cast&#45;&gt;tmp2</title>
<path fill="none" stroke="black" d="M76,-196.07C76,-172.85 76,-135.27 76,-116.28"/>
<polygon fill="black" stroke="black" points="79.5,-116.55 76,-106.55 72.5,-116.55 79.5,-116.55"/>
<text text-anchor="middle" x="92.88" y="-165.2" font-family="Times,serif" font-size="14.00">V:cast</text>
</g>
<!-- decrypt_ballot -->
<g id="node8" class="node">
<title>decrypt_ballot</title>
<path fill="#66ddff" stroke="black" d="M391.12,-237.5C391.12,-237.5 276.88,-237.5 276.88,-237.5 270.88,-237.5 264.88,-231.5 264.88,-225.5 264.88,-225.5 264.88,-208.5 264.88,-208.5 264.88,-202.5 270.88,-196.5 276.88,-196.5 276.88,-196.5 391.12,-196.5 391.12,-196.5 397.12,-196.5 403.12,-202.5 403.12,-208.5 403.12,-208.5 403.12,-225.5 403.12,-225.5 403.12,-231.5 397.12,-237.5 391.12,-237.5"/>
<text text-anchor="middle" x="334" y="-220.2" font-family="Times,serif" font-size="14.00">Decrypt and check:</text>
<text text-anchor="middle" x="334" y="-203.7" font-family="Times,serif" font-size="14.00">does ballot look right?</text>
</g>
<!-- decrypt_ballot&#45;&gt;id_check -->
<g id="edge10" class="edge">
<title>decrypt_ballot&#45;&gt;id_check</title>
<path fill="none" stroke="black" d="M309.71,-196.18C300.32,-186.05 293.27,-173.46 300,-162 312.98,-139.89 337.89,-125.66 359.96,-116.88"/>
<polygon fill="black" stroke="black" points="361.01,-119.86 369.18,-113.11 358.58,-113.29 361.01,-119.86"/>
<text text-anchor="middle" x="324" y="-165.2" font-family="Times,serif" font-size="14.00">V:certify</text>
</g>
<!-- decrypt_ballot&#45;&gt;id_check -->
<g id="edge11" class="edge">
<title>decrypt_ballot&#45;&gt;id_check</title>
<path fill="none" stroke="black" d="M346.34,-196.07C357.6,-177.87 374.32,-150.85 386.68,-130.87"/>
<polygon fill="black" stroke="black" points="390.07,-133.05 392.35,-122.7 384.12,-129.36 390.07,-133.05"/>
<text text-anchor="middle" x="391.88" y="-165.2" font-family="Times,serif" font-size="14.00">V:dispute</text>
</g>
<!-- tmp1&#45;&gt;decrypt_ballot -->
<g id="edge6" class="edge">
<title>tmp1&#45;&gt;decrypt_ballot</title>
<path fill="none" stroke="black" d="M196.96,-217C203.84,-217 227.8,-217 253.81,-217"/>
<polygon fill="black" stroke="black" points="253.64,-220.5 263.64,-217 253.64,-213.5 253.64,-220.5"/>
<text text-anchor="middle" x="230.84" y="-239.7" font-family="Times,serif" font-size="14.00">S:publish</text>
<text text-anchor="middle" x="230.84" y="-223.2" font-family="Times,serif" font-size="14.00">nonce</text>
</g>
<!-- tmp2&#45;&gt;leave -->
<g id="edge9" class="edge">
<title>tmp2&#45;&gt;leave</title>
<path fill="none" stroke="black" d="M76,-101.45C76,-94.26 76,-51.76 76,-27.04"/>
<polygon fill="black" stroke="black" points="79.5,-27.3 76,-17.3 72.5,-27.3 79.5,-27.3"/>
<text text-anchor="middle" x="97.75" y="-54.2" font-family="Times,serif" font-size="14.00">S:delete</text>
<text text-anchor="middle" x="97.75" y="-37.7" font-family="Times,serif" font-size="14.00">nonce</text>
</g>
</g>
</svg>
