<?xml version="1.0" encoding="UTF-8" standalone="no"?>
<!DOCTYPE svg PUBLIC "-//W3C//DTD SVG 1.1//EN"
 "http://www.w3.org/Graphics/SVG/1.1/DTD/svg11.dtd">
<!-- Generated by graphviz version 8.1.0 (20230707.0739)
 -->
<!-- Title: proposed_workflow Pages: 1 -->
<svg width="438pt" height="654pt"
 viewBox="0.00 0.00 438.00 653.50" xmlns="http://www.w3.org/2000/svg" xmlns:xlink="http://www.w3.org/1999/xlink">
<g id="graph0" class="graph" transform="scale(1 1) rotate(0) translate(4 649.5)">
<title>proposed_workflow</title>
<g id="clust1" class="cluster">
<title>cluster_checkin</title>
<polygon fill="#fbeee0" stroke="black" points="234,-506 234,-582.5 338,-582.5 338,-506 234,-506"/>
<text text-anchor="middle" x="286" y="-565.2" font-family="Times,serif" font-size="14.00">check&#45;in station</text>
</g>
<g id="clust2" class="cluster">
<title>cluster_votingbooth</title>
<polygon fill="#fbeee0" stroke="black" points="46,-249 46,-487 190,-487 190,-249 46,-249"/>
<text text-anchor="middle" x="118" y="-469.7" font-family="Times,serif" font-size="14.00">voting booth</text>
</g>
<g id="clust3" class="cluster">
<title>cluster_phone</title>
<polygon fill="#fbeee0" stroke="black" points="8,-80.5 8,-230 422,-230 422,-80.5 8,-80.5"/>
<text text-anchor="middle" x="215" y="-212.7" font-family="Times,serif" font-size="14.00">voting app</text>
</g>
<!-- start -->
<g id="node1" class="node">
<title>start</title>
<ellipse fill="white" stroke="black" cx="286" cy="-627.5" rx="27" ry="18"/>
<text text-anchor="middle" x="286" y="-622.45" font-family="Times,serif" font-size="14.00">start</text>
</g>
<!-- id_check -->
<g id="node2" class="node">
<title>id_check</title>
<ellipse fill="#66ddff" stroke="black" cx="286" cy="-532" rx="44.19" ry="18"/>
<text text-anchor="middle" x="286" y="-526.95" font-family="Times,serif" font-size="14.00">id_check</text>
</g>
<!-- start&#45;&gt;id_check -->
<g id="edge1" class="edge">
<title>start&#45;&gt;id_check</title>
<path fill="none" stroke="grey" d="M286,-609.35C286,-595.86 286,-576.78 286,-561.07"/>
<polygon fill="grey" stroke="grey" points="289.5,-561.36 286,-551.36 282.5,-561.36 289.5,-561.36"/>
</g>
<!-- fill_out_ballot -->
<g id="node3" class="node">
<title>fill_out_ballot</title>
<ellipse fill="#f6b657" stroke="black" cx="118" cy="-436.5" rx="63.63" ry="18"/>
<text text-anchor="middle" x="118" y="-431.45" font-family="Times,serif" font-size="14.00">fill_out_ballot</text>
</g>
<!-- id_check&#45;&gt;fill_out_ballot -->
<g id="edge7" class="edge">
<title>id_check&#45;&gt;fill_out_ballot</title>
<path fill="none" stroke="grey" d="M260.85,-517C232.89,-501.44 187.46,-476.16 155.35,-458.29"/>
<polygon fill="grey" stroke="grey" points="157.29,-454.8 146.85,-453 153.88,-460.92 157.29,-454.8"/>
</g>
<!-- submit_ballot -->
<g id="node4" class="node">
<title>submit_ballot</title>
<ellipse fill="white" stroke="black" cx="117" cy="-363.5" rx="62.1" ry="18"/>
<text text-anchor="middle" x="117" y="-358.45" font-family="Times,serif" font-size="14.00">submit_ballot</text>
</g>
<!-- fill_out_ballot&#45;&gt;submit_ballot -->
<g id="edge2" class="edge">
<title>fill_out_ballot&#45;&gt;submit_ballot</title>
<path fill="none" stroke="grey" d="M117.76,-418.31C117.65,-410.55 117.52,-401.18 117.39,-392.45"/>
<polygon fill="grey" stroke="grey" points="120.88,-392.48 117.24,-382.53 113.88,-392.58 120.88,-392.48"/>
</g>
<!-- take_code -->
<g id="node5" class="node">
<title>take_code</title>
<ellipse fill="white" stroke="black" cx="109" cy="-275" rx="48.28" ry="18"/>
<text text-anchor="middle" x="109" y="-269.95" font-family="Times,serif" font-size="14.00">take_code</text>
</g>
<!-- submit_ballot&#45;&gt;take_code -->
<g id="edge3" class="edge">
<title>submit_ballot&#45;&gt;take_code</title>
<path fill="none" stroke="grey" d="M115.42,-345.41C114.33,-333.64 112.86,-317.73 111.6,-304.11"/>
<polygon fill="grey" stroke="grey" points="115.01,-303.99 110.6,-294.35 108.04,-304.63 115.01,-303.99"/>
</g>
<!-- confirm_onchain -->
<g id="node6" class="node">
<title>confirm_onchain</title>
<ellipse fill="white" stroke="black" cx="107" cy="-179.5" rx="74.38" ry="18"/>
<text text-anchor="middle" x="107" y="-174.45" font-family="Times,serif" font-size="14.00">confirm_onchain</text>
</g>
<!-- take_code&#45;&gt;confirm_onchain -->
<g id="edge4" class="edge">
<title>take_code&#45;&gt;confirm_onchain</title>
<path fill="none" stroke="grey" d="M108.63,-256.85C108.34,-243.36 107.94,-224.28 107.6,-208.57"/>
<polygon fill="grey" stroke="grey" points="111.08,-208.78 107.37,-198.86 104.09,-208.93 111.08,-208.78"/>
</g>
<!-- audit_or_cast -->
<g id="node7" class="node">
<title>audit_or_cast</title>
<polygon fill="white" stroke="black" points="102,-124.5 16.35,-106.5 102,-88.5 187.65,-106.5 102,-124.5"/>
<text text-anchor="middle" x="102" y="-101.45" font-family="Times,serif" font-size="14.00">audit_or_cast</text>
</g>
<!-- confirm_onchain&#45;&gt;audit_or_cast -->
<g id="edge5" class="edge">
<title>confirm_onchain&#45;&gt;audit_or_cast</title>
<path fill="none" stroke="grey" d="M105.79,-161.31C105.24,-153.55 104.58,-144.18 103.97,-135.45"/>
<polygon fill="grey" stroke="grey" points="107.39,-135.26 103.2,-125.53 100.41,-135.75 107.39,-135.26"/>
</g>
<!-- decrypt_ballot -->
<g id="node8" class="node">
<title>decrypt_ballot</title>
<polygon fill="white" stroke="black" points="323,-124.5 232.28,-106.5 323,-88.5 413.72,-106.5 323,-124.5"/>
<text text-anchor="middle" x="323" y="-101.45" font-family="Times,serif" font-size="14.00">decrypt_ballot</text>
</g>
<!-- audit_or_cast&#45;&gt;decrypt_ballot -->
<g id="edge6" class="edge">
<title>audit_or_cast&#45;&gt;decrypt_ballot</title>
<path fill="none" stroke="grey" d="M189.98,-106.5C199.51,-106.5 209.28,-106.5 218.98,-106.5"/>
<polygon fill="grey" stroke="grey" points="218.89,-110 228.89,-106.5 218.89,-103 218.89,-110"/>
<text text-anchor="middle" x="209.97" y="-112.7" font-family="Times,serif" font-size="14.00">audit</text>
</g>
<!-- end -->
<g id="node9" class="node">
<title>end</title>
<ellipse fill="white" stroke="black" cx="102" cy="-18" rx="27" ry="18"/>
<text text-anchor="middle" x="102" y="-12.95" font-family="Times,serif" font-size="14.00">end</text>
</g>
<!-- audit_or_cast&#45;&gt;end -->
<g id="edge8" class="edge">
<title>audit_or_cast&#45;&gt;end</title>
<path fill="none" stroke="grey" d="M102,-88C102,-76.27 102,-60.58 102,-47.12"/>
<polygon fill="grey" stroke="grey" points="105.5,-47.48 102,-37.48 98.5,-47.48 105.5,-47.48"/>
<text text-anchor="middle" x="112.5" y="-57.2" font-family="Times,serif" font-size="14.00">cast</text>
</g>
<!-- decrypt_ballot&#45;&gt;id_check -->
<g id="edge9" class="edge">
<title>decrypt_ballot&#45;&gt;id_check</title>
<path fill="none" stroke="grey" d="M315.61,-123.33C313,-129.26 310.17,-136.12 308,-142.5 283.09,-215.69 274.44,-234.29 264.75,-311 256.05,-379.9 270.27,-461.34 279.35,-503.15"/>
<polygon fill="grey" stroke="grey" points="276.15,-503.86 281.76,-512.85 282.98,-502.32 276.15,-503.86"/>
<text text-anchor="middle" x="281.62" y="-314.2" font-family="Times,serif" font-size="14.00">certify</text>
</g>
<!-- decrypt_ballot&#45;&gt;id_check -->
<g id="edge10" class="edge">
<title>decrypt_ballot&#45;&gt;id_check</title>
<path fill="none" stroke="grey" d="M322.62,-124.72C322.34,-139.09 322,-160.13 322,-178.5 322,-437.5 322,-437.5 322,-437.5 322,-461.31 311.71,-486.39 302.13,-504.58"/>
<polygon fill="grey" stroke="grey" points="298.59,-502.73 296.8,-513.17 304.71,-506.13 298.59,-502.73"/>
<text text-anchor="middle" x="341.5" y="-314.2" font-family="Times,serif" font-size="14.00">dispute</text>
</g>
</g>
</svg>
