<?xml version="1.0" encoding="UTF-8" standalone="no"?>
<!DOCTYPE svg PUBLIC "-//W3C//DTD SVG 1.1//EN"
 "http://www.w3.org/Graphics/SVG/1.1/DTD/svg11.dtd">
<!-- Generated by graphviz version 8.1.0 (20230707.0739)
 -->
<!-- Title: proposed_workflow Pages: 1 -->
<svg width="271pt" height="654pt"
 viewBox="0.00 0.00 271.00 653.50" xmlns="http://www.w3.org/2000/svg" xmlns:xlink="http://www.w3.org/1999/xlink">
<g id="graph0" class="graph" transform="scale(1 1) rotate(0) translate(4 649.5)">
<title>proposed_workflow</title>
<g id="clust1" class="cluster">
<title>cluster_checkin</title>
<polygon fill="#fbeee0" stroke="black" points="97,-506 97,-582.5 199,-582.5 199,-506 97,-506"/>
<text text-anchor="middle" x="148" y="-565.2" font-family="Times,serif" font-size="14.00">check&#45;in station</text>
</g>
<g id="clust2" class="cluster">
<title>cluster_votingbooth</title>
<polygon fill="#fbeee0" stroke="black" points="8,-249 8,-487 118,-487 118,-249 8,-249"/>
<text text-anchor="middle" x="63" y="-469.7" font-family="Times,serif" font-size="14.00">voting booth</text>
</g>
<g id="clust3" class="cluster">
<title>cluster_phone</title>
<polygon fill="#fbeee0" stroke="black" points="12,-80.5 12,-230 255,-230 255,-80.5 12,-80.5"/>
<text text-anchor="middle" x="133.5" y="-212.7" font-family="Times,serif" font-size="14.00">voting app</text>
</g>
<!-- start -->
<g id="node1" class="node">
<title>start</title>
<path fill="lightgreen" stroke="black" d="M163,-645.5C163,-645.5 133,-645.5 133,-645.5 127,-645.5 121,-639.5 121,-633.5 121,-633.5 121,-621.5 121,-621.5 121,-615.5 127,-609.5 133,-609.5 133,-609.5 163,-609.5 163,-609.5 169,-609.5 175,-615.5 175,-621.5 175,-621.5 175,-633.5 175,-633.5 175,-639.5 169,-645.5 163,-645.5"/>
<text text-anchor="middle" x="148" y="-622.45" font-family="Times,serif" font-size="14.00">start</text>
</g>
<!-- id_check -->
<g id="node2" class="node">
<title>id_check</title>
<path fill="lightgreen" stroke="black" d="M168.38,-550C168.38,-550 127.62,-550 127.62,-550 121.62,-550 115.62,-544 115.62,-538 115.62,-538 115.62,-526 115.62,-526 115.62,-520 121.62,-514 127.62,-514 127.62,-514 168.38,-514 168.38,-514 174.38,-514 180.38,-520 180.38,-526 180.38,-526 180.38,-538 180.38,-538 180.38,-544 174.38,-550 168.38,-550"/>
<text text-anchor="middle" x="148" y="-526.95" font-family="Times,serif" font-size="14.00">id_check</text>
</g>
<!-- start&#45;&gt;id_check -->
<g id="edge1" class="edge">
<title>start&#45;&gt;id_check</title>
<path fill="none" stroke="black" d="M148,-609.35C148,-595.86 148,-576.78 148,-561.07"/>
<polygon fill="black" stroke="black" points="151.5,-561.36 148,-551.36 144.5,-561.36 151.5,-561.36"/>
</g>
<!-- fill_out_ballot -->
<g id="node3" class="node">
<title>fill_out_ballot</title>
<path fill="lightgreen" stroke="black" d="M97.62,-454.5C97.62,-454.5 28.38,-454.5 28.38,-454.5 22.38,-454.5 16.38,-448.5 16.38,-442.5 16.38,-442.5 16.38,-430.5 16.38,-430.5 16.38,-424.5 22.38,-418.5 28.38,-418.5 28.38,-418.5 97.62,-418.5 97.62,-418.5 103.62,-418.5 109.62,-424.5 109.62,-430.5 109.62,-430.5 109.62,-442.5 109.62,-442.5 109.62,-448.5 103.62,-454.5 97.62,-454.5"/>
<text text-anchor="middle" x="63" y="-431.45" font-family="Times,serif" font-size="14.00">fill_out_ballot</text>
</g>
<!-- id_check&#45;&gt;fill_out_ballot -->
<g id="edge7" class="edge">
<title>id_check&#45;&gt;fill_out_ballot</title>
<path fill="none" stroke="black" d="M132.41,-513.85C119.43,-499.57 100.76,-479.04 86.06,-462.86"/>
<polygon fill="black" stroke="black" points="89.1,-460.9 79.78,-455.86 83.92,-465.61 89.1,-460.9"/>
</g>
<!-- submit_ballot -->
<g id="node4" class="node">
<title>submit_ballot</title>
<path fill="lightgreen" stroke="black" d="M96.5,-381.5C96.5,-381.5 29.5,-381.5 29.5,-381.5 23.5,-381.5 17.5,-375.5 17.5,-369.5 17.5,-369.5 17.5,-357.5 17.5,-357.5 17.5,-351.5 23.5,-345.5 29.5,-345.5 29.5,-345.5 96.5,-345.5 96.5,-345.5 102.5,-345.5 108.5,-351.5 108.5,-357.5 108.5,-357.5 108.5,-369.5 108.5,-369.5 108.5,-375.5 102.5,-381.5 96.5,-381.5"/>
<text text-anchor="middle" x="63" y="-358.45" font-family="Times,serif" font-size="14.00">submit_ballot</text>
</g>
<!-- fill_out_ballot&#45;&gt;submit_ballot -->
<g id="edge2" class="edge">
<title>fill_out_ballot&#45;&gt;submit_ballot</title>
<path fill="none" stroke="black" d="M63,-418.31C63,-410.55 63,-401.18 63,-392.45"/>
<polygon fill="black" stroke="black" points="66.5,-392.53 63,-382.53 59.5,-392.53 66.5,-392.53"/>
</g>
<!-- take_code -->
<g id="node5" class="node">
<title>take_code</title>
<path fill="lightgreen" stroke="black" d="M92.38,-293C92.38,-293 45.62,-293 45.62,-293 39.62,-293 33.62,-287 33.62,-281 33.62,-281 33.62,-269 33.62,-269 33.62,-263 39.62,-257 45.62,-257 45.62,-257 92.38,-257 92.38,-257 98.38,-257 104.38,-263 104.38,-269 104.38,-269 104.38,-281 104.38,-281 104.38,-287 98.38,-293 92.38,-293"/>
<text text-anchor="middle" x="69" y="-269.95" font-family="Times,serif" font-size="14.00">take_code</text>
</g>
<!-- submit_ballot&#45;&gt;take_code -->
<g id="edge3" class="edge">
<title>submit_ballot&#45;&gt;take_code</title>
<path fill="none" stroke="black" d="M64.19,-345.41C65,-333.64 66.11,-317.73 67.05,-304.11"/>
<polygon fill="black" stroke="black" points="70.6,-304.57 67.8,-294.35 63.61,-304.08 70.6,-304.57"/>
</g>
<!-- confirm_onchain -->
<g id="node6" class="node">
<title>confirm_onchain</title>
<path fill="#66ddff" stroke="black" d="M117.5,-197.5C117.5,-197.5 32.5,-197.5 32.5,-197.5 26.5,-197.5 20.5,-191.5 20.5,-185.5 20.5,-185.5 20.5,-173.5 20.5,-173.5 20.5,-167.5 26.5,-161.5 32.5,-161.5 32.5,-161.5 117.5,-161.5 117.5,-161.5 123.5,-161.5 129.5,-167.5 129.5,-173.5 129.5,-173.5 129.5,-185.5 129.5,-185.5 129.5,-191.5 123.5,-197.5 117.5,-197.5"/>
<text text-anchor="middle" x="75" y="-174.45" font-family="Times,serif" font-size="14.00">confirm_onchain</text>
</g>
<!-- take_code&#45;&gt;confirm_onchain -->
<g id="edge4" class="edge">
<title>take_code&#45;&gt;confirm_onchain</title>
<path fill="none" stroke="black" d="M70.1,-256.85C70.97,-243.36 72.19,-224.28 73.2,-208.57"/>
<polygon fill="black" stroke="black" points="76.74,-209.06 73.89,-198.86 69.75,-208.61 76.74,-209.06"/>
</g>
<!-- audit_or_cast -->
<g id="node7" class="node">
<title>audit_or_cast</title>
<path fill="#66ddff" stroke="black" d="M96.38,-124.5C96.38,-124.5 31.62,-124.5 31.62,-124.5 25.62,-124.5 19.62,-118.5 19.62,-112.5 19.62,-112.5 19.62,-100.5 19.62,-100.5 19.62,-94.5 25.62,-88.5 31.62,-88.5 31.62,-88.5 96.38,-88.5 96.38,-88.5 102.38,-88.5 108.38,-94.5 108.38,-100.5 108.38,-100.5 108.38,-112.5 108.38,-112.5 108.38,-118.5 102.38,-124.5 96.38,-124.5"/>
<text text-anchor="middle" x="64" y="-101.45" font-family="Times,serif" font-size="14.00">audit_or_cast</text>
</g>
<!-- confirm_onchain&#45;&gt;audit_or_cast -->
<g id="edge5" class="edge">
<title>confirm_onchain&#45;&gt;audit_or_cast</title>
<path fill="none" stroke="black" d="M72.34,-161.31C71.12,-153.46 69.65,-143.97 68.28,-135.16"/>
<polygon fill="black" stroke="black" points="71.63,-134.88 66.64,-125.53 64.71,-135.95 71.63,-134.88"/>
</g>
<!-- decrypt_ballot -->
<g id="node8" class="node">
<title>decrypt_ballot</title>
<path fill="#66ddff" stroke="black" d="M235,-124.5C235,-124.5 165,-124.5 165,-124.5 159,-124.5 153,-118.5 153,-112.5 153,-112.5 153,-100.5 153,-100.5 153,-94.5 159,-88.5 165,-88.5 165,-88.5 235,-88.5 235,-88.5 241,-88.5 247,-94.5 247,-100.5 247,-100.5 247,-112.5 247,-112.5 247,-118.5 241,-124.5 235,-124.5"/>
<text text-anchor="middle" x="200" y="-101.45" font-family="Times,serif" font-size="14.00">decrypt_ballot</text>
</g>
<!-- audit_or_cast&#45;&gt;decrypt_ballot -->
<g id="edge6" class="edge">
<title>audit_or_cast&#45;&gt;decrypt_ballot</title>
<path fill="none" stroke="black" d="M108.53,-106.5C119.11,-106.5 130.54,-106.5 141.63,-106.5"/>
<polygon fill="black" stroke="black" points="141.56,-110 151.56,-106.5 141.56,-103 141.56,-110"/>
<text text-anchor="middle" x="130.69" y="-112.7" font-family="Times,serif" font-size="14.00">audit</text>
</g>
<!-- end -->
<g id="node9" class="node">
<title>end</title>
<path fill="lightgreen" stroke="black" d="M79,-36C79,-36 49,-36 49,-36 43,-36 37,-30 37,-24 37,-24 37,-12 37,-12 37,-6 43,0 49,0 49,0 79,0 79,0 85,0 91,-6 91,-12 91,-12 91,-24 91,-24 91,-30 85,-36 79,-36"/>
<text text-anchor="middle" x="64" y="-12.95" font-family="Times,serif" font-size="14.00">end</text>
</g>
<!-- audit_or_cast&#45;&gt;end -->
<g id="edge8" class="edge">
<title>audit_or_cast&#45;&gt;end</title>
<path fill="none" stroke="black" d="M64,-88.41C64,-76.64 64,-60.73 64,-47.11"/>
<polygon fill="black" stroke="black" points="67.5,-47.35 64,-37.35 60.5,-47.35 67.5,-47.35"/>
<text text-anchor="middle" x="74.5" y="-57.2" font-family="Times,serif" font-size="14.00">cast</text>
</g>
<!-- decrypt_ballot&#45;&gt;id_check -->
<g id="edge9" class="edge">
<title>decrypt_ballot&#45;&gt;id_check</title>
<path fill="none" stroke="black" d="M193.51,-124.86C180.93,-159.59 153.67,-240.36 144.75,-311 136.11,-379.42 141.27,-460.74 145.07,-502.75"/>
<polygon fill="black" stroke="black" points="141.66,-502.89 146.09,-512.51 148.63,-502.23 141.66,-502.89"/>
<text text-anchor="middle" x="161.62" y="-314.2" font-family="Times,serif" font-size="14.00">certify</text>
</g>
<!-- decrypt_ballot&#45;&gt;id_check -->
<g id="edge10" class="edge">
<title>decrypt_ballot&#45;&gt;id_check</title>
<path fill="none" stroke="black" d="M200.76,-124.71C201.32,-139.09 202,-160.13 202,-178.5 202,-437.5 202,-437.5 202,-437.5 202,-463.11 186.62,-488.02 172.27,-505.68"/>
<polygon fill="black" stroke="black" points="169.22,-502.86 165.38,-512.74 174.54,-507.41 169.22,-502.86"/>
<text text-anchor="middle" x="221.5" y="-314.2" font-family="Times,serif" font-size="14.00">dispute</text>
</g>
</g>
</svg>
