<?xml version="1.0" encoding="UTF-8" standalone="no"?>
<!DOCTYPE svg PUBLIC "-//W3C//DTD SVG 1.1//EN"
 "http://www.w3.org/Graphics/SVG/1.1/DTD/svg11.dtd">
<!-- Generated by graphviz version 8.1.0 (20230707.0739)
 -->
<!-- Title: proposed_workflow Pages: 1 -->
<svg width="508pt" height="565pt"
 viewBox="0.00 0.00 507.62 564.50" xmlns="http://www.w3.org/2000/svg" xmlns:xlink="http://www.w3.org/1999/xlink">
<g id="graph0" class="graph" transform="scale(1 1) rotate(0) translate(4 560.5)">
<title>proposed_workflow</title>
<g id="clust1" class="cluster">
<title>cluster_checkin</title>
<polygon fill="#fbeee0" stroke="black" points="310,-75.5 310,-152 417,-152 417,-75.5 310,-75.5"/>
<text text-anchor="middle" x="363.5" y="-82.7" font-family="Times,serif" font-size="14.00">Check&#45;in Station</text>
</g>
<g id="clust2" class="cluster">
<title>cluster_votingbooth</title>
<polygon fill="#fbeee0" stroke="black" points="269,-399 269,-548.5 419,-548.5 419,-399 269,-399"/>
<text text-anchor="middle" x="344" y="-531.2" font-family="Times,serif" font-size="14.00">Voting Booth</text>
</g>
<g id="clust3" class="cluster">
<title>cluster_app</title>
<polygon fill="#fbeee0" stroke="black" points="8,-186.5 8,-346 416,-346 416,-186.5 8,-186.5"/>
<text text-anchor="middle" x="212" y="-193.7" font-family="Times,serif" font-size="14.00">Trusted Voting App</text>
</g>
<!-- Enter -->
<g id="node1" class="node">
<title>Enter</title>
<path fill="none" stroke="none" d="M494.12,-247.75C494.12,-247.75 475.88,-247.75 475.88,-247.75 473.12,-247.75 470.38,-245 470.38,-242.25 470.38,-242.25 470.38,-236.75 470.38,-236.75 470.38,-234 473.12,-231.25 475.88,-231.25 475.88,-231.25 494.12,-231.25 494.12,-231.25 496.88,-231.25 499.62,-234 499.62,-236.75 499.62,-236.75 499.62,-242.25 499.62,-242.25 499.62,-245 496.88,-247.75 494.12,-247.75"/>
<text text-anchor="middle" x="485" y="-234.45" font-family="Times,serif" font-size="14.00">Enter</text>
</g>
<!-- id_check -->
<g id="node3" class="node">
<title>id_check</title>
<path fill="lightgreen" stroke="black" d="M395.75,-144C395.75,-144 354.25,-144 354.25,-144 348.25,-144 342.25,-138 342.25,-132 342.25,-132 342.25,-120 342.25,-120 342.25,-114 348.25,-108 354.25,-108 354.25,-108 395.75,-108 395.75,-108 401.75,-108 407.75,-114 407.75,-120 407.75,-120 407.75,-132 407.75,-132 407.75,-138 401.75,-144 395.75,-144"/>
<text text-anchor="middle" x="375" y="-120.95" font-family="Times,serif" font-size="14.00">ID check</text>
</g>
<!-- Enter&#45;&gt;id_check -->
<g id="edge1" class="edge">
<title>Enter&#45;&gt;id_check</title>
<path fill="none" stroke="black" d="M484.2,-231.63C482.15,-216.98 475.43,-182.33 456,-162 445.8,-151.32 431.79,-143.72 418.29,-138.4"/>
<polygon fill="black" stroke="black" points="419.73,-134.84 409.14,-134.75 417.37,-141.42 419.73,-134.84"/>
</g>
<!-- Leave -->
<g id="node2" class="node">
<title>Leave</title>
<path fill="none" stroke="none" d="M87,-16.5C87,-16.5 65,-16.5 65,-16.5 62.25,-16.5 59.5,-13.75 59.5,-11 59.5,-11 59.5,-5.5 59.5,-5.5 59.5,-2.75 62.25,0 65,0 65,0 87,0 87,0 89.75,0 92.5,-2.75 92.5,-5.5 92.5,-5.5 92.5,-11 92.5,-11 92.5,-13.75 89.75,-16.5 87,-16.5"/>
<text text-anchor="middle" x="76" y="-3.2" font-family="Times,serif" font-size="14.00">Leave</text>
</g>
<!-- fill_out_ballot -->
<g id="node4" class="node">
<title>fill_out_ballot</title>
<path fill="lightgreen" stroke="black" d="M397,-516C397,-516 297,-516 297,-516 291,-516 285,-510 285,-504 285,-504 285,-492 285,-492 285,-486 291,-480 297,-480 297,-480 397,-480 397,-480 403,-480 409,-486 409,-492 409,-492 409,-504 409,-504 409,-510 403,-516 397,-516"/>
<text text-anchor="middle" x="347" y="-492.95" font-family="Times,serif" font-size="14.00">Fill out paper ballot</text>
</g>
<!-- id_check&#45;&gt;fill_out_ballot -->
<g id="edge7" class="edge">
<title>id_check&#45;&gt;fill_out_ballot</title>
<path fill="none" stroke="black" d="M404.65,-144.31C411.15,-149.3 417.45,-155.25 422,-162 441.65,-191.14 442,-203.36 442,-238.5 442,-426 442,-426 442,-426 442,-447.4 426.34,-463.13 407.74,-474.26"/>
<polygon fill="black" stroke="black" points="406.21,-471.65 399.12,-479.52 409.57,-477.79 406.21,-471.65"/>
<text text-anchor="middle" x="467.12" y="-320.7" font-family="Times,serif" font-size="14.00">S:Vote in</text>
<text text-anchor="middle" x="467.12" y="-304.2" font-family="Times,serif" font-size="14.00">progress</text>
</g>
<!-- submit_ballot -->
<g id="node5" class="node">
<title>submit_ballot</title>
<path fill="lightgreen" stroke="black" d="M398.5,-443C398.5,-443 289.5,-443 289.5,-443 283.5,-443 277.5,-437 277.5,-431 277.5,-431 277.5,-419 277.5,-419 277.5,-413 283.5,-407 289.5,-407 289.5,-407 398.5,-407 398.5,-407 404.5,-407 410.5,-413 410.5,-419 410.5,-419 410.5,-431 410.5,-431 410.5,-437 404.5,-443 398.5,-443"/>
<text text-anchor="middle" x="344" y="-419.95" font-family="Times,serif" font-size="14.00">Scan &amp; submit ballot</text>
</g>
<!-- fill_out_ballot&#45;&gt;submit_ballot -->
<g id="edge2" class="edge">
<title>fill_out_ballot&#45;&gt;submit_ballot</title>
<path fill="none" stroke="black" d="M346.27,-479.81C345.95,-472.05 345.55,-462.68 345.18,-453.95"/>
<polygon fill="black" stroke="black" points="348.64,-453.87 344.72,-444.03 341.64,-454.17 348.64,-453.87"/>
</g>
<!-- confirm_onchain -->
<g id="node6" class="node">
<title>confirm_onchain</title>
<path fill="#66ddff" stroke="black" d="M185.5,-338C185.5,-338 100.5,-338 100.5,-338 94.5,-338 88.5,-332 88.5,-326 88.5,-326 88.5,-309 88.5,-309 88.5,-303 94.5,-297 100.5,-297 100.5,-297 185.5,-297 185.5,-297 191.5,-297 197.5,-303 197.5,-309 197.5,-309 197.5,-326 197.5,-326 197.5,-332 191.5,-338 185.5,-338"/>
<text text-anchor="middle" x="143" y="-320.7" font-family="Times,serif" font-size="14.00">Scan QR code &amp;</text>
<text text-anchor="middle" x="143" y="-304.2" font-family="Times,serif" font-size="14.00">find ciphertext</text>
</g>
<!-- submit_ballot&#45;&gt;confirm_onchain -->
<g id="edge3" class="edge">
<title>submit_ballot&#45;&gt;confirm_onchain</title>
<path fill="none" stroke="black" d="M310.81,-406.58C278.05,-389.39 227.65,-362.93 190.63,-343.5"/>
<polygon fill="black" stroke="black" points="192.52,-340.02 182.04,-338.47 189.27,-346.21 192.52,-340.02"/>
<text text-anchor="middle" x="301.5" y="-375.7" font-family="Times,serif" font-size="14.00">S:Publish</text>
<text text-anchor="middle" x="301.5" y="-359.2" font-family="Times,serif" font-size="14.00">cyphertext</text>
</g>
<!-- audit_or_cast -->
<g id="node7" class="node">
<title>audit_or_cast</title>
<path fill="#66ddff" stroke="black" d="M124.12,-260C124.12,-260 27.88,-260 27.88,-260 21.88,-260 15.88,-254 15.88,-248 15.88,-248 15.88,-231 15.88,-231 15.88,-225 21.88,-219 27.88,-219 27.88,-219 124.12,-219 124.12,-219 130.12,-219 136.12,-225 136.12,-231 136.12,-231 136.12,-248 136.12,-248 136.12,-254 130.12,-260 124.12,-260"/>
<text text-anchor="middle" x="76" y="-242.7" font-family="Times,serif" font-size="14.00">Benaloh challenge:</text>
<text text-anchor="middle" x="76" y="-226.2" font-family="Times,serif" font-size="14.00">audit or cast?</text>
</g>
<!-- confirm_onchain&#45;&gt;audit_or_cast -->
<g id="edge4" class="edge">
<title>confirm_onchain&#45;&gt;audit_or_cast</title>
<path fill="none" stroke="black" d="M125.4,-296.53C117.86,-287.98 108.92,-277.84 100.73,-268.55"/>
<polygon fill="black" stroke="black" points="103.72,-266.52 94.49,-261.33 98.47,-271.15 103.72,-266.52"/>
</g>
<!-- tmp1 -->
<!-- audit_or_cast&#45;&gt;tmp1 -->
<g id="edge5" class="edge">
<title>audit_or_cast&#45;&gt;tmp1</title>
<path fill="none" stroke="black" d="M136.42,-239.5C155.08,-239.5 173.87,-239.5 185.92,-239.5"/>
<polygon fill="black" stroke="black" points="185.82,-243 195.82,-239.5 185.82,-236 185.82,-243"/>
<text text-anchor="middle" x="166.66" y="-245.7" font-family="Times,serif" font-size="14.00">V:Audit</text>
</g>
<!-- tmp2 -->
<!-- audit_or_cast&#45;&gt;tmp2 -->
<g id="edge8" class="edge">
<title>audit_or_cast&#45;&gt;tmp2</title>
<path fill="none" stroke="black" d="M76,-218.57C76,-195.35 76,-157.77 76,-138.78"/>
<polygon fill="black" stroke="black" points="79.5,-139.05 76,-129.05 72.5,-139.05 79.5,-139.05"/>
<text text-anchor="middle" x="94.38" y="-165.2" font-family="Times,serif" font-size="14.00">V:Cast</text>
</g>
<!-- decrypt_ballot -->
<g id="node8" class="node">
<title>decrypt_ballot</title>
<path fill="#66ddff" stroke="black" d="M396.12,-260C396.12,-260 281.88,-260 281.88,-260 275.88,-260 269.88,-254 269.88,-248 269.88,-248 269.88,-231 269.88,-231 269.88,-225 275.88,-219 281.88,-219 281.88,-219 396.12,-219 396.12,-219 402.12,-219 408.12,-225 408.12,-231 408.12,-231 408.12,-248 408.12,-248 408.12,-254 402.12,-260 396.12,-260"/>
<text text-anchor="middle" x="339" y="-242.7" font-family="Times,serif" font-size="14.00">Decrypt &amp; check:</text>
<text text-anchor="middle" x="339" y="-226.2" font-family="Times,serif" font-size="14.00">does ballot look right?</text>
</g>
<!-- decrypt_ballot&#45;&gt;id_check -->
<g id="edge10" class="edge">
<title>decrypt_ballot&#45;&gt;id_check</title>
<path fill="none" stroke="black" d="M316.96,-218.79C302.07,-203.02 287.12,-180.55 299,-162 306.48,-150.32 318.95,-142.48 331.65,-137.25"/>
<polygon fill="black" stroke="black" points="332.58,-140.28 340.79,-133.59 330.2,-133.69 332.58,-140.28"/>
<text text-anchor="middle" x="324.5" y="-165.2" font-family="Times,serif" font-size="14.00">V:Certify</text>
</g>
<!-- decrypt_ballot&#45;&gt;id_check -->
<g id="edge11" class="edge">
<title>decrypt_ballot&#45;&gt;id_check</title>
<path fill="none" stroke="black" d="M345.44,-218.57C351.2,-200.7 359.72,-174.33 366.13,-154.47"/>
<polygon fill="black" stroke="black" points="369.7,-155.79 369.45,-145.2 363.04,-153.64 369.7,-155.79"/>
<text text-anchor="middle" x="390.38" y="-165.2" font-family="Times,serif" font-size="14.00">V:Dispute</text>
</g>
<!-- tmp1&#45;&gt;decrypt_ballot -->
<g id="edge6" class="edge">
<title>tmp1&#45;&gt;decrypt_ballot</title>
<path fill="none" stroke="black" d="M200.98,-239.5C207.93,-239.5 232.24,-239.5 258.56,-239.5"/>
<polygon fill="black" stroke="black" points="258.52,-243 268.52,-239.5 258.52,-236 258.52,-243"/>
<text text-anchor="middle" x="235.34" y="-262.2" font-family="Times,serif" font-size="14.00">S:Publish</text>
<text text-anchor="middle" x="235.34" y="-245.7" font-family="Times,serif" font-size="14.00">nonce</text>
</g>
<!-- tmp2&#45;&gt;Leave -->
<g id="edge9" class="edge">
<title>tmp2&#45;&gt;Leave</title>
<path fill="none" stroke="black" d="M76,-123.7C76,-114.36 76,-56.94 76,-27.15"/>
<polygon fill="black" stroke="black" points="79.5,-27.29 76,-17.29 72.5,-27.29 79.5,-27.29"/>
<text text-anchor="middle" x="99.25" y="-54.2" font-family="Times,serif" font-size="14.00">S:Delete</text>
<text text-anchor="middle" x="99.25" y="-37.7" font-family="Times,serif" font-size="14.00">nonce</text>
</g>
</g>
</svg>
