<?xml version="1.0" encoding="UTF-8" standalone="no"?>
<!DOCTYPE svg PUBLIC "-//W3C//DTD SVG 1.1//EN"
 "http://www.w3.org/Graphics/SVG/1.1/DTD/svg11.dtd">
<!-- Generated by graphviz version 8.1.0 (20230707.0739)
 -->
<!-- Title: proposed_workflow Pages: 1 -->
<svg width="362pt" height="688pt"
 viewBox="0.00 0.00 362.00 687.50" xmlns="http://www.w3.org/2000/svg" xmlns:xlink="http://www.w3.org/1999/xlink">
<g id="graph0" class="graph" transform="scale(1 1) rotate(0) translate(4 683.5)">
<title>proposed_workflow</title>
<polygon fill="white" stroke="none" points="-4,4 -4,-683.5 358,-683.5 358,4 -4,4"/>
<g id="clust1" class="cluster">
<title>cluster_checkin</title>
<polygon fill="none" stroke="black" points="109,-8 109,-157.5 245,-157.5 245,-8 109,-8"/>
<text text-anchor="middle" x="177" y="-140.2" font-family="Times,serif" font-size="14.00">check&#45;in station</text>
</g>
<g id="clust2" class="cluster">
<title>cluster_votingbooth</title>
<polygon fill="none" stroke="black" points="128,-449 128,-671.5 310,-671.5 310,-449 128,-449"/>
<text text-anchor="middle" x="219" y="-654.2" font-family="Times,serif" font-size="14.00">voting booth</text>
</g>
<g id="clust3" class="cluster">
<title>cluster_phone</title>
<polygon fill="none" stroke="black" points="64,-192 64,-430 262,-430 262,-192 64,-192"/>
<text text-anchor="middle" x="163" y="-412.7" font-family="Times,serif" font-size="14.00">voting app</text>
</g>
<!-- start -->
<g id="node1" class="node">
<title>start</title>
<ellipse fill="none" stroke="black" cx="27" cy="-218" rx="27" ry="18"/>
<text text-anchor="middle" x="27" y="-212.95" font-family="Times,serif" font-size="14.00">start</text>
</g>
<!-- id_check -->
<g id="node2" class="node">
<title>id_check</title>
<ellipse fill="none" stroke="black" cx="169" cy="-107" rx="44.19" ry="18"/>
<text text-anchor="middle" x="169" y="-101.95" font-family="Times,serif" font-size="14.00">id_check</text>
</g>
<!-- start&#45;&gt;id_check -->
<g id="edge1" class="edge">
<title>start&#45;&gt;id_check</title>
<path fill="none" stroke="black" d="M44.13,-203.85C68.06,-185.48 111.8,-151.9 140.64,-129.77"/>
<polygon fill="black" stroke="black" points="142.27,-132.16 148.07,-123.3 138.01,-126.61 142.27,-132.16"/>
</g>
<!-- mint_vip_nft -->
<g id="node3" class="node">
<title>mint_vip_nft</title>
<ellipse fill="none" stroke="black" cx="177" cy="-34" rx="59.54" ry="18"/>
<text text-anchor="middle" x="177" y="-28.95" font-family="Times,serif" font-size="14.00">mint_vip_nft</text>
</g>
<!-- id_check&#45;&gt;mint_vip_nft -->
<g id="edge2" class="edge">
<title>id_check&#45;&gt;mint_vip_nft</title>
<path fill="none" stroke="black" d="M170.94,-88.81C171.81,-81.05 172.87,-71.68 173.85,-62.95"/>
<polygon fill="black" stroke="black" points="177.44,-63.36 175.08,-53.03 170.48,-62.57 177.44,-63.36"/>
</g>
<!-- fill_out_ballot -->
<g id="node4" class="node">
<title>fill_out_ballot</title>
<ellipse fill="none" stroke="black" cx="229" cy="-621" rx="63.63" ry="18"/>
<text text-anchor="middle" x="229" y="-615.95" font-family="Times,serif" font-size="14.00">fill_out_ballot</text>
</g>
<!-- mint_vip_nft&#45;&gt;fill_out_ballot -->
<g id="edge7" class="edge">
<title>mint_vip_nft&#45;&gt;fill_out_ballot</title>
<path fill="none" stroke="black" d="M236.43,-35.36C287.85,-39.19 354,-54.18 354,-106 354,-549 354,-549 354,-549 354,-580.39 323.82,-598.08 293.12,-607.94"/>
<polygon fill="black" stroke="black" points="292.34,-604.82 283.74,-611 294.32,-611.54 292.34,-604.82"/>
</g>
<!-- scan_submit_ballot -->
<g id="node5" class="node">
<title>scan_submit_ballot</title>
<ellipse fill="none" stroke="black" cx="219" cy="-548" rx="83.08" ry="18"/>
<text text-anchor="middle" x="219" y="-542.95" font-family="Times,serif" font-size="14.00">scan_submit_ballot</text>
</g>
<!-- fill_out_ballot&#45;&gt;scan_submit_ballot -->
<g id="edge3" class="edge">
<title>fill_out_ballot&#45;&gt;scan_submit_ballot</title>
<path fill="none" stroke="black" d="M226.58,-602.81C225.47,-594.96 224.14,-585.47 222.9,-576.66"/>
<polygon fill="black" stroke="black" points="226.26,-576.44 221.4,-567.03 219.33,-577.42 226.26,-576.44"/>
</g>
<!-- take_qrcode -->
<g id="node6" class="node">
<title>take_qrcode</title>
<ellipse fill="none" stroke="black" cx="205" cy="-475" rx="55.96" ry="18"/>
<text text-anchor="middle" x="205" y="-469.95" font-family="Times,serif" font-size="14.00">take_qrcode</text>
</g>
<!-- scan_submit_ballot&#45;&gt;take_qrcode -->
<g id="edge4" class="edge">
<title>scan_submit_ballot&#45;&gt;take_qrcode</title>
<path fill="none" stroke="black" d="M215.61,-529.81C214.06,-521.96 212.19,-512.47 210.45,-503.66"/>
<polygon fill="black" stroke="black" points="213.73,-503.16 208.36,-494.03 206.86,-504.52 213.73,-503.16"/>
</g>
<!-- confirm_hash -->
<g id="node7" class="node">
<title>confirm_hash</title>
<ellipse fill="none" stroke="black" cx="180" cy="-379.5" rx="62.1" ry="18"/>
<text text-anchor="middle" x="180" y="-374.45" font-family="Times,serif" font-size="14.00">confirm_hash</text>
</g>
<!-- take_qrcode&#45;&gt;confirm_hash -->
<g id="edge5" class="edge">
<title>take_qrcode&#45;&gt;confirm_hash</title>
<path fill="none" stroke="black" d="M200.41,-456.85C196.77,-443.23 191.61,-423.91 187.38,-408.12"/>
<polygon fill="black" stroke="black" points="190.61,-407.61 184.64,-398.86 183.84,-409.42 190.61,-407.61"/>
</g>
<!-- audit_or_cast -->
<g id="node8" class="node">
<title>audit_or_cast</title>
<polygon fill="none" stroke="black" points="168,-324.5 82.35,-306.5 168,-288.5 253.65,-306.5 168,-324.5"/>
<text text-anchor="middle" x="168" y="-301.45" font-family="Times,serif" font-size="14.00">audit_or_cast</text>
</g>
<!-- confirm_hash&#45;&gt;audit_or_cast -->
<g id="edge6" class="edge">
<title>confirm_hash&#45;&gt;audit_or_cast</title>
<path fill="none" stroke="black" d="M177.1,-361.31C175.75,-353.35 174.12,-343.69 172.61,-334.77"/>
<polygon fill="black" stroke="black" points="175.91,-334.32 170.8,-325.04 169.01,-335.48 175.91,-334.32"/>
</g>
<!-- decrypt_ballot -->
<g id="node9" class="node">
<title>decrypt_ballot</title>
<polygon fill="none" stroke="black" points="163,-236 72.28,-218 163,-200 253.72,-218 163,-236"/>
<text text-anchor="middle" x="163" y="-212.95" font-family="Times,serif" font-size="14.00">decrypt_ballot</text>
</g>
<!-- audit_or_cast&#45;&gt;decrypt_ballot -->
<g id="edge9" class="edge">
<title>audit_or_cast&#45;&gt;decrypt_ballot</title>
<path fill="none" stroke="black" d="M167.01,-288.41C166.33,-276.56 165.4,-260.52 164.61,-246.84"/>
<polygon fill="black" stroke="black" points="168.06,-246.84 163.99,-237.05 161.07,-247.24 168.06,-246.84"/>
<text text-anchor="middle" x="178.5" y="-257.2" font-family="Times,serif" font-size="14.00">audit</text>
</g>
<!-- end -->
<g id="node10" class="node">
<title>end</title>
<ellipse fill="none" stroke="black" cx="299" cy="-218" rx="27" ry="18"/>
<text text-anchor="middle" x="299" y="-212.95" font-family="Times,serif" font-size="14.00">end</text>
</g>
<!-- audit_or_cast&#45;&gt;end -->
<g id="edge8" class="edge">
<title>audit_or_cast&#45;&gt;end</title>
<path fill="none" stroke="black" d="M187.9,-292.36C210.11,-277.69 246.22,-253.85 271.21,-237.35"/>
<polygon fill="black" stroke="black" points="272.78,-239.85 279.19,-231.42 268.92,-234.01 272.78,-239.85"/>
<text text-anchor="middle" x="255.5" y="-257.2" font-family="Times,serif" font-size="14.00">cast</text>
</g>
<!-- decrypt_ballot&#45;&gt;id_check -->
<g id="edge10" class="edge">
<title>decrypt_ballot&#45;&gt;id_check</title>
<path fill="none" stroke="black" d="M147.81,-202.73C142.62,-196.87 137.45,-189.66 134.75,-182 132.31,-175.09 132.8,-172.57 134.75,-165.5 137.85,-154.24 143.79,-142.96 149.87,-133.41"/>
<polygon fill="black" stroke="black" points="153.19,-135.75 155.89,-125.5 147.39,-131.83 153.19,-135.75"/>
<text text-anchor="middle" x="151.62" y="-168.7" font-family="Times,serif" font-size="14.00">certify</text>
</g>
<!-- decrypt_ballot&#45;&gt;id_check -->
<g id="edge11" class="edge">
<title>decrypt_ballot&#45;&gt;id_check</title>
<path fill="none" stroke="black" d="M167.02,-200.37C168.24,-194.59 169.4,-188.04 170,-182 171.49,-166.92 171.4,-150.02 170.86,-136.19"/>
<polygon fill="black" stroke="black" points="174.32,-136.21 170.33,-126.39 167.33,-136.55 174.32,-136.21"/>
<text text-anchor="middle" x="190.5" y="-168.7" font-family="Times,serif" font-size="14.00">dispute</text>
</g>
</g>
</svg>
