<?xml version="1.0" encoding="UTF-8" standalone="no"?>
<!DOCTYPE svg PUBLIC "-//W3C//DTD SVG 1.1//EN"
 "http://www.w3.org/Graphics/SVG/1.1/DTD/svg11.dtd">
<!-- Generated by graphviz version 8.1.0 (20230707.0739)
 -->
<!-- Title: proposed_workflow Pages: 1 -->
<svg width="501pt" height="565pt"
 viewBox="0.00 0.00 500.50 564.50" xmlns="http://www.w3.org/2000/svg" xmlns:xlink="http://www.w3.org/1999/xlink">
<g id="graph0" class="graph" transform="scale(1 1) rotate(0) translate(4 560.5)">
<title>proposed_workflow</title>
<g id="clust1" class="cluster">
<title>cluster_checkin</title>
<polygon fill="#fbeee0" stroke="black" points="306,-77.5 306,-154 413,-154 413,-77.5 306,-77.5"/>
<text text-anchor="middle" x="359.5" y="-136.7" font-family="Times,serif" font-size="14.00">Check&#45;in Station</text>
</g>
<g id="clust2" class="cluster">
<title>cluster_votingbooth</title>
<polygon fill="#fbeee0" stroke="black" points="264,-399 264,-548.5 414,-548.5 414,-399 264,-399"/>
<text text-anchor="middle" x="339" y="-531.2" font-family="Times,serif" font-size="14.00">Voting Booth</text>
</g>
<g id="clust3" class="cluster">
<title>cluster_app</title>
<polygon fill="#fbeee0" stroke="black" points="8,-188.5 8,-348 411,-348 411,-188.5 8,-188.5"/>
<text text-anchor="middle" x="209.5" y="-330.7" font-family="Times,serif" font-size="14.00">Trusted Voting App</text>
</g>
<!-- enter -->
<g id="node1" class="node">
<title>enter</title>
<path fill="none" stroke="none" d="M487,-225.25C487,-225.25 471,-225.25 471,-225.25 468.25,-225.25 465.5,-222.5 465.5,-219.75 465.5,-219.75 465.5,-214.25 465.5,-214.25 465.5,-211.5 468.25,-208.75 471,-208.75 471,-208.75 487,-208.75 487,-208.75 489.75,-208.75 492.5,-211.5 492.5,-214.25 492.5,-214.25 492.5,-219.75 492.5,-219.75 492.5,-222.5 489.75,-225.25 487,-225.25"/>
<text text-anchor="middle" x="479" y="-211.95" font-family="Times,serif" font-size="14.00">enter</text>
</g>
<!-- id_check -->
<g id="node3" class="node">
<title>id_check</title>
<path fill="lightgreen" stroke="black" d="M391.75,-121.5C391.75,-121.5 350.25,-121.5 350.25,-121.5 344.25,-121.5 338.25,-115.5 338.25,-109.5 338.25,-109.5 338.25,-97.5 338.25,-97.5 338.25,-91.5 344.25,-85.5 350.25,-85.5 350.25,-85.5 391.75,-85.5 391.75,-85.5 397.75,-85.5 403.75,-91.5 403.75,-97.5 403.75,-97.5 403.75,-109.5 403.75,-109.5 403.75,-115.5 397.75,-121.5 391.75,-121.5"/>
<text text-anchor="middle" x="371" y="-98.45" font-family="Times,serif" font-size="14.00">ID check</text>
</g>
<!-- enter&#45;&gt;id_check -->
<g id="edge1" class="edge">
<title>enter&#45;&gt;id_check</title>
<path fill="none" stroke="black" d="M476.62,-209.08C472.61,-198.16 463.71,-176.7 451,-162 439.62,-148.84 424.65,-137.06 410.75,-127.64"/>
<polygon fill="black" stroke="black" points="413.1,-124.34 402.81,-121.8 409.27,-130.2 413.1,-124.34"/>
</g>
<!-- leave -->
<g id="node2" class="node">
<title>leave</title>
<path fill="none" stroke="none" d="M84.75,-16.5C84.75,-16.5 67.25,-16.5 67.25,-16.5 64.5,-16.5 61.75,-13.75 61.75,-11 61.75,-11 61.75,-5.5 61.75,-5.5 61.75,-2.75 64.5,0 67.25,0 67.25,0 84.75,0 84.75,0 87.5,0 90.25,-2.75 90.25,-5.5 90.25,-5.5 90.25,-11 90.25,-11 90.25,-13.75 87.5,-16.5 84.75,-16.5"/>
<text text-anchor="middle" x="76" y="-3.2" font-family="Times,serif" font-size="14.00">leave</text>
</g>
<!-- fill_out_ballot -->
<g id="node4" class="node">
<title>fill_out_ballot</title>
<path fill="lightgreen" stroke="black" d="M392,-516C392,-516 292,-516 292,-516 286,-516 280,-510 280,-504 280,-504 280,-492 280,-492 280,-486 286,-480 292,-480 292,-480 392,-480 392,-480 398,-480 404,-486 404,-492 404,-492 404,-504 404,-504 404,-510 398,-516 392,-516"/>
<text text-anchor="middle" x="342" y="-492.95" font-family="Times,serif" font-size="14.00">Fill out paper ballot</text>
</g>
<!-- id_check&#45;&gt;fill_out_ballot -->
<g id="edge7" class="edge">
<title>id_check&#45;&gt;fill_out_ballot</title>
<path fill="none" stroke="black" d="M389.38,-121.94C408.91,-142.43 437,-178.43 437,-216 437,-426 437,-426 437,-426 437,-447.4 421.34,-463.13 402.74,-474.26"/>
<polygon fill="black" stroke="black" points="401.21,-471.65 394.12,-479.52 404.57,-477.79 401.21,-471.65"/>
<text text-anchor="middle" x="461.38" y="-298.2" font-family="Times,serif" font-size="14.00">S:vote in</text>
<text text-anchor="middle" x="461.38" y="-281.7" font-family="Times,serif" font-size="14.00">progress</text>
</g>
<!-- submit_ballot -->
<g id="node5" class="node">
<title>submit_ballot</title>
<path fill="lightgreen" stroke="black" d="M393.5,-443C393.5,-443 284.5,-443 284.5,-443 278.5,-443 272.5,-437 272.5,-431 272.5,-431 272.5,-419 272.5,-419 272.5,-413 278.5,-407 284.5,-407 284.5,-407 393.5,-407 393.5,-407 399.5,-407 405.5,-413 405.5,-419 405.5,-419 405.5,-431 405.5,-431 405.5,-437 399.5,-443 393.5,-443"/>
<text text-anchor="middle" x="339" y="-419.95" font-family="Times,serif" font-size="14.00">Scan &amp; submit ballot</text>
</g>
<!-- fill_out_ballot&#45;&gt;submit_ballot -->
<g id="edge2" class="edge">
<title>fill_out_ballot&#45;&gt;submit_ballot</title>
<path fill="none" stroke="black" d="M341.27,-479.81C340.95,-472.05 340.55,-462.68 340.18,-453.95"/>
<polygon fill="black" stroke="black" points="343.64,-453.87 339.72,-444.03 336.64,-454.17 343.64,-453.87"/>
</g>
<!-- confirm_onchain -->
<g id="node6" class="node">
<title>confirm_onchain</title>
<path fill="#66ddff" stroke="black" d="M184.5,-315.5C184.5,-315.5 99.5,-315.5 99.5,-315.5 93.5,-315.5 87.5,-309.5 87.5,-303.5 87.5,-303.5 87.5,-286.5 87.5,-286.5 87.5,-280.5 93.5,-274.5 99.5,-274.5 99.5,-274.5 184.5,-274.5 184.5,-274.5 190.5,-274.5 196.5,-280.5 196.5,-286.5 196.5,-286.5 196.5,-303.5 196.5,-303.5 196.5,-309.5 190.5,-315.5 184.5,-315.5"/>
<text text-anchor="middle" x="142" y="-298.2" font-family="Times,serif" font-size="14.00">Scan QR code &amp;</text>
<text text-anchor="middle" x="142" y="-281.7" font-family="Times,serif" font-size="14.00">find ciphertext</text>
</g>
<!-- submit_ballot&#45;&gt;confirm_onchain -->
<g id="edge3" class="edge">
<title>submit_ballot&#45;&gt;confirm_onchain</title>
<path fill="none" stroke="black" d="M312.43,-406.74C278.79,-384.88 220.53,-347.03 181.63,-321.75"/>
<polygon fill="black" stroke="black" points="183.96,-318.44 173.67,-315.93 180.15,-324.31 183.96,-318.44"/>
<text text-anchor="middle" x="308.5" y="-375.7" font-family="Times,serif" font-size="14.00">S:publish</text>
<text text-anchor="middle" x="308.5" y="-359.2" font-family="Times,serif" font-size="14.00">cyphertext</text>
</g>
<!-- audit_or_cast -->
<g id="node7" class="node">
<title>audit_or_cast</title>
<path fill="#66ddff" stroke="black" d="M124.12,-237.5C124.12,-237.5 27.88,-237.5 27.88,-237.5 21.88,-237.5 15.88,-231.5 15.88,-225.5 15.88,-225.5 15.88,-208.5 15.88,-208.5 15.88,-202.5 21.88,-196.5 27.88,-196.5 27.88,-196.5 124.12,-196.5 124.12,-196.5 130.12,-196.5 136.12,-202.5 136.12,-208.5 136.12,-208.5 136.12,-225.5 136.12,-225.5 136.12,-231.5 130.12,-237.5 124.12,-237.5"/>
<text text-anchor="middle" x="76" y="-220.2" font-family="Times,serif" font-size="14.00">Benaloh challenge:</text>
<text text-anchor="middle" x="76" y="-203.7" font-family="Times,serif" font-size="14.00">audit or cast?</text>
</g>
<!-- confirm_onchain&#45;&gt;audit_or_cast -->
<g id="edge4" class="edge">
<title>confirm_onchain&#45;&gt;audit_or_cast</title>
<path fill="none" stroke="black" d="M124.66,-274.03C117.23,-265.48 108.43,-255.34 100.36,-246.05"/>
<polygon fill="black" stroke="black" points="102.42,-244.09 93.22,-238.83 97.14,-248.68 102.42,-244.09"/>
</g>
<!-- tmp1 -->
<!-- audit_or_cast&#45;&gt;tmp1 -->
<g id="edge5" class="edge">
<title>audit_or_cast&#45;&gt;tmp1</title>
<path fill="none" stroke="black" d="M136.55,-217C153.79,-217 170.92,-217 182.14,-217"/>
<polygon fill="black" stroke="black" points="181.98,-220.5 191.98,-217 181.98,-213.5 181.98,-220.5"/>
<text text-anchor="middle" x="164.66" y="-223.2" font-family="Times,serif" font-size="14.00">V:audit</text>
</g>
<!-- tmp2 -->
<!-- audit_or_cast&#45;&gt;tmp2 -->
<g id="edge8" class="edge">
<title>audit_or_cast&#45;&gt;tmp2</title>
<path fill="none" stroke="black" d="M76,-196.07C76,-172.85 76,-135.27 76,-116.28"/>
<polygon fill="black" stroke="black" points="79.5,-116.55 76,-106.55 72.5,-116.55 79.5,-116.55"/>
<text text-anchor="middle" x="92.88" y="-165.2" font-family="Times,serif" font-size="14.00">V:cast</text>
</g>
<!-- decrypt_ballot -->
<g id="node8" class="node">
<title>decrypt_ballot</title>
<path fill="#66ddff" stroke="black" d="M391.12,-237.5C391.12,-237.5 276.88,-237.5 276.88,-237.5 270.88,-237.5 264.88,-231.5 264.88,-225.5 264.88,-225.5 264.88,-208.5 264.88,-208.5 264.88,-202.5 270.88,-196.5 276.88,-196.5 276.88,-196.5 391.12,-196.5 391.12,-196.5 397.12,-196.5 403.12,-202.5 403.12,-208.5 403.12,-208.5 403.12,-225.5 403.12,-225.5 403.12,-231.5 397.12,-237.5 391.12,-237.5"/>
<text text-anchor="middle" x="334" y="-220.2" font-family="Times,serif" font-size="14.00">Decrypt and check:</text>
<text text-anchor="middle" x="334" y="-203.7" font-family="Times,serif" font-size="14.00">does ballot look right?</text>
</g>
<!-- decrypt_ballot&#45;&gt;id_check -->
<g id="edge10" class="edge">
<title>decrypt_ballot&#45;&gt;id_check</title>
<path fill="none" stroke="black" d="M310.11,-196.13C301.16,-186.19 294.37,-173.8 300,-162 306.42,-148.54 317.7,-137.21 329.41,-128.26"/>
<polygon fill="black" stroke="black" points="331.25,-130.53 337.37,-121.88 327.19,-124.83 331.25,-130.53"/>
<text text-anchor="middle" x="324" y="-165.2" font-family="Times,serif" font-size="14.00">V:certify</text>
</g>
<!-- decrypt_ballot&#45;&gt;id_check -->
<g id="edge11" class="edge">
<title>decrypt_ballot&#45;&gt;id_check</title>
<path fill="none" stroke="black" d="M341.62,-196.22C343.75,-190.53 346.02,-184.29 348,-178.5 353.18,-163.33 358.52,-146.25 362.75,-132.33"/>
<polygon fill="black" stroke="black" points="366.35,-133.52 365.88,-122.93 359.65,-131.5 366.35,-133.52"/>
<text text-anchor="middle" x="378.88" y="-165.2" font-family="Times,serif" font-size="14.00">V:dispute</text>
</g>
<!-- tmp1&#45;&gt;decrypt_ballot -->
<g id="edge6" class="edge">
<title>tmp1&#45;&gt;decrypt_ballot</title>
<path fill="none" stroke="black" d="M196.96,-217C203.84,-217 227.8,-217 253.81,-217"/>
<polygon fill="black" stroke="black" points="253.64,-220.5 263.64,-217 253.64,-213.5 253.64,-220.5"/>
<text text-anchor="middle" x="230.84" y="-239.7" font-family="Times,serif" font-size="14.00">S:publish</text>
<text text-anchor="middle" x="230.84" y="-223.2" font-family="Times,serif" font-size="14.00">nonce</text>
</g>
<!-- tmp2&#45;&gt;leave -->
<g id="edge9" class="edge">
<title>tmp2&#45;&gt;leave</title>
<path fill="none" stroke="black" d="M76,-101.45C76,-94.26 76,-51.76 76,-27.04"/>
<polygon fill="black" stroke="black" points="79.5,-27.3 76,-17.3 72.5,-27.3 79.5,-27.3"/>
<text text-anchor="middle" x="97.75" y="-54.2" font-family="Times,serif" font-size="14.00">S:delete</text>
<text text-anchor="middle" x="97.75" y="-37.7" font-family="Times,serif" font-size="14.00">nonce</text>
</g>
</g>
</svg>
