<?xml version="1.0" encoding="UTF-8" standalone="no"?>
<!DOCTYPE svg PUBLIC "-//W3C//DTD SVG 1.1//EN"
 "http://www.w3.org/Graphics/SVG/1.1/DTD/svg11.dtd">
<!-- Generated by graphviz version 8.1.0 (20230707.0739)
 -->
<!-- Title: proposed_workflow Pages: 1 -->
<svg width="438pt" height="654pt"
 viewBox="0.00 0.00 438.00 653.50" xmlns="http://www.w3.org/2000/svg" xmlns:xlink="http://www.w3.org/1999/xlink">
<g id="graph0" class="graph" transform="scale(1 1) rotate(0) translate(4 649.5)">
<title>proposed_workflow</title>
<polygon fill="white" stroke="none" points="-4,4 -4,-649.5 434,-649.5 434,4 -4,4"/>
<g id="clust1" class="cluster">
<title>cluster_checkin</title>
<polygon fill="none" stroke="black" points="50,-506 50,-582.5 154,-582.5 154,-506 50,-506"/>
<text text-anchor="middle" x="102" y="-565.2" font-family="Times,serif" font-size="14.00">check&#45;in station</text>
</g>
<g id="clust2" class="cluster">
<title>cluster_votingbooth</title>
<polygon fill="none" stroke="black" points="15,-249 15,-487 189,-487 189,-249 15,-249"/>
<text text-anchor="middle" x="102" y="-469.7" font-family="Times,serif" font-size="14.00">voting booth</text>
</g>
<g id="clust3" class="cluster">
<title>cluster_phone</title>
<polygon fill="none" stroke="black" points="8,-80.5 8,-230 422,-230 422,-80.5 8,-80.5"/>
<text text-anchor="middle" x="215" y="-212.7" font-family="Times,serif" font-size="14.00">voting app</text>
</g>
<!-- start -->
<g id="node1" class="node">
<title>start</title>
<ellipse fill="none" stroke="black" cx="102" cy="-627.5" rx="27" ry="18"/>
<text text-anchor="middle" x="102" y="-622.45" font-family="Times,serif" font-size="14.00">start</text>
</g>
<!-- id_check -->
<g id="node2" class="node">
<title>id_check</title>
<ellipse fill="none" stroke="black" cx="102" cy="-532" rx="44.19" ry="18"/>
<text text-anchor="middle" x="102" y="-526.95" font-family="Times,serif" font-size="14.00">id_check</text>
</g>
<!-- start&#45;&gt;id_check -->
<g id="edge1" class="edge">
<title>start&#45;&gt;id_check</title>
<path fill="none" stroke="black" d="M102,-609.35C102,-595.86 102,-576.78 102,-561.07"/>
<polygon fill="black" stroke="black" points="105.5,-561.36 102,-551.36 98.5,-561.36 105.5,-561.36"/>
</g>
<!-- fill_out_ballot -->
<g id="node3" class="node">
<title>fill_out_ballot</title>
<ellipse fill="none" stroke="black" cx="102" cy="-436.5" rx="63.63" ry="18"/>
<text text-anchor="middle" x="102" y="-431.45" font-family="Times,serif" font-size="14.00">fill_out_ballot</text>
</g>
<!-- id_check&#45;&gt;fill_out_ballot -->
<g id="edge7" class="edge">
<title>id_check&#45;&gt;fill_out_ballot</title>
<path fill="none" stroke="black" d="M102,-513.85C102,-500.36 102,-481.28 102,-465.57"/>
<polygon fill="black" stroke="black" points="105.5,-465.86 102,-455.86 98.5,-465.86 105.5,-465.86"/>
</g>
<!-- submit_ballot -->
<g id="node4" class="node">
<title>submit_ballot</title>
<ellipse fill="none" stroke="black" cx="102" cy="-363.5" rx="62.1" ry="18"/>
<text text-anchor="middle" x="102" y="-358.45" font-family="Times,serif" font-size="14.00">submit_ballot</text>
</g>
<!-- fill_out_ballot&#45;&gt;submit_ballot -->
<g id="edge2" class="edge">
<title>fill_out_ballot&#45;&gt;submit_ballot</title>
<path fill="none" stroke="black" d="M102,-418.31C102,-410.55 102,-401.18 102,-392.45"/>
<polygon fill="black" stroke="black" points="105.5,-392.53 102,-382.53 98.5,-392.53 105.5,-392.53"/>
</g>
<!-- take_confirmation -->
<g id="node5" class="node">
<title>take_confirmation</title>
<ellipse fill="none" stroke="black" cx="102" cy="-275" rx="78.99" ry="18"/>
<text text-anchor="middle" x="102" y="-269.95" font-family="Times,serif" font-size="14.00">take_confirmation</text>
</g>
<!-- submit_ballot&#45;&gt;take_confirmation -->
<g id="edge3" class="edge">
<title>submit_ballot&#45;&gt;take_confirmation</title>
<path fill="none" stroke="black" d="M102,-345.41C102,-333.64 102,-317.73 102,-304.11"/>
<polygon fill="black" stroke="black" points="105.5,-304.35 102,-294.35 98.5,-304.35 105.5,-304.35"/>
</g>
<!-- confirm_hash -->
<g id="node6" class="node">
<title>confirm_hash</title>
<ellipse fill="none" stroke="black" cx="102" cy="-179.5" rx="62.1" ry="18"/>
<text text-anchor="middle" x="102" y="-174.45" font-family="Times,serif" font-size="14.00">confirm_hash</text>
</g>
<!-- take_confirmation&#45;&gt;confirm_hash -->
<g id="edge4" class="edge">
<title>take_confirmation&#45;&gt;confirm_hash</title>
<path fill="none" stroke="black" d="M102,-256.85C102,-243.36 102,-224.28 102,-208.57"/>
<polygon fill="black" stroke="black" points="105.5,-208.86 102,-198.86 98.5,-208.86 105.5,-208.86"/>
</g>
<!-- audit_or_cast -->
<g id="node7" class="node">
<title>audit_or_cast</title>
<polygon fill="none" stroke="black" points="102,-124.5 16.35,-106.5 102,-88.5 187.65,-106.5 102,-124.5"/>
<text text-anchor="middle" x="102" y="-101.45" font-family="Times,serif" font-size="14.00">audit_or_cast</text>
</g>
<!-- confirm_hash&#45;&gt;audit_or_cast -->
<g id="edge5" class="edge">
<title>confirm_hash&#45;&gt;audit_or_cast</title>
<path fill="none" stroke="black" d="M102,-161.31C102,-153.55 102,-144.18 102,-135.45"/>
<polygon fill="black" stroke="black" points="105.5,-135.53 102,-125.53 98.5,-135.53 105.5,-135.53"/>
</g>
<!-- decrypt_ballot -->
<g id="node8" class="node">
<title>decrypt_ballot</title>
<polygon fill="none" stroke="black" points="323,-124.5 232.28,-106.5 323,-88.5 413.72,-106.5 323,-124.5"/>
<text text-anchor="middle" x="323" y="-101.45" font-family="Times,serif" font-size="14.00">decrypt_ballot</text>
</g>
<!-- audit_or_cast&#45;&gt;decrypt_ballot -->
<g id="edge6" class="edge">
<title>audit_or_cast&#45;&gt;decrypt_ballot</title>
<path fill="none" stroke="black" d="M189.98,-106.5C199.51,-106.5 209.28,-106.5 218.98,-106.5"/>
<polygon fill="black" stroke="black" points="218.89,-110 228.89,-106.5 218.89,-103 218.89,-110"/>
<text text-anchor="middle" x="209.97" y="-112.7" font-family="Times,serif" font-size="14.00">audit</text>
</g>
<!-- end -->
<g id="node9" class="node">
<title>end</title>
<ellipse fill="none" stroke="black" cx="102" cy="-18" rx="27" ry="18"/>
<text text-anchor="middle" x="102" y="-12.95" font-family="Times,serif" font-size="14.00">end</text>
</g>
<!-- audit_or_cast&#45;&gt;end -->
<g id="edge8" class="edge">
<title>audit_or_cast&#45;&gt;end</title>
<path fill="none" stroke="black" d="M102,-88C102,-76.27 102,-60.58 102,-47.12"/>
<polygon fill="black" stroke="black" points="105.5,-47.48 102,-37.48 98.5,-47.48 105.5,-47.48"/>
<text text-anchor="middle" x="112.5" y="-57.2" font-family="Times,serif" font-size="14.00">cast</text>
</g>
<!-- decrypt_ballot&#45;&gt;id_check -->
<g id="edge9" class="edge">
<title>decrypt_ballot&#45;&gt;id_check</title>
<path fill="none" stroke="black" d="M271.08,-114.69C238.55,-120.38 200.98,-129.53 191,-142.5 162.13,-180.02 192.55,-201.66 193,-249 194,-354.77 249.21,-397.39 193,-487 183.42,-502.27 166.89,-512.36 150.52,-518.98"/>
<polygon fill="black" stroke="black" points="149.6,-515.96 141.41,-522.67 152,-522.53 149.6,-515.96"/>
<text text-anchor="middle" x="220.62" y="-314.2" font-family="Times,serif" font-size="14.00">certify</text>
</g>
<!-- decrypt_ballot&#45;&gt;id_check -->
<g id="edge10" class="edge">
<title>decrypt_ballot&#45;&gt;id_check</title>
<path fill="none" stroke="black" d="M323.11,-124.93C322.59,-183.28 313.39,-374.47 219,-487 202.93,-506.16 177.61,-516.99 154.64,-523.1"/>
<polygon fill="black" stroke="black" points="153.85,-519.93 144.94,-525.66 155.48,-526.74 153.85,-519.93"/>
<text text-anchor="middle" x="319.5" y="-314.2" font-family="Times,serif" font-size="14.00">dispute</text>
</g>
</g>
</svg>
