<?xml version="1.0" encoding="UTF-8" standalone="no"?>
<!DOCTYPE svg PUBLIC "-//W3C//DTD SVG 1.1//EN"
 "http://www.w3.org/Graphics/SVG/1.1/DTD/svg11.dtd">
<!-- Generated by graphviz version 8.1.0 (20230707.0739)
 -->
<!-- Title: proposed_workflow Pages: 1 -->
<svg width="426pt" height="555pt"
 viewBox="0.00 0.00 425.50 554.50" xmlns="http://www.w3.org/2000/svg" xmlns:xlink="http://www.w3.org/1999/xlink">
<g id="graph0" class="graph" transform="scale(1 1) rotate(0) translate(4 550.5)">
<title>proposed_workflow</title>
<g id="clust1" class="cluster">
<title>cluster_checkin</title>
<polygon fill="#fbeee0" stroke="black" points="233,-77.5 233,-154 335,-154 335,-77.5 233,-77.5"/>
<text text-anchor="middle" x="284" y="-136.7" font-family="Times,serif" font-size="14.00">check&#45;in station</text>
</g>
<g id="clust2" class="cluster">
<title>cluster_votingbooth</title>
<polygon fill="#fbeee0" stroke="black" points="198,-389 198,-538.5 308,-538.5 308,-389 198,-389"/>
<text text-anchor="middle" x="253" y="-521.2" font-family="Times,serif" font-size="14.00">voting booth</text>
</g>
<g id="clust3" class="cluster">
<title>cluster_phone</title>
<polygon fill="#fbeee0" stroke="black" points="8,-188.5 8,-338 336,-338 336,-188.5 8,-188.5"/>
<text text-anchor="middle" x="172" y="-320.7" font-family="Times,serif" font-size="14.00">voting app</text>
</g>
<!-- enter -->
<g id="node1" class="node">
<title>enter</title>
<path fill="none" stroke="none" d="M412,-222.75C412,-222.75 396,-222.75 396,-222.75 393.25,-222.75 390.5,-220 390.5,-217.25 390.5,-217.25 390.5,-211.75 390.5,-211.75 390.5,-209 393.25,-206.25 396,-206.25 396,-206.25 412,-206.25 412,-206.25 414.75,-206.25 417.5,-209 417.5,-211.75 417.5,-211.75 417.5,-217.25 417.5,-217.25 417.5,-220 414.75,-222.75 412,-222.75"/>
<text text-anchor="middle" x="404" y="-209.45" font-family="Times,serif" font-size="14.00">enter</text>
</g>
<!-- id_check -->
<g id="node3" class="node">
<title>id_check</title>
<path fill="lightgreen" stroke="black" d="M315.38,-121.5C315.38,-121.5 274.62,-121.5 274.62,-121.5 268.62,-121.5 262.62,-115.5 262.62,-109.5 262.62,-109.5 262.62,-97.5 262.62,-97.5 262.62,-91.5 268.62,-85.5 274.62,-85.5 274.62,-85.5 315.38,-85.5 315.38,-85.5 321.38,-85.5 327.38,-91.5 327.38,-97.5 327.38,-97.5 327.38,-109.5 327.38,-109.5 327.38,-115.5 321.38,-121.5 315.38,-121.5"/>
<text text-anchor="middle" x="295" y="-98.45" font-family="Times,serif" font-size="14.00">id_check</text>
</g>
<!-- enter&#45;&gt;id_check -->
<g id="edge1" class="edge">
<title>enter&#45;&gt;id_check</title>
<path fill="none" stroke="black" d="M401.42,-206.55C397.26,-196.04 388.29,-175.85 376,-162 364.36,-148.88 349.18,-137.11 335.11,-127.68"/>
<polygon fill="black" stroke="black" points="337.38,-124.33 327.08,-121.84 333.57,-130.21 337.38,-124.33"/>
</g>
<!-- leave -->
<g id="node2" class="node">
<title>leave</title>
<path fill="none" stroke="none" d="M68.75,-16.5C68.75,-16.5 51.25,-16.5 51.25,-16.5 48.5,-16.5 45.75,-13.75 45.75,-11 45.75,-11 45.75,-5.5 45.75,-5.5 45.75,-2.75 48.5,0 51.25,0 51.25,0 68.75,0 68.75,0 71.5,0 74.25,-2.75 74.25,-5.5 74.25,-5.5 74.25,-11 74.25,-11 74.25,-13.75 71.5,-16.5 68.75,-16.5"/>
<text text-anchor="middle" x="60" y="-3.2" font-family="Times,serif" font-size="14.00">leave</text>
</g>
<!-- fill_out_ballot -->
<g id="node4" class="node">
<title>fill_out_ballot</title>
<path fill="lightgreen" stroke="black" d="M287.62,-506C287.62,-506 218.38,-506 218.38,-506 212.38,-506 206.38,-500 206.38,-494 206.38,-494 206.38,-482 206.38,-482 206.38,-476 212.38,-470 218.38,-470 218.38,-470 287.62,-470 287.62,-470 293.62,-470 299.62,-476 299.62,-482 299.62,-482 299.62,-494 299.62,-494 299.62,-500 293.62,-506 287.62,-506"/>
<text text-anchor="middle" x="253" y="-482.95" font-family="Times,serif" font-size="14.00">fill_out_ballot</text>
</g>
<!-- id_check&#45;&gt;fill_out_ballot -->
<g id="edge7" class="edge">
<title>id_check&#45;&gt;fill_out_ballot</title>
<path fill="none" stroke="black" d="M314.02,-121.77C333.83,-141.74 362,-176.63 362,-213.5 362,-416 362,-416 362,-416 362,-444.04 336.37,-461.58 309.96,-472.21"/>
<polygon fill="black" stroke="black" points="309.02,-469.2 300.86,-475.95 311.45,-475.76 309.02,-469.2"/>
<text text-anchor="middle" x="376.25" y="-282.45" font-family="Times,serif" font-size="14.00">S:vip</text>
</g>
<!-- submit_ballot -->
<g id="node5" class="node">
<title>submit_ballot</title>
<path fill="lightgreen" stroke="black" d="M285.5,-433C285.5,-433 218.5,-433 218.5,-433 212.5,-433 206.5,-427 206.5,-421 206.5,-421 206.5,-409 206.5,-409 206.5,-403 212.5,-397 218.5,-397 218.5,-397 285.5,-397 285.5,-397 291.5,-397 297.5,-403 297.5,-409 297.5,-409 297.5,-421 297.5,-421 297.5,-427 291.5,-433 285.5,-433"/>
<text text-anchor="middle" x="252" y="-409.95" font-family="Times,serif" font-size="14.00">submit_ballot</text>
</g>
<!-- fill_out_ballot&#45;&gt;submit_ballot -->
<g id="edge2" class="edge">
<title>fill_out_ballot&#45;&gt;submit_ballot</title>
<path fill="none" stroke="black" d="M252.76,-469.81C252.65,-462.05 252.52,-452.68 252.39,-443.95"/>
<polygon fill="black" stroke="black" points="255.88,-443.98 252.24,-434.03 248.88,-444.08 255.88,-443.98"/>
</g>
<!-- confirm_onchain -->
<g id="node6" class="node">
<title>confirm_onchain</title>
<path fill="#66ddff" stroke="black" d="M213.5,-305.5C213.5,-305.5 128.5,-305.5 128.5,-305.5 122.5,-305.5 116.5,-299.5 116.5,-293.5 116.5,-293.5 116.5,-281.5 116.5,-281.5 116.5,-275.5 122.5,-269.5 128.5,-269.5 128.5,-269.5 213.5,-269.5 213.5,-269.5 219.5,-269.5 225.5,-275.5 225.5,-281.5 225.5,-281.5 225.5,-293.5 225.5,-293.5 225.5,-299.5 219.5,-305.5 213.5,-305.5"/>
<text text-anchor="middle" x="171" y="-282.45" font-family="Times,serif" font-size="14.00">confirm_onchain</text>
</g>
<!-- submit_ballot&#45;&gt;confirm_onchain -->
<g id="edge3" class="edge">
<title>submit_ballot&#45;&gt;confirm_onchain</title>
<path fill="none" stroke="black" d="M240.74,-396.55C227.08,-375.38 203.91,-339.49 188.06,-314.92"/>
<polygon fill="black" stroke="black" points="190.53,-313.31 182.17,-306.8 184.65,-317.1 190.53,-313.31"/>
<text text-anchor="middle" x="256.5" y="-365.7" font-family="Times,serif" font-size="14.00">S:publish</text>
<text text-anchor="middle" x="256.5" y="-349.2" font-family="Times,serif" font-size="14.00">cyphertext</text>
</g>
<!-- audit_or_cast -->
<g id="node7" class="node">
<title>audit_or_cast</title>
<path fill="#66ddff" stroke="black" d="M92.38,-232.5C92.38,-232.5 27.62,-232.5 27.62,-232.5 21.62,-232.5 15.62,-226.5 15.62,-220.5 15.62,-220.5 15.62,-208.5 15.62,-208.5 15.62,-202.5 21.62,-196.5 27.62,-196.5 27.62,-196.5 92.38,-196.5 92.38,-196.5 98.38,-196.5 104.38,-202.5 104.38,-208.5 104.38,-208.5 104.38,-220.5 104.38,-220.5 104.38,-226.5 98.38,-232.5 92.38,-232.5"/>
<text text-anchor="middle" x="60" y="-209.45" font-family="Times,serif" font-size="14.00">audit_or_cast</text>
</g>
<!-- confirm_onchain&#45;&gt;audit_or_cast -->
<g id="edge4" class="edge">
<title>confirm_onchain&#45;&gt;audit_or_cast</title>
<path fill="none" stroke="black" d="M143.85,-269.13C129.47,-259.93 111.62,-248.52 96.09,-238.58"/>
<polygon fill="black" stroke="black" points="98.57,-235.38 88.26,-232.94 94.8,-241.27 98.57,-235.38"/>
</g>
<!-- tmp1 -->
<!-- audit_or_cast&#45;&gt;tmp1 -->
<g id="edge5" class="edge">
<title>audit_or_cast&#45;&gt;tmp1</title>
<path fill="none" stroke="black" d="M104.71,-214.5C121.43,-214.5 139.18,-214.5 150.85,-214.5"/>
<polygon fill="black" stroke="black" points="150.85,-218 160.85,-214.5 150.85,-211 150.85,-218"/>
<text text-anchor="middle" x="133.29" y="-220.7" font-family="Times,serif" font-size="14.00">V:audit</text>
</g>
<!-- tmp2 -->
<!-- audit_or_cast&#45;&gt;tmp2 -->
<g id="edge8" class="edge">
<title>audit_or_cast&#45;&gt;tmp2</title>
<path fill="none" stroke="black" d="M60,-196.47C60,-174.17 60,-135.65 60,-116.3"/>
<polygon fill="black" stroke="black" points="63.5,-116.58 60,-106.58 56.5,-116.58 63.5,-116.58"/>
<text text-anchor="middle" x="76.88" y="-165.2" font-family="Times,serif" font-size="14.00">V:cast</text>
</g>
<!-- decrypt_ballot -->
<g id="node8" class="node">
<title>decrypt_ballot</title>
<path fill="#66ddff" stroke="black" d="M316,-232.5C316,-232.5 246,-232.5 246,-232.5 240,-232.5 234,-226.5 234,-220.5 234,-220.5 234,-208.5 234,-208.5 234,-202.5 240,-196.5 246,-196.5 246,-196.5 316,-196.5 316,-196.5 322,-196.5 328,-202.5 328,-208.5 328,-208.5 328,-220.5 328,-220.5 328,-226.5 322,-232.5 316,-232.5"/>
<text text-anchor="middle" x="281" y="-209.45" font-family="Times,serif" font-size="14.00">decrypt_ballot</text>
</g>
<!-- decrypt_ballot&#45;&gt;id_check -->
<g id="edge10" class="edge">
<title>decrypt_ballot&#45;&gt;id_check</title>
<path fill="none" stroke="black" d="M242.48,-196.11C228.97,-187.31 218.57,-175.61 225,-162 231.32,-148.63 242.44,-137.32 253.98,-128.37"/>
<polygon fill="black" stroke="black" points="255.76,-130.68 261.82,-121.99 251.67,-125.01 255.76,-130.68"/>
<text text-anchor="middle" x="249" y="-165.2" font-family="Times,serif" font-size="14.00">V:certify</text>
</g>
<!-- decrypt_ballot&#45;&gt;id_check -->
<g id="edge11" class="edge">
<title>decrypt_ballot&#45;&gt;id_check</title>
<path fill="none" stroke="black" d="M283.19,-196.47C285.38,-179.37 288.8,-152.74 291.4,-132.52"/>
<polygon fill="black" stroke="black" points="294.98,-133.14 292.78,-122.77 288.04,-132.24 294.98,-133.14"/>
<text text-anchor="middle" x="312.88" y="-165.2" font-family="Times,serif" font-size="14.00">V:dispute</text>
</g>
<!-- tmp1&#45;&gt;decrypt_ballot -->
<g id="edge6" class="edge">
<title>tmp1&#45;&gt;decrypt_ballot</title>
<path fill="none" stroke="black" d="M166.03,-214.5C173.17,-214.5 198.01,-214.5 222.78,-214.5"/>
<polygon fill="black" stroke="black" points="222.72,-218 232.72,-214.5 222.72,-211 222.72,-218"/>
<text text-anchor="middle" x="199.9" y="-237.2" font-family="Times,serif" font-size="14.00">S:publish</text>
<text text-anchor="middle" x="199.9" y="-220.7" font-family="Times,serif" font-size="14.00">nonce</text>
</g>
<!-- tmp2&#45;&gt;leave -->
<g id="edge9" class="edge">
<title>tmp2&#45;&gt;leave</title>
<path fill="none" stroke="black" d="M60,-101.45C60,-94.26 60,-51.76 60,-27.04"/>
<polygon fill="black" stroke="black" points="63.5,-27.3 60,-17.3 56.5,-27.3 63.5,-27.3"/>
<text text-anchor="middle" x="81.75" y="-54.2" font-family="Times,serif" font-size="14.00">S:delete</text>
<text text-anchor="middle" x="81.75" y="-37.7" font-family="Times,serif" font-size="14.00">nonce</text>
</g>
</g>
</svg>
