<?xml version="1.0" encoding="UTF-8" standalone="no"?>
<!DOCTYPE svg PUBLIC "-//W3C//DTD SVG 1.1//EN"
 "http://www.w3.org/Graphics/SVG/1.1/DTD/svg11.dtd">
<!-- Generated by graphviz version 8.1.0 (20230707.0739)
 -->
<!-- Title: implicit Pages: 1 -->
<svg width="95pt" height="293pt"
 viewBox="0.00 0.00 95.35 293.00" xmlns="http://www.w3.org/2000/svg" xmlns:xlink="http://www.w3.org/1999/xlink">
<g id="graph0" class="graph" transform="scale(1 1) rotate(0) translate(4 289)">
<title>implicit</title>
<!-- BigBank -->
<g id="node1" class="node">
<title>BigBank</title>
<ellipse fill="#a2cd5a" stroke="black" cx="43.67" cy="-267" rx="43.67" ry="18"/>
<text text-anchor="middle" x="43.67" y="-261.95" font-family="Times,serif" font-size="14.00">BigBank</text>
</g>
<!-- transfers:USD -->
<g id="node4" class="node">
<title>transfers:USD</title>
<polygon fill="none" stroke="none" points="82.3,-213 5.05,-213 5.05,-196.5 82.3,-196.5 82.3,-213"/>
<text text-anchor="middle" x="43.67" y="-199.7" font-family="Times,serif" font-size="14.00">transfers:USD</text>
</g>
<!-- BigBank&#45;&gt;transfers:USD -->
<g id="edge1" class="edge">
<title>BigBank&#45;&gt;transfers:USD</title>
<path fill="none" stroke="grey" d="M43.67,-237.62C43.67,-232.85 43.67,-228.01 43.67,-223.6"/>
<polygon fill="grey" stroke="grey" points="40.17,-237.57 43.67,-247.57 47.17,-237.57 40.17,-237.57"/>
<polygon fill="grey" stroke="grey" points="47.17,-223.69 43.67,-213.69 40.17,-223.69 47.17,-223.69"/>
</g>
<!-- MockEx -->
<g id="node2" class="node">
<title>MockEx</title>
<ellipse fill="cornflowerblue" stroke="black" cx="43.67" cy="-142.5" rx="43.16" ry="18"/>
<text text-anchor="middle" x="43.67" y="-137.45" font-family="Times,serif" font-size="14.00">MockEx</text>
</g>
<!-- transfers:BTC -->
<g id="node5" class="node">
<title>transfers:BTC</title>
<polygon fill="none" stroke="none" points="81.92,-88.5 5.42,-88.5 5.42,-72 81.92,-72 81.92,-88.5"/>
<text text-anchor="middle" x="43.67" y="-75.2" font-family="Times,serif" font-size="14.00">transfers:BTC</text>
</g>
<!-- MockEx&#45;&gt;transfers:BTC -->
<g id="edge3" class="edge">
<title>MockEx&#45;&gt;transfers:BTC</title>
<path fill="none" stroke="grey" d="M43.67,-113.12C43.67,-108.35 43.67,-103.51 43.67,-99.1"/>
<polygon fill="grey" stroke="grey" points="40.17,-113.07 43.67,-123.07 47.17,-113.07 40.17,-113.07"/>
<polygon fill="grey" stroke="grey" points="47.17,-99.19 43.67,-89.19 40.17,-99.19 47.17,-99.19"/>
</g>
<!-- Wallet -->
<g id="node3" class="node">
<title>Wallet</title>
<ellipse fill="orange" stroke="black" cx="43.67" cy="-18" rx="34.97" ry="18"/>
<text text-anchor="middle" x="43.67" y="-12.95" font-family="Times,serif" font-size="14.00">Wallet</text>
</g>
<!-- transfers:USD&#45;&gt;MockEx -->
<g id="edge2" class="edge">
<title>transfers:USD&#45;&gt;MockEx</title>
<path fill="none" stroke="grey" d="M43.67,-185.92C43.67,-181.46 43.67,-176.57 43.67,-171.75"/>
<polygon fill="grey" stroke="grey" points="40.17,-185.84 43.67,-195.84 47.17,-185.84 40.17,-185.84"/>
<polygon fill="grey" stroke="grey" points="47.17,-171.84 43.67,-161.84 40.17,-171.84 47.17,-171.84"/>
</g>
<!-- transfers:BTC&#45;&gt;Wallet -->
<g id="edge4" class="edge">
<title>transfers:BTC&#45;&gt;Wallet</title>
<path fill="none" stroke="grey" d="M43.67,-61.42C43.67,-56.96 43.67,-52.07 43.67,-47.25"/>
<polygon fill="grey" stroke="grey" points="40.17,-61.34 43.67,-71.34 47.17,-61.34 40.17,-61.34"/>
<polygon fill="grey" stroke="grey" points="47.17,-47.34 43.67,-37.34 40.17,-47.34 47.17,-47.34"/>
</g>
</g>
</svg>
