<?xml version="1.0" encoding="UTF-8" standalone="no"?>
<!DOCTYPE svg PUBLIC "-//W3C//DTD SVG 1.1//EN"
 "http://www.w3.org/Graphics/SVG/1.1/DTD/svg11.dtd">
<!-- Generated by graphviz version 8.1.0 (20230707.0739)
 -->
<!-- Title: implicit_split Pages: 1 -->
<svg width="241pt" height="286pt"
 viewBox="0.00 0.00 240.60 286.00" xmlns="http://www.w3.org/2000/svg" xmlns:xlink="http://www.w3.org/1999/xlink">
<g id="graph0" class="graph" transform="scale(1 1) rotate(0) translate(4 282)">
<title>implicit_split</title>
<g id="clust1" class="cluster">
<title>cluster_bb</title>
<polygon fill="#f9ede5" stroke="none" points="8,-193 8,-270 224.6,-270 224.6,-193 8,-193"/>
<text text-anchor="middle" x="116.3" y="-252.7" font-family="Times,serif" font-size="14.00" fill="brown">bigbank.csv</text>
</g>
<g id="clust2" class="cluster">
<title>cluster_me</title>
<polygon fill="#f9ede5" stroke="none" points="8.51,-93 8.51,-185 224.6,-185 224.6,-93 8.51,-93"/>
<text text-anchor="middle" x="116.56" y="-167.7" font-family="Times,serif" font-size="14.00" fill="brown">mockex.csv</text>
</g>
<g id="clust3" class="cluster">
<title>cluster_w</title>
<polygon fill="#f9ede5" stroke="none" points="16.7,-8 16.7,-85 224.22,-85 224.22,-8 16.7,-8"/>
<text text-anchor="middle" x="120.46" y="-67.7" font-family="Times,serif" font-size="14.00" fill="brown">wallet.csv</text>
</g>
<!-- Wallet -->
<g id="node1" class="node">
<title>Wallet</title>
<ellipse fill="orange" stroke="black" cx="59.67" cy="-34" rx="34.97" ry="18"/>
<text text-anchor="middle" x="59.67" y="-28.95" font-family="Times,serif" font-size="14.00">Wallet</text>
</g>
<!-- tbtc2 -->
<g id="node5" class="node">
<title>tbtc2</title>
<polygon fill="none" stroke="none" points="216.22,-42.25 139.72,-42.25 139.72,-25.75 216.22,-25.75 216.22,-42.25"/>
<text text-anchor="middle" x="177.97" y="-28.95" font-family="Times,serif" font-size="14.00">transfers:BTC</text>
</g>
<!-- Wallet&#45;&gt;tbtc2 -->
<g id="edge4" class="edge">
<title>Wallet&#45;&gt;tbtc2</title>
<path fill="none" stroke="grey" d="M105.6,-34C113.36,-34 121.45,-34 129.28,-34"/>
<polygon fill="grey" stroke="grey" points="105.94,-30.5 95.94,-34 105.94,-37.5 105.94,-30.5"/>
<polygon fill="grey" stroke="grey" points="129.12,-37.5 139.12,-34 129.12,-30.5 129.12,-37.5"/>
</g>
<!-- MockEx -->
<g id="node2" class="node">
<title>MockEx</title>
<ellipse fill="cornflowerblue" stroke="black" cx="59.67" cy="-126" rx="43.16" ry="18"/>
<text text-anchor="middle" x="59.67" y="-120.95" font-family="Times,serif" font-size="14.00">MockEx</text>
</g>
<!-- tbtc1 -->
<g id="node4" class="node">
<title>tbtc1</title>
<polygon fill="none" stroke="none" points="216.22,-117.25 139.72,-117.25 139.72,-100.75 216.22,-100.75 216.22,-117.25"/>
<text text-anchor="middle" x="177.97" y="-103.95" font-family="Times,serif" font-size="14.00">transfers:BTC</text>
</g>
<!-- MockEx&#45;&gt;tbtc1 -->
<g id="edge3" class="edge">
<title>MockEx&#45;&gt;tbtc1</title>
<path fill="none" stroke="grey" d="M111.88,-118.51C117.61,-117.68 123.43,-116.83 129.11,-116"/>
<polygon fill="grey" stroke="grey" points="111.41,-115.19 102.02,-120.1 112.42,-122.12 111.41,-115.19"/>
<polygon fill="grey" stroke="grey" points="129.43,-119.34 138.82,-114.43 128.41,-112.41 129.43,-119.34"/>
</g>
<!-- tusd2 -->
<g id="node7" class="node">
<title>tusd2</title>
<polygon fill="none" stroke="none" points="216.6,-152.25 139.35,-152.25 139.35,-135.75 216.6,-135.75 216.6,-152.25"/>
<text text-anchor="middle" x="177.97" y="-138.95" font-family="Times,serif" font-size="14.00">transfers:USD</text>
</g>
<!-- MockEx&#45;&gt;tusd2 -->
<g id="edge2" class="edge">
<title>MockEx&#45;&gt;tusd2</title>
<path fill="none" stroke="grey" d="M111.27,-133.83C117.08,-134.73 122.98,-135.64 128.75,-136.54"/>
<polygon fill="grey" stroke="grey" points="112.12,-130.27 101.7,-132.19 111.04,-137.18 112.12,-130.27"/>
<polygon fill="grey" stroke="grey" points="128.2,-140.15 138.62,-138.22 129.27,-133.23 128.2,-140.15"/>
</g>
<!-- BigBank -->
<g id="node3" class="node">
<title>BigBank</title>
<ellipse fill="#a2cd5a" stroke="black" cx="59.67" cy="-219" rx="43.67" ry="18"/>
<text text-anchor="middle" x="59.67" y="-213.95" font-family="Times,serif" font-size="14.00">BigBank</text>
</g>
<!-- tusd1 -->
<g id="node6" class="node">
<title>tusd1</title>
<polygon fill="none" stroke="none" points="216.6,-227.25 139.35,-227.25 139.35,-210.75 216.6,-210.75 216.6,-227.25"/>
<text text-anchor="middle" x="177.97" y="-213.95" font-family="Times,serif" font-size="14.00">transfers:USD</text>
</g>
<!-- BigBank&#45;&gt;tusd1 -->
<g id="edge1" class="edge">
<title>BigBank&#45;&gt;tusd1</title>
<path fill="none" stroke="grey" d="M114.6,-219C119.34,-219 124.12,-219 128.81,-219"/>
<polygon fill="grey" stroke="grey" points="114.65,-215.5 104.65,-219 114.65,-222.5 114.65,-215.5"/>
<polygon fill="grey" stroke="grey" points="128.53,-222.5 138.53,-219 128.53,-215.5 128.53,-222.5"/>
</g>
</g>
</svg>
