<?xml version="1.0" encoding="UTF-8" standalone="no"?>
<!DOCTYPE svg PUBLIC "-//W3C//DTD SVG 1.1//EN"
 "http://www.w3.org/Graphics/SVG/1.1/DTD/svg11.dtd">
<!-- Generated by graphviz version 8.1.0 (20230707.0739)
 -->
<!-- Title: normal Pages: 1 -->
<svg width="377pt" height="44pt"
 viewBox="0.00 0.00 376.87 44.00" xmlns="http://www.w3.org/2000/svg" xmlns:xlink="http://www.w3.org/1999/xlink">
<g id="graph0" class="graph" transform="scale(1 1) rotate(0) translate(4 40)">
<title>normal</title>
<!-- BigBank -->
<g id="node1" class="node">
<title>BigBank</title>
<ellipse fill="#a2cd5a" stroke="black" cx="43.67" cy="-18" rx="43.67" ry="18"/>
<text text-anchor="middle" x="43.67" y="-12.95" font-family="Times,serif" font-size="14.00">BigBank</text>
</g>
<!-- MockEx -->
<g id="node2" class="node">
<title>MockEx</title>
<ellipse fill="cornflowerblue" stroke="black" cx="193.51" cy="-18" rx="43.16" ry="18"/>
<text text-anchor="middle" x="193.51" y="-12.95" font-family="Times,serif" font-size="14.00">MockEx</text>
</g>
<!-- BigBank&#45;&gt;MockEx -->
<g id="edge1" class="edge">
<title>BigBank&#45;&gt;MockEx</title>
<path fill="none" stroke="grey" d="M98.7,-18C111.92,-18 126.06,-18 139.25,-18"/>
<polygon fill="grey" stroke="grey" points="98.83,-14.5 88.83,-18 98.83,-21.5 98.83,-14.5"/>
<polygon fill="grey" stroke="grey" points="139.07,-21.5 149.06,-18 139.06,-14.5 139.07,-21.5"/>
<text text-anchor="middle" x="118.85" y="-21.2" font-family="Times,serif" font-size="14.00">USD</text>
</g>
<!-- Wallet -->
<g id="node3" class="node">
<title>Wallet</title>
<ellipse fill="orange" stroke="black" cx="333.9" cy="-18" rx="34.97" ry="18"/>
<text text-anchor="middle" x="333.9" y="-12.95" font-family="Times,serif" font-size="14.00">Wallet</text>
</g>
<!-- MockEx&#45;&gt;Wallet -->
<g id="edge2" class="edge">
<title>MockEx&#45;&gt;Wallet</title>
<path fill="none" stroke="grey" d="M248.06,-18C261.16,-18 275.06,-18 287.73,-18"/>
<polygon fill="grey" stroke="grey" points="248.16,-14.5 238.16,-18 248.16,-21.5 248.16,-14.5"/>
<polygon fill="grey" stroke="grey" points="287.49,-21.5 297.49,-18 287.49,-14.5 287.49,-21.5"/>
<text text-anchor="middle" x="267.8" y="-21.2" font-family="Times,serif" font-size="14.00">BTC</text>
</g>
</g>
</svg>
